<svg xmlns="http://www.w3.org/2000/svg" preserveAspectRatio="xMidYMid" width="185" height="30"><defs><style>.cls-5{fill:#f69731}</style></defs><g id="aws-marketplacesvg"><g id="logo"><path d="M176.009 17.832c0 .451.063.919.189 1.403.126.485.329.919.607 1.304.279.385.631.704 1.056.956.424.252.935.378 1.533.378.915 0 1.632-.239 2.15-.717.517-.478.876-1.115 1.075-1.911h1.254c-.266 1.168-.754 2.07-1.463 2.708-.711.637-1.716.955-3.016.955-.81 0-1.51-.143-2.101-.428a3.86 3.86 0 0 1-1.443-1.175 5.096 5.096 0 0 1-.826-1.731 7.886 7.886 0 0 1-.269-2.081c0-.677.09-1.34.269-1.991.179-.65.454-1.231.826-1.742.371-.51.853-.922 1.443-1.234.591-.312 1.291-.468 2.101-.468.822 0 1.526.166 2.11.498a4.197 4.197 0 0 1 1.423 1.304 5.42 5.42 0 0 1 .787 1.851c.159.697.225 1.404.199 2.121h-7.904zm6.401-2.429a3.79 3.79 0 0 0-.647-1.165 3.223 3.223 0 0 0-1.016-.816 2.9 2.9 0 0 0-1.353-.309c-.518 0-.976.103-1.374.309a3.208 3.208 0 0 0-1.015.816c-.279.339-.502.73-.667 1.175a5.755 5.755 0 0 0-.329 1.363h6.649a4.542 4.542 0 0 0-.248-1.373zm-16.026 5.096c.298.412.673.744 1.125.996.451.252.975.378 1.572.378.385 0 .75-.073 1.095-.219.345-.146.65-.349.916-.607.265-.259.484-.568.657-.926.172-.358.279-.75.318-1.175h1.255c-.173 1.248-.631 2.22-1.374 2.917-.743.697-1.699 1.045-2.867 1.045-.783 0-1.476-.143-2.08-.428a4.403 4.403 0 0 1-1.523-1.165 5.058 5.058 0 0 1-.936-1.722 6.793 6.793 0 0 1-.318-2.1c0-.743.106-1.443.318-2.1a5.067 5.067 0 0 1 .936-1.722 4.529 4.529 0 0 1 1.523-1.175c.604-.292 1.297-.438 2.08-.438 1.102 0 2.034.292 2.797.876.763.584 1.218 1.467 1.364 2.648h-1.254c-.173-.77-.491-1.374-.956-1.812-.464-.438-1.115-.657-1.951-.657-.597 0-1.121.127-1.572.379a3.442 3.442 0 0 0-1.125.995 4.495 4.495 0 0 0-.677 1.404 5.694 5.694 0 0 0 0 3.205c.152.524.378.992.677 1.403zm-4.032 2.13c-.318 0-.574-.043-.766-.129a1.024 1.024 0 0 1-.448-.368 1.389 1.389 0 0 1-.209-.568 4.89 4.89 0 0 1-.05-.726h-.04a8.332 8.332 0 0 1-.686.886 3.474 3.474 0 0 1-.777.647c-.285.172-.61.305-.975.398-.366.092-.8.139-1.304.139-.478 0-.926-.057-1.344-.169a3.017 3.017 0 0 1-1.095-.538 2.575 2.575 0 0 1-.737-.935c-.179-.379-.268-.827-.268-1.344 0-.717.159-1.277.477-1.682.319-.405.74-.714 1.265-.926a7.205 7.205 0 0 1 1.771-.448c.657-.086 1.324-.169 2.001-.249.265-.026.498-.06.697-.099.199-.04.365-.11.498-.209a.976.976 0 0 0 .308-.409c.073-.172.11-.398.11-.676 0-.425-.07-.773-.209-1.046a1.668 1.668 0 0 0-.578-.647 2.334 2.334 0 0 0-.856-.328 5.762 5.762 0 0 0-1.045-.09c-.796 0-1.447.189-1.951.568-.504.378-.77.985-.796 1.821h-1.254c.039-.597.165-1.115.378-1.553a2.95 2.95 0 0 1 .866-1.075 3.683 3.683 0 0 1 1.284-.617 6.28 6.28 0 0 1 1.632-.199c.451 0 .903.043 1.354.13.451.086.856.248 1.214.487.359.239.651.575.876 1.006.226.431.339.992.339 1.682v5.455c0 .504.245.756.736.756a.977.977 0 0 0 .399-.079v1.055a6.625 6.625 0 0 1-.389.059c-.112.014-.255.02-.428.02zm-1.572-5.614h-.04c-.08.147-.233.253-.458.319a4.667 4.667 0 0 1-.597.139c-.531.093-1.079.176-1.643.249a9.018 9.018 0 0 0-1.543.329c-.464.146-.846.355-1.144.627-.299.272-.448.66-.448 1.164 0 .319.063.601.189.846.126.246.295.458.508.637.212.18.457.316.736.409.279.093.564.139.856.139.478 0 .936-.073 1.374-.219a3.384 3.384 0 0 0 1.145-.637c.325-.279.583-.617.776-1.015.192-.399.289-.85.289-1.354v-1.633zm-10.432-8.6h1.254v14.214h-1.254V8.415zm-3.305 12.89c-.385.498-.866.89-1.443 1.175-.577.285-1.258.428-2.041.428-.371 0-.743-.047-1.114-.139a3.941 3.941 0 0 1-1.036-.418 3.429 3.429 0 0 1-.846-.697 2.967 2.967 0 0 1-.567-.976h-.04v5.734h-1.254V12.357h1.155v1.951h.039a3.355 3.355 0 0 1 1.424-1.662c.657-.392 1.403-.588 2.239-.588.783 0 1.464.146 2.041.438a4.188 4.188 0 0 1 1.443 1.185c.385.497.67 1.075.856 1.732a7.6 7.6 0 0 1 .279 2.08c0 .73-.093 1.424-.279 2.081a5.04 5.04 0 0 1-.856 1.731zm-.308-5.395a4.393 4.393 0 0 0-.597-1.403 3.293 3.293 0 0 0-1.046-1.005c-.424-.259-.935-.389-1.533-.389-.69 0-1.267.12-1.731.359a3.008 3.008 0 0 0-1.115.955 3.764 3.764 0 0 0-.588 1.394 8.014 8.014 0 0 0-.169 1.672c0 .531.063 1.059.189 1.583s.332.992.617 1.403c.286.412.657.747 1.115 1.006.458.258 1.019.388 1.682.388.598 0 1.109-.13 1.533-.388a3.296 3.296 0 0 0 1.046-1.006c.271-.411.471-.879.597-1.403a6.75 6.75 0 0 0 0-3.166zm-11.158 6.819c-.837 0-1.421-.162-1.752-.488-.332-.325-.491-.926-.478-1.802v-7.027h-1.792v-1.055h1.792V9.271h1.254v3.086h2.09v1.055h-2.09v6.928c0 .411.056.733.169.965.113.233.395.362.846.389.359 0 .717-.02 1.075-.06v1.055c-.186 0-.371.007-.557.02-.186.013-.372.02-.557.02zm-12.572-3.494c.126.485.328.919.607 1.304.279.385.63.704 1.055.956.425.252.936.378 1.533.378.916 0 1.632-.239 2.15-.717s.876-1.115 1.075-1.911h1.254c-.265 1.168-.753 2.07-1.463 2.708-.71.637-1.715.955-3.016.955-.81 0-1.51-.143-2.1-.428a3.863 3.863 0 0 1-1.444-1.175 5.115 5.115 0 0 1-.826-1.731 7.886 7.886 0 0 1-.269-2.081c0-.677.09-1.34.269-1.991.179-.65.455-1.231.826-1.742.372-.51.853-.922 1.444-1.234.59-.312 1.29-.468 2.1-.468.823 0 1.526.166 2.11.498a4.21 4.21 0 0 1 1.424 1.304c.365.537.627 1.155.786 1.851.159.697.226 1.404.199 2.121h-7.903c0 .451.062.919.189 1.403zm6.46-2.459a4.542 4.542 0 0 0-.249-1.373 3.77 3.77 0 0 0-.647-1.165 3.22 3.22 0 0 0-1.015-.816 2.904 2.904 0 0 0-1.354-.309c-.518 0-.976.103-1.374.309a3.22 3.22 0 0 0-1.015.816c-.279.339-.501.73-.667 1.175a5.704 5.704 0 0 0-.328 1.363h6.649zm-10.193 5.853l-4.061-5.594-2.031 1.692v3.902h-1.254V8.415h1.254v8.919l5.694-4.977h1.672l-4.38 3.802 4.679 6.47h-1.573zm-10.292-8.928a3.506 3.506 0 0 0-1.205.766 3.47 3.47 0 0 0-.786 1.185 3.958 3.958 0 0 0-.279 1.503v5.474h-1.254V12.357h1.155v2.409h.04c.318-.836.812-1.48 1.483-1.931.67-.451 1.469-.657 2.399-.618v1.255a3.764 3.764 0 0 0-1.553.229zm-5.913 8.928c-.318 0-.574-.043-.766-.129a1.024 1.024 0 0 1-.448-.368 1.374 1.374 0 0 1-.209-.568 4.758 4.758 0 0 1-.05-.726h-.04a8.467 8.467 0 0 1-.687.886 3.447 3.447 0 0 1-.776.647 3.612 3.612 0 0 1-.976.398 5.382 5.382 0 0 1-1.304.139c-.477 0-.925-.057-1.343-.169a3.009 3.009 0 0 1-1.095-.538 2.564 2.564 0 0 1-.737-.935c-.179-.379-.269-.827-.269-1.344 0-.717.16-1.277.478-1.682.319-.405.74-.714 1.264-.926a7.213 7.213 0 0 1 1.772-.448c.657-.086 1.324-.169 2.001-.249.265-.026.498-.06.697-.099.199-.04.365-.11.497-.209a.97.97 0 0 0 .309-.409c.073-.172.109-.398.109-.676 0-.425-.069-.773-.209-1.046a1.658 1.658 0 0 0-.577-.647 2.34 2.34 0 0 0-.856-.328 5.762 5.762 0 0 0-1.045-.09c-.796 0-1.447.189-1.951.568-.505.378-.77.985-.796 1.821h-1.255c.04-.597.166-1.115.379-1.553.212-.437.5-.796.866-1.075a3.675 3.675 0 0 1 1.284-.617 6.28 6.28 0 0 1 1.632-.199c.451 0 .903.043 1.354.13.451.086.856.248 1.214.487.359.239.65.575.876 1.006.226.431.339.992.339 1.682v5.455c0 .504.245.756.736.756a.969.969 0 0 0 .398-.079v1.055a6.48 6.48 0 0 1-.388.059 3.61 3.61 0 0 1-.428.02zm-1.573-5.614h-.039c-.08.147-.233.253-.458.319a4.667 4.667 0 0 1-.597.139c-.531.093-1.079.176-1.643.249a9.018 9.018 0 0 0-1.543.329c-.464.146-.846.355-1.144.627-.299.272-.448.66-.448 1.164 0 .319.062.601.189.846.126.246.295.458.507.637.213.18.458.316.737.409.279.093.564.139.856.139.478 0 .936-.073 1.374-.219a3.37 3.37 0 0 0 1.144-.637c.325-.279.584-.617.777-1.015.192-.399.288-.85.288-1.354v-1.633zm-10.411-1.294c0-.849-.179-1.496-.538-1.941-.358-.444-.989-.667-1.891-.667-.544 0-.995.103-1.354.309a2.38 2.38 0 0 0-.856.826c-.212.345-.362.74-.448 1.185a7.259 7.259 0 0 0-.129 1.383v5.813h-1.254v-6.967c0-.345-.037-.674-.11-.986a2.276 2.276 0 0 0-.358-.816 1.703 1.703 0 0 0-.667-.548c-.279-.132-.617-.199-1.015-.199-.531 0-.993.097-1.384.289-.392.193-.71.458-.956.796a3.536 3.536 0 0 0-.547 1.195c-.12.458-.179.959-.179 1.503v5.733h-1.254V12.357h1.154v1.732h.06c.332-.637.766-1.135 1.304-1.493.537-.359 1.224-.538 2.06-.538a3.5 3.5 0 0 1 1.842.498c.55.332.919.836 1.105 1.513.305-.677.756-1.181 1.353-1.513a3.878 3.878 0 0 1 1.912-.498c2.269 0 3.404 1.202 3.404 3.604v6.967h-1.254v-6.908z" id="path-1" fill-rule="evenodd" fill="#000"/><path d="M74.787 13.841c-.065.132-.131.198-.219.198-.044 0-.109-.022-.175-.044-.832-.373-1.598-.57-2.211-.57-.898 0-1.402.395-1.402 1.117 0 .591.241.81 1.445 1.27 1.621.635 2.08.876 2.54 1.314.57.569.898 1.357.898 2.233 0 .942-.372 1.883-1.007 2.54-.657.679-1.533 1.007-2.693 1.007a8.35 8.35 0 0 1-3.723-.919c-.394-.197-.481-.263-.481-.416 0-.088.022-.132.065-.263l.504-1.336c.066-.153.131-.219.219-.219.044 0 .109.022.197.066 1.16.635 2.146.942 2.978.942.766 0 1.27-.46 1.27-1.139 0-.613-.263-.832-1.686-1.379-1.402-.526-1.883-.811-2.277-1.183-.57-.547-.876-1.292-.876-2.146 0-2.102 1.62-3.569 3.897-3.569 1.38 0 3.35.592 3.35 1.008a.578.578 0 0 1-.065.24l-.548 1.248zm-11.213 8.562c-.087.284-.109.306-.416.306h-1.817c-.307 0-.328-.022-.394-.35l-1.029-5.54c-.044-.241-.066-.306-.153-1.116l-.088-.811-.066-.525c-.175 1.204-.175 1.489-.394 2.452l-1.292 5.562c-.065.306-.109.328-.394.328h-1.795c-.307 0-.307-.022-.394-.328l-2.65-10.072c-.044-.197-.044-.197-.044-.241 0-.131.088-.175.329-.219l1.927-.285c.022-.022.131-.022.175-.022.153 0 .219.066.263.307l1.029 5.036c.109.547.219 1.27.459 3.438.132-1.467.263-2.562.395-3.153l1.094-5.124c.066-.307.088-.328.395-.328h1.97c.285 0 .329.043.394.328l.986 4.927c.109.503.328 2.189.438 3.35.218-2.146.328-2.978.481-3.635l1.117-4.839c.066-.241.109-.307.241-.307.044 0 .175 0 .197.022l1.795.285c.241.044.329.109.329.241 0 .044-.022.044-.066.219l-3.022 10.094zm-14.233.416a.58.58 0 0 1-.263.065c-.197 0-.416-.416-.657-1.291-.876.897-1.664 1.248-2.803 1.248-2.014 0-3.284-1.292-3.284-3.307 0-1.948 1.051-3.087 3.262-3.525.57-.109 1.248-.175 2.453-.197v-.679c0-1.248-.351-1.642-1.445-1.642-.657 0-1.489.197-2.453.569a.566.566 0 0 1-.241.066c-.109 0-.175-.066-.219-.219l-.459-1.314a.921.921 0 0 1-.044-.24c0-.46 1.992-1.008 3.744-1.008 1.73 0 2.912.57 3.416 1.686.219.46.306.986.306 1.818v4.466c0 .964.132 1.599.504 2.365a.57.57 0 0 1 .066.241c0 .088-.066.175-.176.219l-1.707.679zm-1.292-5.19c-2.19 0-3.066.482-3.066 1.752 0 .854.613 1.511 1.402 1.511.591 0 1.138-.285 1.664-.854v-2.409z" id="path-2" class="cls-5" fill-rule="evenodd"/></g><g id="iso"><path d="M31.625 7.085l-5.182 16.364H4.352L-.012 10.085h4.364l2.727 9.273h16.637l4.636-15.546h11.182v3.273h-7.909zM8.301 24.801a2.592 2.592 0 0 1 2.585 2.6A2.592 2.592 0 0 1 8.301 30a2.592 2.592 0 0 1-2.585-2.599c0-1.436 1.157-2.6 2.585-2.6zm14.73 0a2.6 2.6 0 1 1 0 5.2 2.6 2.6 0 0 1 0-5.2z" id="path-3" fill-rule="evenodd" fill="#59595c"/><path d="M10.352 8.722V2.994l3.818-1.363v5.727l-3.818 1.364zM6.261 1.085l3.818-1.091 3.273 1.091-3.273 1.091-3.818-1.091zm3.273 7.637L5.716 7.358V1.631l3.818 1.363v5.728z" id="path-4" class="cls-5" fill-rule="evenodd"/><path d="M15.807 17.449v-5.727l3.818-1.364v5.727l-3.818 1.364zm-4.091-7.637l3.818-1.09 3.273 1.09-3.273 1.091-3.818-1.091zm3.273 7.637l-3.819-1.364v-5.727l3.819 1.364v5.727z" id="path-5" fill-rule="evenodd" fill="#1a77b7"/><path d="M21.261 8.722V2.994l3.819-1.363v5.727l-3.819 1.364zM17.17 1.085l3.819-1.091 3.272 1.091-3.272 1.091-3.819-1.091zm3.273 7.637l-3.818-1.364V1.631l3.818 1.363v5.728z" id="path-6" fill-rule="evenodd" fill="#b0d2ed"/></g></g></svg>