<svg xmlns="http://www.w3.org/2000/svg" preserveAspectRatio="xMidYMid" width="197" height="32" viewBox="0 0 197 32"><defs><style>.cls-3{fill:#000}.cls-5{fill:#b7ca9d}.cls-6{fill:#3c482a}.cls-7{fill:#4a612c}.cls-8{fill:#759c3e}</style></defs><g id="aws-cloud-formationsvg"><path d="M195.228 22.463v-5.595c0-.382-.034-.738-.104-1.068a2.262 2.262 0 0 0-.363-.86 1.759 1.759 0 0 0-.7-.574c-.294-.139-.66-.208-1.098-.208-.438 0-.828.078-1.168.234-.34.157-.628.371-.864.643a2.97 2.97 0 0 0-.554.973 4.016 4.016 0 0 0-.216 1.225v5.23h-1.089v-8.966h1.089v1.547h.035c.207-.545.576-.982 1.107-1.312a3.24 3.24 0 0 1 1.746-.495c.623 0 1.144.081 1.565.243a2.48 2.48 0 0 1 1.012.686c.253.296.432.658.536 1.086.104.429.156.91.156 1.443v5.768h-1.09zm-8.854-1.147a3.833 3.833 0 0 1-1.323 1.017c-.525.249-1.127.374-1.807.374-.68 0-1.283-.125-1.807-.374a3.833 3.833 0 0 1-1.323-1.017 4.449 4.449 0 0 1-.813-1.503 5.96 5.96 0 0 1-.276-1.833c0-.648.092-1.259.276-1.833a4.468 4.468 0 0 1 .813-1.503 3.94 3.94 0 0 1 1.323-1.025c.524-.255 1.127-.382 1.807-.382.68 0 1.282.127 1.807.382a3.94 3.94 0 0 1 1.323 1.025c.357.429.628.93.813 1.503a5.97 5.97 0 0 1 .277 1.833 5.96 5.96 0 0 1-.277 1.833 4.449 4.449 0 0 1-.813 1.503zm-.199-4.734a3.918 3.918 0 0 0-.588-1.225 3 3 0 0 0-.977-.869c-.392-.22-.847-.33-1.366-.33-.519 0-.974.11-1.366.33a3 3 0 0 0-.977.869c-.26.359-.456.767-.588 1.225a4.985 4.985 0 0 0 0 2.797c.132.458.328.866.588 1.225a3 3 0 0 0 .977.869c.392.22.847.33 1.366.33.519 0 .974-.11 1.366-.33a3 3 0 0 0 .977-.869c.26-.359.456-.767.588-1.225a4.985 4.985 0 0 0 0-2.797zm-9.883-3.085h1.09v8.966h-1.09v-8.966zm0-3.44h1.09v1.755h-1.09v-1.755zm-2.559 12.493c-.726 0-1.234-.142-1.522-.426-.288-.283-.426-.808-.415-1.572v-6.134h-1.556v-.921h1.556v-2.693h1.09v2.693h1.815v.921h-1.815v6.047c0 .359.048.64.147.843.097.203.342.316.735.339.311 0 .622-.018.933-.053v.921c-.161 0-.323.006-.484.018a7.114 7.114 0 0 1-.484.017zm-4.479-.087c-.277 0-.499-.037-.666-.113a.89.89 0 0 1-.389-.321 1.2 1.2 0 0 1-.181-.495 4.249 4.249 0 0 1-.044-.635h-.034c-.196.29-.395.548-.597.774a2.948 2.948 0 0 1-.674.564 3.093 3.093 0 0 1-.848.348 4.614 4.614 0 0 1-1.132.122c-.415 0-.804-.05-1.168-.148a2.615 2.615 0 0 1-.951-.469 2.254 2.254 0 0 1-.64-.817c-.155-.33-.233-.721-.233-1.173 0-.625.138-1.115.415-1.468a2.616 2.616 0 0 1 1.098-.808 6.244 6.244 0 0 1 1.539-.391c.571-.075 1.15-.148 1.738-.217.231-.023.433-.052.605-.087.173-.035.317-.096.433-.183a.843.843 0 0 0 .268-.356c.063-.15.095-.347.095-.591 0-.37-.061-.674-.182-.912a1.442 1.442 0 0 0-.501-.564 2.018 2.018 0 0 0-.744-.287 5.01 5.01 0 0 0-.908-.078c-.691 0-1.256.165-1.694.495-.439.33-.669.86-.692 1.59h-1.09c.035-.522.144-.973.329-1.356.184-.382.435-.695.752-.938a3.185 3.185 0 0 1 1.116-.539 5.438 5.438 0 0 1 1.418-.173c.391 0 .784.037 1.176.113.391.075.743.217 1.054.425.312.209.565.502.761.878.196.376.294.866.294 1.468v4.761c0 .44.214.66.64.66a.845.845 0 0 0 .346-.069v.921a3.187 3.187 0 0 1-.709.069zm-1.366-4.9h-.035c-.069.128-.202.22-.397.278-.197.058-.37.099-.519.122-.461.081-.937.154-1.427.217-.49.064-.937.16-1.34.287-.404.127-.735.31-.994.547-.26.238-.39.577-.39 1.017 0 .278.055.524.165.738.109.215.256.4.441.556.184.157.397.275.64.356.242.082.489.122.743.122a3.74 3.74 0 0 0 1.193-.191c.381-.127.712-.313.995-.556.282-.243.507-.539.674-.886.167-.348.251-.742.251-1.182v-1.425zm-8.871-1.129c0-.741-.156-1.306-.467-1.694-.312-.388-.859-.582-1.643-.582-.473 0-.865.09-1.176.269-.311.18-.559.42-.744.721a3.09 3.09 0 0 0-.389 1.034 6.355 6.355 0 0 0-.112 1.208v5.073h-1.09v-6.081c0-.301-.032-.588-.095-.86a1.998 1.998 0 0 0-.311-.713 1.483 1.483 0 0 0-.579-.478c-.242-.115-.536-.173-.882-.173-.462 0-.862.084-1.202.252-.34.168-.617.399-.83.695a3.077 3.077 0 0 0-.476 1.042c-.104.4-.155.837-.155 1.312v5.004h-1.09v-8.966h1.003v1.512h.052c.288-.556.666-.99 1.133-1.303.467-.313 1.063-.469 1.79-.469.587 0 1.121.145 1.599.434.478.29.798.73.96 1.321.265-.591.657-1.031 1.176-1.321a3.36 3.36 0 0 1 1.66-.434c1.971 0 2.957 1.048 2.957 3.145v6.081h-1.089v-6.029zM145.39 14.67a3.05 3.05 0 0 0-1.047.669c-.293.29-.521.634-.683 1.034a3.48 3.48 0 0 0-.242 1.312v4.778h-1.089v-8.966h1.003V15.6h.034c.277-.73.706-1.292 1.289-1.686.582-.393 1.276-.573 2.084-.538v1.094a3.282 3.282 0 0 0-1.349.2zm-5.776 6.646a3.851 3.851 0 0 1-1.323 1.017c-.525.249-1.127.374-1.807.374-.681 0-1.283-.125-1.807-.374a3.833 3.833 0 0 1-1.323-1.017 4.414 4.414 0 0 1-.813-1.503 5.93 5.93 0 0 1-.277-1.833c0-.648.092-1.259.277-1.833a4.433 4.433 0 0 1 .813-1.503 3.94 3.94 0 0 1 1.323-1.025c.524-.255 1.126-.382 1.807-.382.68 0 1.282.127 1.807.382a3.96 3.96 0 0 1 1.323 1.025c.357.429.628.93.813 1.503a5.97 5.97 0 0 1 .276 1.833 5.96 5.96 0 0 1-.276 1.833 4.449 4.449 0 0 1-.813 1.503zm-.199-4.734a3.962 3.962 0 0 0-.588-1.225 3 3 0 0 0-.977-.869c-.392-.22-.847-.33-1.366-.33-.519 0-.975.11-1.366.33a3 3 0 0 0-.977.869c-.26.359-.456.767-.588 1.225a4.985 4.985 0 0 0 0 2.797c.132.458.328.866.588 1.225a3 3 0 0 0 .977.869c.391.22.847.33 1.366.33.519 0 .974-.11 1.366-.33a3 3 0 0 0 .977-.869c.259-.359.455-.767.588-1.225a5.021 5.021 0 0 0 0-2.797zm-14.604-1.034h5.914v1.008h-5.914v5.907h-1.176V10.057h7.834v1.008h-6.658v4.483zm-4.462 5.212h-.034c-.116.29-.285.556-.51.8a3.332 3.332 0 0 1-.77.617 3.969 3.969 0 0 1-.925.391 3.614 3.614 0 0 1-.977.139c-.68 0-1.271-.125-1.773-.374a3.556 3.556 0 0 1-1.253-1.025 4.4 4.4 0 0 1-.744-1.512 6.643 6.643 0 0 1-.242-1.816c0-.637.08-1.242.242-1.815a4.382 4.382 0 0 1 .744-1.512 3.635 3.635 0 0 1 1.253-1.034c.502-.255 1.093-.382 1.773-.382.334 0 .66.04.977.121.317.082.614.206.891.374.276.168.521.374.735.617.213.243.377.527.492.851h.035v-5.143h1.089v12.406h-1.003V20.76zm-.25-4.161a3.637 3.637 0 0 0-.536-1.225 2.897 2.897 0 0 0-.969-.878c-.398-.225-.885-.338-1.461-.338-.519 0-.963.113-1.332.338a2.873 2.873 0 0 0-.908.878 3.818 3.818 0 0 0-.518 1.225 5.892 5.892 0 0 0 0 2.763c.109.457.282.866.518 1.225.237.359.539.651.908.877.369.226.813.339 1.332.339.576 0 1.063-.113 1.461-.339.398-.226.721-.518.969-.877.247-.359.426-.768.536-1.225a5.944 5.944 0 0 0 0-2.763zm-9.658 4.248h-.035a3.1 3.1 0 0 1-1.254 1.382 3.566 3.566 0 0 1-1.824.478c-.565 0-1.046-.079-1.444-.235a2.399 2.399 0 0 1-.969-.669 2.707 2.707 0 0 1-.544-1.06 5.328 5.328 0 0 1-.173-1.425v-5.821h1.089v5.839c.023.811.21 1.424.562 1.841.352.417.96.626 1.825.626.472 0 .876-.101 1.21-.304.334-.203.611-.472.83-.808a3.63 3.63 0 0 0 .484-1.156c.104-.434.156-.877.156-1.329v-4.709h1.09v8.966h-1.003v-1.616zm-8.941.469a3.833 3.833 0 0 1-1.323 1.017c-.525.249-1.127.374-1.807.374-.68 0-1.283-.125-1.807-.374a3.833 3.833 0 0 1-1.323-1.017 4.414 4.414 0 0 1-.813-1.503 5.96 5.96 0 0 1-.276-1.833c0-.648.092-1.259.276-1.833a4.433 4.433 0 0 1 .813-1.503 3.94 3.94 0 0 1 1.323-1.025c.524-.255 1.127-.382 1.807-.382.68 0 1.282.127 1.807.382a3.94 3.94 0 0 1 1.323 1.025c.357.429.628.93.813 1.503a5.97 5.97 0 0 1 .277 1.833 5.96 5.96 0 0 1-.277 1.833 4.449 4.449 0 0 1-.813 1.503zm-.199-4.734a3.918 3.918 0 0 0-.588-1.225 3 3 0 0 0-.977-.869c-.392-.22-.847-.33-1.366-.33-.519 0-.974.11-1.366.33a3 3 0 0 0-.977.869c-.26.359-.456.767-.588 1.225a4.985 4.985 0 0 0 0 2.797c.132.458.328.866.588 1.225a3 3 0 0 0 .977.869c.392.22.847.33 1.366.33.519 0 .974-.11 1.366-.33a3 3 0 0 0 .977-.869c.26-.359.456-.767.588-1.225a4.985 4.985 0 0 0 0-2.797zm-9.883-6.525h1.09v12.406h-1.09V10.057zM81.12 20.005c.375.515.856.929 1.444 1.242.588.313 1.291.469 2.11.469.576 0 1.095-.104 1.556-.313a3.691 3.691 0 0 0 1.194-.851c.334-.359.605-.779.812-1.26.208-.48.34-.999.398-1.555h1.176a6.719 6.719 0 0 1-.536 2.068 5.09 5.09 0 0 1-1.072 1.564 4.573 4.573 0 0 1-1.548.99c-.594.232-1.254.348-1.98.348-.968 0-1.819-.177-2.551-.53a5.303 5.303 0 0 1-1.824-1.417 6.025 6.025 0 0 1-1.09-2.05 8.184 8.184 0 0 1-.363-2.45c0-.857.121-1.674.363-2.45a6.133 6.133 0 0 1 1.09-2.059 5.264 5.264 0 0 1 1.824-1.425c.732-.353 1.583-.53 2.551-.53.588 0 1.161.087 1.721.261a4.987 4.987 0 0 1 1.521.773c.456.342.836.762 1.142 1.26.305.498.498 1.072.579 1.72h-1.176a3.993 3.993 0 0 0-.51-1.277 3.491 3.491 0 0 0-.865-.947 3.839 3.839 0 0 0-1.124-.582 4.137 4.137 0 0 0-1.288-.2c-.819 0-1.522.157-2.11.469a4.187 4.187 0 0 0-1.444 1.243 5.354 5.354 0 0 0-.83 1.746 7.48 7.48 0 0 0-.268 1.998c0 .672.089 1.335.268 1.99.179.654.455 1.239.83 1.755zM66.3 14.297c.271.127.646.255 1.124.382.478.128 1.104.29 1.876.486.231.047.551.131.96.252a4.61 4.61 0 0 1 1.219.582c.404.267.753.623 1.047 1.069.294.446.441 1.017.441 1.712a3.81 3.81 0 0 1-.329 1.581 3.446 3.446 0 0 1-.977 1.26c-.432.353-.968.628-1.608.825-.64.197-1.381.295-2.222.295a7.768 7.768 0 0 1-1.981-.252 4.956 4.956 0 0 1-1.694-.79 3.897 3.897 0 0 1-1.167-1.373c-.289-.556-.427-1.216-.416-1.981h2.629c0 .417.075.771.225 1.06.15.29.348.524.596.704.248.18.539.313.874.399a4.1 4.1 0 0 0 1.037.131c.242 0 .502-.02.778-.061.277-.04.537-.119.779-.235a1.7 1.7 0 0 0 .605-.477c.161-.203.242-.461.242-.774 0-.335-.107-.608-.32-.816a2.526 2.526 0 0 0-.839-.522 8.283 8.283 0 0 0-1.176-.364c-.438-.105-.881-.22-1.331-.348a11.815 11.815 0 0 1-1.349-.426 4.614 4.614 0 0 1-1.176-.651 3.085 3.085 0 0 1-.839-.999c-.213-.4-.319-.884-.319-1.451 0-.637.135-1.19.406-1.66.271-.469.625-.86 1.063-1.173a4.647 4.647 0 0 1 1.488-.695 6.315 6.315 0 0 1 1.66-.225c.645 0 1.265.072 1.859.217a4.639 4.639 0 0 1 1.582.703c.461.325.827.739 1.098 1.243.271.504.407 1.115.407 1.833h-2.629c-.023-.371-.101-.678-.233-.921a1.538 1.538 0 0 0-.528-.573 2.228 2.228 0 0 0-.752-.296 4.608 4.608 0 0 0-.925-.087c-.219 0-.439.024-.657.07a1.76 1.76 0 0 0-.597.243 1.5 1.5 0 0 0-.441.435c-.115.173-.173.394-.173.66 0 .243.046.44.138.591.093.15.274.289.545.417zm-10.211 8.166l-2.093-8.444h-.034l-2.058 8.444h-2.75l-3.268-12.406h2.715l1.954 8.445h.034l2.145-8.445h2.542l2.11 8.549h.034l2.023-8.549h2.664l-3.321 12.406h-2.697zm-12.538 0l-.934-2.762H38l-.969 2.762h-2.732l4.669-12.406h2.784l4.618 12.406h-2.819zm-3.199-9.348h-.035l-1.608 4.553h3.199l-1.556-4.553z" id="path-1" class="cls-3" fill-rule="evenodd"/><g id="iso"><path d="M25.171 22.022l-11.569 3.823-.035-2.363 7.934-1.971.346-.385 3.324.896" id="path-2" class="cls-5" fill-rule="evenodd"/><path d="M13.875 8.603l7.934 1.856 3.49-.166.181-.351-11.055-3.993-.55 2.654" id="path-3" class="cls-6" fill-rule="evenodd"/><path d="M21.576 21.539l3.693.512.207-.361V10.193l-.207-.347-3.693.512v11.181" id="path-4" class="cls-7" fill-rule="evenodd"/><path d="M13.156 31.998l13.14-6.622.006-18.748L13.156.002v31.996zm3.866-24.407l7.588 2.278V22.13l-7.588 2.279V7.591z" id="path-5" class="cls-8" fill-rule="evenodd"/><path d="M4.936 21.642l-3.694.511-.103-.378V10.347l.103-.398 3.338.245.356.266v11.182" id="path-6" class="cls-8" fill-rule="evenodd"/><path d="M12.95 8.602l-7.934 1.857-3.67-.517.138-.218 11.415-3.262.051 2.14" id="path-7" class="cls-6" fill-rule="evenodd"/><path d="M1.654 22.088l.224.253 11.329 3.196.051-1.981-7.934-1.981-.388-.14-3.282.653" id="path-8" class="cls-5" fill-rule="evenodd"/><path d="M13.165.002L.011 6.627l.006 18.749 13.148 6.622.196-.297V.387l-.196-.385zM9.319 24.409L1.708 22.13V9.869l7.611-2.278v16.818z" id="path-9" class="cls-7" fill-rule="evenodd"/></g></g></svg>