<svg xmlns="http://www.w3.org/2000/svg" preserveAspectRatio="xMidYMid" width="164" height="24" viewBox="0 0 164 24"><defs><style>.cls-2{fill:#20bdf0}</style></defs><path d="M157.206 13.711c.025 1.061.314 1.88.865 2.457.551.577 1.309.865 2.274.865 1.083 0 2.08-.354 2.988-1.061v1.433c-.846.608-1.964.912-3.355.912-1.359 0-2.427-.433-3.204-1.298-.777-.865-1.165-2.083-1.165-3.652 0-1.483.424-2.691 1.273-3.625.849-.934 1.903-1.4 3.162-1.4s2.233.403 2.922 1.209c.689.807 1.034 1.927 1.034 3.36v.8h-6.794zm4.572-3.35c-.423-.49-1.01-.735-1.762-.735a2.5 2.5 0 0 0-1.851.772c-.508.515-.821 1.188-.94 2.019h5.196c-.006-.88-.22-1.566-.643-2.056zm-8.349-.559c-.658 0-1.207.308-1.649.922-.442.614-.663 1.451-.663 2.512v4.858h-1.541V8.565h1.541v1.963h.038c.219-.67.554-1.192 1.005-1.568a2.309 2.309 0 0 1 1.513-.563c.401 0 .708.044.921.131v1.582c-.269-.205-.658-.308-1.165-.308zm-8.504 6.784h-.038c-.638 1.154-1.628 1.731-2.969 1.731-2.293 0-3.439-1.352-3.439-4.057V8.565h1.532v5.453c0 2.01.776 3.015 2.33 3.015.752 0 1.37-.275 1.856-.824.485-.549.728-1.267.728-2.154v-5.49h1.541v9.529h-1.541v-1.508zm-8.288.205v1.303h-7.902v-.475l5.694-7.751h-5.159V8.565h7.424v.437l-5.695 7.789h5.638zm-11.604-2.438h-5.714l-1.343 3.741h-1.757l5.168-13.344h1.635l5.187 13.344h-1.748l-1.428-3.741zm-2.631-7.091c-.069-.186-.138-.484-.207-.893h-.038a4.847 4.847 0 0 1-.216.893l-2.095 5.686h4.67l-2.114-5.686zm-13.597 11.037c-1.685 0-2.528-.931-2.528-2.792V9.868h-1.654V8.565h1.654V6.239l1.541-.494v2.82h2.424v1.303h-2.424v5.369c0 .639.11 1.095.329 1.368.219.273.583.409 1.09.409.388 0 .724-.105 1.005-.316v1.303c-.363.198-.842.298-1.437.298zm-5.319-13.224c-1.077 0-1.616.673-1.616 2.02v1.47h2.255v1.303h-2.255v8.226h-1.532V9.868h-1.644V8.565h1.644V7.02c0-.999.292-1.788.874-2.368.583-.58 1.31-.87 2.18-.87.47 0 .843.056 1.118.167v1.378a2.061 2.061 0 0 0-1.024-.252zM92.502 18.317c-1.422 0-2.558-.445-3.407-1.335-.849-.89-1.273-2.071-1.273-3.541 0-1.6.442-2.851 1.325-3.75.883-.9 2.077-1.349 3.58-1.349 1.435 0 2.554.437 3.359 1.312.805.874 1.208 2.087 1.208 3.638 0 1.52-.434 2.737-1.302 3.652-.867.916-2.031 1.373-3.49 1.373zm2.41-7.723c-.536-.646-1.302-.968-2.298-.968-.989 0-1.772.333-2.349 1-.576.667-.864 1.587-.864 2.759 0 1.129.291 2.019.874 2.671.582.651 1.362.977 2.339.977.996 0 1.762-.32 2.298-.958.536-.639.803-1.548.803-2.727 0-1.191-.267-2.109-.803-2.754zm-9.956 7.044c-.351.229-.755.4-1.212.512a6.077 6.077 0 0 1-1.438.167c-.989 0-1.848-.189-2.574-.568v-1.637c.839.614 1.763.921 2.772.921 1.353 0 2.029-.447 2.029-1.34 0-.254-.058-.47-.173-.647a1.735 1.735 0 0 0-.47-.47 3.627 3.627 0 0 0-.696-.367 44.735 44.735 0 0 0-.859-.34 10.87 10.87 0 0 1-1.123-.507 3.392 3.392 0 0 1-.808-.577 2.131 2.131 0 0 1-.489-.731 2.549 2.549 0 0 1-.164-.958c0-.447.103-.842.31-1.187.206-.344.482-.632.826-.865a3.874 3.874 0 0 1 1.18-.526 5.31 5.31 0 0 1 1.367-.176c.833 0 1.579.142 2.236.428v1.544c-.708-.459-1.522-.688-2.443-.688-.288 0-.548.032-.78.097a1.94 1.94 0 0 0-.596.275 1.28 1.28 0 0 0-.386.423c-.09.165-.136.346-.136.545 0 .248.046.456.136.623.091.168.224.317.4.447.175.13.388.248.639.353.25.106.535.221.855.345.426.161.808.327 1.146.498.338.17.626.363.865.577.238.214.421.46.549.739.129.279.193.612.193.996 0 .472-.105.881-.315 1.228-.21.348-.49.636-.841.866zm-11.896.679c-1.422 0-2.557-.445-3.406-1.335-.849-.89-1.273-2.071-1.273-3.541 0-1.6.441-2.851 1.325-3.75.883-.9 2.076-1.349 3.58-1.349 1.434 0 2.554.437 3.359 1.312.805.874 1.207 2.087 1.207 3.638 0 1.52-.433 2.737-1.301 3.652-.868.916-2.031 1.373-3.491 1.373zm2.41-7.723c-.535-.646-1.301-.968-2.297-.968-.99 0-1.773.333-2.349 1-.577.667-.865 1.587-.865 2.759 0 1.129.292 2.019.874 2.671.583.651 1.363.977 2.34.977.996 0 1.762-.32 2.297-.958.536-.639.804-1.548.804-2.727 0-1.191-.268-2.109-.804-2.754zm-9.269-.792c-.658 0-1.208.308-1.649.922-.442.614-.663 1.451-.663 2.512v4.858h-1.541V8.565h1.541v1.963h.038c.219-.67.554-1.192 1.005-1.568a2.307 2.307 0 0 1 1.513-.563c.401 0 .708.044.921.131v1.582c-.269-.205-.658-.308-1.165-.308zm-8.457-.176c-.984 0-1.79.349-2.42 1.047-.629.698-.944 1.614-.944 2.749 0 1.117.296 1.998.888 2.643.592.645 1.386.968 2.382.968.839 0 1.629-.276 2.368-.828v1.451c-.739.441-1.616.661-2.631.661-1.372 0-2.479-.442-3.322-1.326-.842-.884-1.264-2.03-1.264-3.438 0-1.57.454-2.831 1.363-3.783.908-.952 2.12-1.428 3.636-1.428.846 0 1.591.155 2.237.465v1.563c-.715-.496-1.479-.744-2.293-.744zm-8.156-3.48a.982.982 0 0 1-.705-.28.938.938 0 0 1-.291-.707c0-.285.097-.522.291-.712a.974.974 0 0 1 .705-.284c.282 0 .521.095.718.284.198.19.297.427.297.712a.937.937 0 0 1-.297.698.99.99 0 0 1-.718.289zm-5.695 2.996c0-.707.044-1.573.132-2.596h-.038c-.15.601-.285 1.033-.404 1.293l-4.604 10.255h-.771L33.613 7.913c-.131-.297-.266-.753-.404-1.367h-.037c.05.533.075 1.405.075 2.614v8.934h-1.522V4.75h2.086l4.134 9.305c.32.714.527 1.247.62 1.601h.057c.269-.732.485-1.278.648-1.638l4.219-9.268h1.974v13.344h-1.57V9.142zM11 11V2l13.235-2L24 11H11zM0 12h10v10L0 20.65V12zm0-9l10-1v9H0V3zm24 21l-13-2V12h13v12zm26.339-5.906h-1.541V8.565h1.541v9.529z" id="path-1" class="cls-2" fill-rule="evenodd"/></svg>