<svg width="110" height="27" xmlns="http://www.w3.org/2000/svg" xmlns:xlink="http://www.w3.org/1999/xlink"><defs><path id="a" d="M0 .445h109.224V26H0V.445z"/><path id="c" d="M0 .445h109.224V26H0V.445z"/></defs><g fill="none" fill-rule="evenodd"><path d="M43.331 20.866h-6.416c-.65 0-1.294-.09-1.93-.27-1.233-.374-2.208-1.232-2.929-2.575-.65-1.218-.976-2.636-.976-4.256 0-1.565.291-2.949.872-4.153.637-1.329 1.544-2.236 2.72-2.72a7.341 7.341 0 0 1 2.804-.56h5.814v2.782h-6.043c-.982 0-1.695.533-2.138 1.599-.346.83-.52 1.917-.52 3.26 0 1.134.222 2.097.665 2.886.513.927 1.232 1.39 2.16 1.39l5.917-.02v2.637zm10.929.063h-5.066c-1.232 0-2.305-.527-3.218-1.579-.9-1.066-1.35-2.29-1.35-3.675 0-1.509.492-2.81 1.474-3.904.997-1.107 2.104-1.66 3.322-1.66h4.818v2.221h-3.53c-.443 0-.824.042-1.142.124-.305.07-.588.215-.852.437-.484.415-.726 1.036-.726 1.742h6.23v2.243h-6.21c0 .333.035.555.104.79.083.222.243.45.478.686.235.222.512.374.83.457.333.069.734.104 1.205.104h3.633v2.014zm12.085-.063h-2.886v-7.08a.91.91 0 0 0-.125-.478 1.687 1.687 0 0 0-.353-.436 1.433 1.433 0 0 0-.955-.353h-2.824v8.347h-2.887V10.11h5.524c.983 0 1.695.055 2.138.166a2.806 2.806 0 0 1 1.662 1.1 3.7 3.7 0 0 1 .706 2.181v7.31zm8.729-8.513H72.27v4.88c0 .443.152.81.456 1.1.346.29.803.436 1.37.436h.852v2.097H72.27c-.803 0-1.685-.29-2.253-.872a2.442 2.442 0 0 1-.643-1.142 6.575 6.575 0 0 1-.146-1.474v-5.025h-1.827V10.11h1.827V6.331h3.042v3.78h2.803v2.242zm13.509 1.142c0-1.426-.34-2.561-1.018-3.405-.761-.942-1.89-1.412-3.384-1.412-1.468 0-2.575.505-3.323 1.516-.623.844-.934 1.944-.934 3.301 0 1.564.25 2.72.747 3.468.693 1.038 1.973 1.557 3.842 1.557 1.578 0 2.685-.506 3.322-1.516.498-.79.748-1.959.748-3.509zm3.696.083c0 2.824-.783 4.845-2.347 6.063-1.273.983-3.128 1.474-5.565 1.474-2.699 0-4.692-.567-5.98-1.702-1.412-1.246-2.118-3.246-2.118-6.001 0-2.256.63-4.014 1.89-5.274 1.37-1.37 3.42-2.056 6.146-2.056 3.004 0 5.122.657 6.354 1.973 1.08 1.162 1.62 3.004 1.62 5.523z" fill="#262577"/><mask id="b" fill="#fff"><use xlink:href="#a"/></mask><path d="M109.224 16.36c0 1.274-.422 2.347-1.267 3.219-.844.872-1.917 1.308-3.218 1.308l-10.279-.02V18.25h8.472c.568 0 1.045-.132 1.433-.395.443-.304.664-.72.664-1.245 0-1.233-.872-1.849-2.616-1.849h-4.277c-1.232 0-2.312-.38-3.24-1.141-.927-.762-1.39-1.73-1.39-2.907 0-1.301.449-2.354 1.349-3.156.914-.817 2.11-1.226 3.592-1.226h9.822v2.492H99.61c-.388 0-.782.166-1.184.498-.387.318-.581.7-.581 1.142 0 .498.187.92.56 1.267a2.07 2.07 0 0 0 1.392.498h4.713c1.468 0 2.617.381 3.447 1.142.845.748 1.267 1.745 1.267 2.99z" fill="#262577" mask="url(#b)"/><path d="M11.748 13.233L6.076 18.82.403 13.233l5.673-5.586 5.672 5.586z" fill="#932279"/><path d="M11.748 13.233L6.076 18.82.403 13.233l5.673-5.586 5.672 5.586h0z" stroke="#FFF"/><path d="M12.93 12.09L7.34 6.468 12.93.846l5.588 5.622-5.588 5.622z" fill="#EFA724"/><path d="M12.93 12.09L7.34 6.468 12.93.846l5.588 5.622-5.588 5.622h0z" stroke="#FFF"/><path d="M18.53 20.017l-5.672 5.586-5.673-5.586 5.673-5.587 5.672 5.587z" fill="#9CCD2A"/><path d="M18.53 20.017l-5.672 5.586-5.673-5.586 5.673-5.587 5.672 5.587h0z" stroke="#FFF"/><path d="M19.71 18.873l-5.587-5.621 5.588-5.623 5.588 5.623-5.588 5.621z" fill="#262577"/><path d="M19.71 18.873l-5.587-5.621 5.588-5.623 5.588 5.623-5.588 5.621h0z" stroke="#FFF"/><mask id="d" fill="#fff"><use xlink:href="#c"/></mask><path d="M4.15 4.435h7.63v7.595H4.15V4.435z" fill="#FCE94F" mask="url(#d)"/><path d="M14.041 14.34h7.575v7.631H14.04v-7.63z" fill="#EFA724" mask="url(#d)"/><path d="M14.072 4.488h7.6v7.592h-7.6V4.488z" fill="#932279" mask="url(#d)"/><path d="M3.867 4.167h7.913v7.866H3.867V4.167z" fill="#9CCD2A" mask="url(#d)"/><path d="M3.867 4.167h7.913v7.866H3.867V4.167zM14.041 14.34h7.865v7.914H14.04V14.34zm.029-10.127h7.884v7.867H14.07V4.213z" stroke="#FFF" mask="url(#d)"/><path d="M3.868 14.34h7.912v7.913H3.868v-7.912z" fill="#262577" mask="url(#d)"/><path d="M3.868 14.34h7.912v7.913H3.868v-7.912z" stroke="#FFF" mask="url(#d)"/><path d="M11.748 13.233L6.076 18.82.403 13.233l5.673-5.586 5.672 5.586h0zm1.181-1.143L7.341 6.468 12.93.846l5.588 5.622-5.588 5.622h0zm5.601 7.927l-5.672 5.586-5.673-5.586 5.673-5.587 5.672 5.587h0zm1.18-1.144l-5.587-5.621 5.588-5.623 5.588 5.623-5.588 5.621h0z" stroke="#FFF" mask="url(#d)"/></g></svg>