<svg width="89" height="36" xmlns="http://www.w3.org/2000/svg"><path d="M86.959 14.588c0 .172.064.258.236.258h.622c.193 0 .257-.086.257-.258v-1.05c0-1.674-.965-3.025-4.31-3.025-3.368 0-4.312 1.351-4.312 3.024v1.158c0 1.352.987 2.21 1.845 2.531l3.989 1.544c.836.322 1.78.837 1.78 1.995v1.523c0 1.287-.815 2.187-3.346 2.187-2.509 0-3.303-.9-3.303-2.187V21.3c0-.193-.085-.279-.257-.279h-.622c-.171 0-.257.086-.257.28v1.114c0 1.673 1.05 3.024 4.46 3.024s4.44-1.35 4.44-3.024V20.53c0-1.458-1.072-2.273-2.144-2.68l-4.118-1.567c-.58-.214-1.351-.729-1.351-1.823v-.793c0-1.287.707-2.188 3.195-2.188s3.196.901 3.196 2.188v.922zM66.84 9.012c.078 0 .125.061.104.139l-4.752 17.603a.198.198 0 01-.18.138h-.803c-.079 0-.126-.06-.105-.138L65.857 9.15a.198.198 0 01.18-.14h.804zm1.587 13.447c0 1.673 1.03 3.024 4.461 3.024 3.453 0 4.504-1.35 4.504-3.024V13.58c0-1.673-1.05-3.024-4.504-3.024-3.431 0-4.46 1.351-4.46 3.024v8.88zm7.807-.171c0 1.308-.836 2.209-3.346 2.209-2.487 0-3.324-.901-3.324-2.21v-8.535c0-1.309.837-2.21 3.324-2.21 2.51 0 3.346.901 3.346 2.21v8.536zm-16.621-1.63c0-.386-.13-.536-.494-.536h-1.78c-.386 0-.536.15-.536.536v.815c0 1.072-.75 1.608-2.188 1.608-1.437 0-2.166-.536-2.166-1.608v-6.906c0-1.073.73-1.609 2.166-1.609 1.437 0 2.188.536 2.188 1.609v.514c0 .386.15.537.536.537h1.78c.365 0 .494-.15.494-.537v-1.029c0-1.802-1.159-3.496-5.04-3.496-3.883 0-5.04 1.694-5.04 3.496v7.935c0 1.802 1.157 3.496 5.04 3.496 3.881 0 5.04-1.694 5.04-3.496v-1.33zm-17.33 4.59c3.882 0 5.233-1.695 5.233-3.496v-7.593c0-1.801-1.35-3.496-5.233-3.496H37.61c-.386 0-.515.172-.515.558V24.69c0 .364.107.557.45.557h4.74zm0-12.183c1.459 0 2.338.537 2.338 1.609v6.563c0 1.072-.88 1.608-2.338 1.608H39.99v-9.78h2.295zM2.11 19.203l-1.981 1.98a.286.286 0 000 .405l14.018 14.018a.286.286 0 00.405 0L28.57 21.588a.286.286 0 000-.405l-1.98-1.98-11.43 11.431a1.144 1.144 0 01-1.618 0L2.109 19.203zm12.444 2.373a.288.288 0 00-.408 0l-3.92 3.92a.289.289 0 000 .407l3.92 3.92a.288.288 0 00.408 0l3.919-3.92a.289.289 0 000-.407l-3.92-3.92zm5.048-5.048a.288.288 0 00-.408 0l-3.92 3.919a.288.288 0 000 .408l3.92 3.92a.289.289 0 00.408 0l3.92-3.92a.288.288 0 000-.408l-3.92-3.92zm-6.177 3.919l-3.92-3.92a.288.288 0 00-.408 0l-3.919 3.92a.288.288 0 000 .408l3.92 3.92a.289.289 0 00.407 0l3.92-3.92a.288.288 0 000-.408zm.72-12.116a.288.288 0 00.409 0l3.919-3.92a.289.289 0 000-.407l-3.92-3.92a.289.289 0 00-.407 0l-3.92 3.92a.289.289 0 000 .408l3.92 3.919zm1.13 1.851l3.92 3.92a.288.288 0 00.407 0l3.92-3.92a.288.288 0 000-.408l-3.92-3.919a.288.288 0 00-.408 0l-3.92 3.92a.288.288 0 000 .407zm-6.178 3.92a.288.288 0 00.408 0l3.92-3.92a.288.288 0 000-.408l-3.92-3.919a.288.288 0 00-.408 0l-3.919 3.92a.288.288 0 000 .407l3.92 3.92zm19.473 1.297l-3.92-3.92a.289.289 0 00-.407 0l-3.92 3.92a.289.289 0 000 .408l3.92 3.919a.288.288 0 00.408 0l3.919-3.92a.288.288 0 000-.407zm-14.424-3.92l-3.92 3.92a.289.289 0 000 .408l3.92 3.919a.288.288 0 00.408 0l3.919-3.92a.289.289 0 000-.407l-3.92-3.92a.289.289 0 00-.407 0zm-5.77 4.328l-3.92 3.919a.288.288 0 01-.407 0l-3.92-3.92a.288.288 0 010-.407l3.92-3.92a.289.289 0 01.408 0l3.92 3.92a.289.289 0 010 .408z" fill="#462785" fill-rule="evenodd"/></svg>