<svg width="88" height="30" viewBox="0 0 88 30" xmlns="http://www.w3.org/2000/svg" xmlns:xlink="http://www.w3.org/1999/xlink"><title>logo - debian</title><defs><path id="a" d="M0 .442h87.268V30H0"/><path id="c" d="M0 .442h87.268V30H0"/></defs><g fill="none" fill-rule="evenodd"><path d="M14.714 16.06c-.49.005.092.25.732.35a6.95 6.95 0 0 0 .479-.413c-.397.097-.803.099-1.211.062m2.628-.655c.292-.403.505-.843.58-1.299-.066.324-.241.605-.408.901-.915.576-.086-.342 0-.692-.984 1.24-.136.744-.172 1.09m.971-2.525c.06-.882-.173-.603-.252-.267.091.048.164.622.252.267M12.856.823c.262.047.565.083.522.146.287-.064.351-.121-.522-.146" fill="#A80030"/><path d="M13.378.968l-.184.039.171-.016.013-.023z" fill="#A80030"/><path d="M21.53 13.213c.029.792-.232 1.177-.467 1.857l-.424.21c-.346.674.034.428-.214.964-.541.48-1.64 1.504-1.993 1.597-.257-.005.174-.303.23-.419-.724.497-.58.746-1.688 1.048l-.032-.072c-2.73 1.285-6.524-1.261-6.474-4.734-.029.22-.083.165-.143.253-.14-1.786.826-3.58 2.455-4.315 1.594-.788 3.463-.465 4.604.6-.627-.822-1.876-1.693-3.354-1.612-1.45.024-2.805.944-3.257 1.945-.742.466-.83 1.8-1.152 2.045-.436 3.2.818 4.58 2.94 6.207.333.225.094.26.138.43a5.757 5.757 0 0 1-1.88-1.437c.281.411.585.812.978 1.127-.665-.224-1.553-1.61-1.812-1.667 1.146 2.051 4.648 3.598 6.482 2.83-.849.031-1.927.018-2.88-.335-.402-.206-.945-.632-.848-.712 2.503.934 5.088.707 7.253-1.028.552-.43 1.153-1.16 1.327-1.17-.262.394.045.19-.156.538.548-.886-.239-.361.567-1.529l.298.41c-.112-.736.913-1.628.808-2.79.236-.356.262.383.013 1.2.346-.907.092-1.053.18-1.801.095.251.222.518.287.784-.225-.877.23-1.476.343-1.986-.112-.048-.347.388-.402-.647.009-.45.126-.236.17-.347-.087-.05-.319-.396-.46-1.057.102-.155.274.404.412.426-.089-.526-.243-.926-.25-1.33-.406-.849-.143.114-.472-.364-.433-1.349.358-.313.412-.926.655.95 1.028 2.421 1.2 3.03a12.42 12.42 0 0 0-.6-2.16c.199.085-.322-1.528.258-.46-.619-2.276-2.648-4.403-4.514-5.401.228.209.516.47.413.512-.93-.552-.765-.596-.899-.83-.755-.307-.806.026-1.305.001-1.427-.756-1.7-.676-3.013-1.15l.06.28c-.945-.314-1.101.119-2.121 0-.062-.048.327-.175.647-.221-.913.12-.87-.18-1.764.033.22-.154.454-.257.688-.388-.744.045-1.777.433-1.458.08-1.215.542-3.372 1.303-4.583 2.438l-.038-.254c-.554.665-2.418 1.988-2.567 2.85l-.148.035c-.289.489-.476 1.043-.704 1.545-.378.643-.554.248-.5.349-.743 1.505-1.112 2.77-1.43 3.808.227.338.005 2.042.091 3.405-.373 6.734 4.726 13.272 10.3 14.78.816.293 2.03.283 3.063.312-1.219-.349-1.376-.184-2.563-.599-.857-.403-1.045-.864-1.651-1.39l.24.424c-1.19-.421-.693-.521-1.66-.828l.256-.334c-.386-.03-1.022-.65-1.195-.995l-.423.017c-.506-.625-.777-1.076-.757-1.426l-.136.244c-.154-.266-1.865-2.347-.978-1.863-.165-.15-.384-.244-.622-.676l.18-.207c-.425-.55-.785-1.254-.758-1.489.228.308.386.366.543.418-1.079-2.676-1.14-.147-1.956-2.723l.172-.014c-.132-.2-.213-.416-.319-.63l.076-.748c-.777-.897-.217-3.817-.105-5.418.077-.652.648-1.345 1.082-2.432l-.265-.045c.506-.881 2.886-3.54 3.988-3.403.534-.671-.106-.003-.21-.172 1.173-1.213 1.541-.857 2.333-1.076.853-.506-.733.199-.328-.192 1.476-.377 1.046-.857 2.97-1.048.204.115-.47.178-.64.328 1.23-.602 3.891-.465 5.62.333 2.005.938 4.26 3.709 4.348 6.315l.102.028c-.051 1.036.158 2.235-.206 3.336l.246-.522" fill="#A80030"/><path d="M9.368 16.731l-.07.343c.323.438.578.912.989 1.253-.296-.577-.515-.815-.92-1.596m.761-.029c-.17-.19-.27-.416-.384-.641.109.396.33.737.535 1.085l-.15-.444m13.466-2.927l-.072.18a8.708 8.708 0 0 1-.854 2.724 8.58 8.58 0 0 0 .926-2.904" fill="#A80030"/><g transform="translate(.522)"><mask id="b" fill="#fff"><use xlink:href="#a"/></mask><path d="M12.432.588c.33-.12.813-.066 1.166-.146-.459.038-.915.062-1.365.119l.199.027" fill="#A80030" mask="url(#b)"/></g><path d="M1.327 6.77c.076.707-.531.981.134.515.357-.804-.139-.222-.134-.514M.544 10.04c.154-.47.181-.754.24-1.027-.424.543-.195.658-.24 1.027" fill="#A80030"/><path d="M30.549 17.693c0 6.877 3.658 6.877 4.195 6.877 1.512 0 2.487-.83 2.902-2.268l.049 2.17c.463-.025.926-.073 1.682-.073.269 0 .488 0 .683.024.196 0 .39.024.61.049-.39-.78-.683-2.536-.683-6.342 0-3.707 0-9.974.317-11.877-.877.416-1.634.684-3.293.83.659.707.659 1.073.659 4.291a6.162 6.162 0 0 0-2.049-.316c-4.365 0-5.072 3.805-5.072 6.635zm7.072-2.879c-.024.025-.024 3.95-.073 4.976-.048.828-.122 2.609-1.878 2.609-1.804 0-2.243-2.074-2.39-2.975-.17-1-.17-1.83-.17-2.195 0-1.17.073-4.44 2.829-4.44.83 0 1.292.245 1.658.44l.024 1.585zm12.739 1.878c0-2.853-.561-5.659-4.17-5.659-4.975 0-4.975 5.514-4.975 6.683 0 4.95 2.219 6.902 5.95 6.902 1.658 0 2.463-.243 2.902-.366-.024-.878.098-1.44.245-2.195-.513.318-1.172.732-2.635.732-3.804 0-3.853-3.464-3.853-4.659h6.488l.047-1.438zm-6.585-.244c.025-2.025.44-3.83 2.17-3.83 1.903 0 2.049 2.097 2 3.83h-4.17zm7.52 3.952c0 1.804 0 2.828-.293 3.608 1 .39 2.243.61 3.732.61.95 0 3.706 0 5.194-3.048.707-1.415.95-3.318.95-4.757 0-.878-.097-2.804-.804-4.024-.682-1.145-1.78-1.73-2.95-1.73-2.341 0-3.024 1.95-3.39 2.95 0-1.244.024-5.585.22-7.804-1.586.732-2.562.853-3.61.951.951.39.951 2 .951 7.244v6m6.999-2.66c0 2.269-.415 5.318-3.244 5.318-.39 0-.877-.075-1.194-.147-.05-.878-.05-2.39-.05-4.146 0-2.098.22-3.194.391-3.732.512-1.73 1.658-1.754 1.877-1.754 1.854 0 2.22 2.56 2.22 4.462m7.273 6.731a8.713 8.713 0 0 0-1.538-.122c-.779 0-1.316.05-1.876.122.243-.464.34-.684.414-2.268.098-2.171.122-7.976-.049-9.195-.122-.928-.34-1.074-.682-1.317 2-.195 2.56-.341 3.487-.78-.195 1.072-.22 1.61-.22 3.243-.048 8.415-.073 9.317.464 10.317m1.103-3.902c0 1.537.463 3.072 1.83 3.731.609.269 1.218.269 1.414.269 2.244 0 3-1.66 3.463-2.683-.024 1.073 0 1.73.073 2.585.44-.025.878-.073 1.61-.073.415 0 .805.048 1.22.073-.27-.414-.415-.66-.49-1.61-.047-.927-.047-1.853-.047-3.146l.024-4.975c0-1.854-.488-3.683-4.147-3.683-2.413 0-3.827.732-4.535 1.097.293.537.537 1 .756 2.05.952-.83 2.196-1.269 3.463-1.269 2.025 0 2.025 1.342 2.025 3.243-.463-.024-.854-.072-1.513-.072-3.098 0-5.147 1.194-5.147 4.463zm6.707-3c-.049 1.536-.073 2.61-.489 3.462-.512 1.098-1.365 1.415-2 1.415-1.464 0-1.78-1.219-1.78-2.414 0-2.292 2.05-2.464 2.975-2.464h1.294z" fill="#000"/><g transform="translate(.522)"><mask id="d" fill="#fff"><use xlink:href="#c"/></mask><path d="M86.902 22.058c.025.83.025 1.707.366 2.414-.537-.048-.854-.122-1.853-.122-.586 0-.903.05-1.366.122.097-.317.147-.439.195-.854.073-.56.122-2.438.122-3.097v-2.634c0-1.146 0-2.805-.074-3.39-.049-.414-.17-1.536-1.585-1.536-1.39 0-1.854 1.024-2.025 1.853-.194.854-.194 1.78-.194 5.39.024 3.122.024 3.414.268 4.268a13.49 13.49 0 0 0-1.658-.097 9 9 0 0 0-1.463.097c.17-.39.268-.586.317-1.951.05-1.342.147-7.927-.074-9.487-.121-.952-.366-1.171-.634-1.415 1.976-.098 2.61-.415 3.22-.73v2.583c.292-.757.902-2.44 3.341-2.44 3.049 0 3.073 2.22 3.097 3.683v7.343" fill="#000" mask="url(#d)"/></g><path d="M65.773 7.46l-2.02 2.02-2.019-2.02 2.02-2.019 2.02 2.02z" fill="#A80030"/></g></svg>