<svg width="133" height="21" viewBox="0 0 133 21" xmlns="http://www.w3.org/2000/svg" xmlns:xlink="http://www.w3.org/1999/xlink"><title>logo - digital ocean</title><defs><path id="a" d="M0 .095h132.234V21H0"/><path id="c" d="M0 .095h132.234V21H0"/><path id="e" d="M0 .095h132.234V21H0V.095z"/></defs><g fill="none" fill-rule="evenodd"><mask id="b" fill="#fff"><use xlink:href="#a"/></mask><path d="M2.277 20.122c5.238-1.718 13.043-1.225 18.367.878-3.844-2.105-11.56-5.25-18.367-.878" fill="#098CCC" mask="url(#b)"/><path d="M8.256 10.215a5.507 5.507 0 0 1-.03-.11c.023.077.038.12.038.12s-.368-3.217 1.923-4.823c2.292-1.606 5.68-.627 5.68-.627s-3.566-2.104-6.24-.195a4.13 4.13 0 0 0-.187.143 6.18 6.18 0 0 1 4.757-2.217c1.949 0 3.685.893 4.815 2.286h2.559A8.05 8.05 0 0 0 14.227.096c-4.443 0-8.044 3.556-8.044 7.943 0 .491.046.971.132 1.438.725.07 1.391.334 1.94.738m23.669 9.145c-5.528 1.372-10.08-1.678-17.234-3.92-4.707-1.475-8.622.57-10.75 2.14-1.106.816-1.73 1.505-1.73 1.505 0 .03.644-.36 1.73-.819 2.256-.95 6.425-2.196 10.732-.59 6.382 2.378 11.4 3.428 16.846 2.492 4.344-.747 5.843-3.609 6.272-4.738-.38.9-1.672 2.888-5.866 3.93m5.866-3.93c.121-.286.15-.463.15-.463s-.04.177-.15.463" fill="#098CCC"/><mask id="d" fill="#fff"><use xlink:href="#c"/></mask><path d="M3.94 16.887c.396-.267.8-.52 1.17-.711a3.067 3.067 0 0 1-.503-.396 3.556 3.556 0 0 1-.667-.912c-.717-1.389-.47-2.965-.47-2.965s-1.214 2.784.47 4.442l.044.043c.07.067.145.13.222.188a3.71 3.71 0 0 1-2.14-3.357A3.71 3.71 0 0 1 3.94 10a3.783 3.783 0 0 1 1.73-.499 8.522 8.522 0 0 1-.082-2.34 5.903 5.903 0 0 0-1.648.31C1.647 8.257 0 10.408 0 12.939c0 2.039 1.069 3.831 2.683 4.86.364-.28.805-.605 1.257-.91" fill="#098CCC" mask="url(#d)"/><path d="M21.932 16.492s3.414 1.748 6.625 1.463c3.211-.284 4.187-1.422 4.187-1.422s-1.179 2.174-4.268 2.296c-3.09.122-6.544-2.255-6.544-2.337" fill="#5FB0E2"/><mask id="f" fill="#fff"><use xlink:href="#e"/></mask><path d="M19.314 5.449h2.87v2.87h-2.87v-2.87z" fill="#5FB0E2" mask="url(#f)"/><path d="M30.712 13.4h2.22v2.22h-2.22V13.4z" fill="#0088CF" mask="url(#f)"/><path d="M22.773 2.819H26.6v3.827h-3.827V2.819z" fill="#5FB0E2" mask="url(#f)"/><path d="M33.884 9.441h3.827v3.827h-3.827V9.441z" fill="#0088CF" mask="url(#f)"/><path d="M26.967 6.94H29.1v2.133h-2.133V6.94zm1.427 4.202h2.133v2.133h-2.133v-2.133z" fill="#5FB0E2" mask="url(#f)"/><path d="M23.902 11.355h2.134v2.133h-2.134v-2.133zm7.48-4.342h2.134v2.134h-2.134V7.013z" fill="#0088CF" mask="url(#f)"/><path d="M52.747 11.285c0-.67-.09-1.27-.27-1.802a3.817 3.817 0 0 0-.768-1.35 3.316 3.316 0 0 0-1.21-.85 4.168 4.168 0 0 0-1.609-.294h-2.372v8.592h2.372c.597 0 1.132-.098 1.608-.295a3.31 3.31 0 0 0 1.211-.848 3.83 3.83 0 0 0 .768-1.351c.18-.532.27-1.133.27-1.802m2.322 0c0 .895-.15 1.716-.448 2.464a5.665 5.665 0 0 1-1.257 1.934 5.62 5.62 0 0 1-1.95 1.257c-.76.299-1.601.448-2.524.448h-4.66V5.182h4.66c.923 0 1.764.15 2.524.452.76.3 1.41.72 1.95 1.257.54.538.96 1.18 1.257 1.93.299.748.448 1.57.448 2.464m3.038 6.103h-2.085v-8.66h2.085v8.66zm.313-11.185c0 .18-.037.35-.11.507a1.392 1.392 0 0 1-.717.696 1.305 1.305 0 0 1-1.034 0 1.352 1.352 0 0 1-.701-.696 1.309 1.309 0 0 1 0-1.03 1.337 1.337 0 0 1 .7-.705 1.318 1.318 0 0 1 1.035 0 1.36 1.36 0 0 1 .718.705c.072.164.109.338.109.523zm4.195 6.643c.258 0 .484-.035.675-.105.191-.07.35-.167.477-.291.127-.124.222-.273.287-.448.065-.174.097-.366.097-.574 0-.427-.128-.766-.384-1.017-.256-.25-.64-.376-1.152-.376-.512 0-.896.126-1.152.376-.257.25-.385.59-.385 1.017 0 .203.033.392.097.566a1.229 1.229 0 0 0 .768.747c.195.07.418.105.672.105m2.287 4.905a.596.596 0 0 0-.152-.422.996.996 0 0 0-.413-.254 2.995 2.995 0 0 0-.612-.134 6.132 6.132 0 0 0-.743-.043h-.81a3.44 3.44 0 0 1-.806-.093c-.237.13-.427.283-.57.46a.945.945 0 0 0-.216.612.84.84 0 0 0 .114.426.948.948 0 0 0 .363.342c.166.096.382.17.646.224.265.053.588.08.97.08.389 0 .724-.03 1.005-.09.282-.06.514-.144.697-.25.183-.107.316-.233.4-.38a.941.941 0 0 0 .127-.478m-2.287-9.176a4.6 4.6 0 0 1 1.046.114c.327.076.625.187.895.334h2.49v.776a.43.43 0 0 1-.101.304c-.067.073-.183.124-.346.152l-.777.144a2.696 2.696 0 0 1 .178.979c0 .427-.086.814-.258 1.16a2.6 2.6 0 0 1-.709.882c-.301.242-.658.43-1.072.562a4.407 4.407 0 0 1-1.346.198c-.327 0-.645-.03-.954-.093-.27.165-.405.349-.405.553 0 .176.08.305.24.387.16.082.372.14.633.174.262.034.559.051.89.051.333 0 .673.014 1.022.042.349.029.69.078 1.022.149.332.07.628.182.89.334.262.153.473.36.633.623.16.262.24.6.24 1.011 0 .384-.093.757-.282 1.118a3.004 3.004 0 0 1-.819.966c-.357.282-.795.51-1.312.681-.518.173-1.109.259-1.773.259-.658 0-1.23-.064-1.713-.19-.485-.127-.886-.296-1.203-.506a2.197 2.197 0 0 1-.713-.73 1.711 1.711 0 0 1-.237-.862c0-.405.124-.745.372-1.021.247-.276.59-.495 1.03-.658a1.433 1.433 0 0 1-.516-.473c-.13-.197-.194-.453-.194-.768 0-.13.023-.263.068-.401.045-.138.114-.274.207-.41a2.01 2.01 0 0 1 .35-.384c.14-.12.307-.229.498-.325a2.73 2.73 0 0 1-1.034-.945c-.25-.394-.376-.855-.376-1.384 0-.428.086-.815.258-1.161a2.6 2.6 0 0 1 .717-.886c.307-.245.67-.432 1.09-.562a4.629 4.629 0 0 1 1.37-.194m7.116 8.813h-2.085v-8.66h2.085v8.66zm.313-11.185c0 .18-.037.35-.11.507a1.386 1.386 0 0 1-.718.696 1.306 1.306 0 0 1-1.034 0 1.35 1.35 0 0 1-.7-.696 1.305 1.305 0 0 1 0-1.03 1.333 1.333 0 0 1 .7-.705c.16-.07.33-.105.511-.105.186 0 .36.035.523.105a1.355 1.355 0 0 1 .717.705c.074.164.11.338.11.523zm4.043 11.32c-.749 0-1.326-.213-1.73-.638-.406-.424-.609-1.011-.609-1.76V10.29h-.877a.42.42 0 0 1-.292-.11c-.081-.073-.122-.183-.122-.329v-.827l1.393-.228.439-2.364a.418.418 0 0 1 .156-.261.496.496 0 0 1 .308-.093h1.08v2.726h2.28v1.486h-2.28v4.693c0 .27.068.481.203.633a.686.686 0 0 0 .54.228c.13 0 .238-.016.325-.047.087-.03.163-.063.228-.097a2.34 2.34 0 0 0 .173-.097.291.291 0 0 1 .152-.046.24.24 0 0 1 .152.046.72.72 0 0 1 .126.14l.625 1.012a3.154 3.154 0 0 1-1.047.574c-.394.13-.801.195-1.223.195m5.579-1.436c.214 0 .41-.02.59-.059a2.2 2.2 0 0 0 .511-.174 2.72 2.72 0 0 0 .465-.287c.149-.113.3-.248.451-.403v-1.45c-.607 0-1.115.039-1.523.115-.408.077-.736.175-.984.294-.247.119-.423.258-.527.416a.927.927 0 0 0-.156.52c0 .368.108.631.325.79.216.158.499.238.848.238zm4.052 1.3h-.937c-.197 0-.352-.03-.465-.089-.112-.059-.197-.179-.253-.359l-.185-.616a7.4 7.4 0 0 1-.646.52 4.06 4.06 0 0 1-.655.375 3.342 3.342 0 0 1-.717.228 4.32 4.32 0 0 1-.844.076c-.366 0-.703-.05-1.013-.148a2.185 2.185 0 0 1-.798-.445 2.02 2.02 0 0 1-.519-.737 2.626 2.626 0 0 1-.185-1.025c0-.327.085-.65.257-.97.172-.318.457-.606.857-.863.4-.257.931-.47 1.595-.64.664-.169 1.488-.254 2.473-.254v-.51c0-.584-.122-1.016-.367-1.297-.245-.28-.6-.421-1.068-.421-.337 0-.619.04-.844.118a3.29 3.29 0 0 0-.586.266c-.167.098-.32.187-.46.266a.933.933 0 0 1-.465.118.603.603 0 0 1-.362-.11.863.863 0 0 1-.245-.27l-.38-.667c.996-.911 2.197-1.367 3.604-1.367.506 0 .958.083 1.355.249.396.166.733.397 1.009.692.275.296.485.649.628 1.06.144.41.216.86.216 1.35v5.47zm3.427 0h-2.085V4.844h2.085v12.544zm11.006-6.103c0-.67-.088-1.27-.265-1.802a3.81 3.81 0 0 0-.764-1.355 3.288 3.288 0 0 0-1.212-.853 4.167 4.167 0 0 0-1.608-.295c-.596 0-1.134.099-1.612.295a3.32 3.32 0 0 0-1.22.853 3.826 3.826 0 0 0-.772 1.355c-.18.532-.27 1.132-.27 1.802 0 .67.09 1.27.27 1.802.18.532.438.982.773 1.35a3.34 3.34 0 0 0 1.22.849 4.199 4.199 0 0 0 1.611.295c.597 0 1.133-.098 1.608-.295a3.31 3.31 0 0 0 1.212-.848c.332-.369.586-.82.764-1.351.177-.532.265-1.133.265-1.802m2.33 0a6.77 6.77 0 0 1-.447 2.486 5.887 5.887 0 0 1-1.258 1.979c-.54.557-1.19.992-1.95 1.304-.76.313-1.6.469-2.524.469-.922 0-1.765-.156-2.528-.469a5.724 5.724 0 0 1-1.958-1.304 5.853 5.853 0 0 1-1.262-1.98 6.761 6.761 0 0 1-.447-2.485c0-.895.149-1.723.447-2.486a5.857 5.857 0 0 1 1.262-1.98 5.73 5.73 0 0 1 1.958-1.304c.763-.312 1.606-.468 2.528-.468.923 0 1.764.158 2.524.473.76.315 1.41.75 1.95 1.304s.96 1.213 1.258 1.975c.298.763.447 1.591.447 2.486m6.913-.726c-.062.079-.122.14-.181.186a.42.42 0 0 1-.258.067.574.574 0 0 1-.312-.097 10.288 10.288 0 0 0-.363-.22 2.724 2.724 0 0 0-.502-.219 2.312 2.312 0 0 0-.722-.097 2.2 2.2 0 0 0-.962.198 1.822 1.822 0 0 0-.688.57c-.183.248-.32.547-.41.9-.09.35-.135.75-.135 1.194 0 .461.05.872.148 1.232.099.36.24.663.427.907.185.245.41.43.675.558.264.126.562.19.894.19.332 0 .601-.041.807-.123a2.53 2.53 0 0 0 .519-.27c.14-.099.263-.189.367-.27a.553.553 0 0 1 .35-.123c.169 0 .296.065.38.194l.6.76c-.232.27-.482.497-.752.68a4.01 4.01 0 0 1-.84.438c-.29.11-.59.188-.899.233a6.41 6.41 0 0 1-.92.067 3.84 3.84 0 0 1-1.51-.3 3.52 3.52 0 0 1-1.237-.873 4.202 4.202 0 0 1-.836-1.405c-.205-.555-.308-1.186-.308-1.895 0-.636.091-1.226.274-1.769a4.004 4.004 0 0 1 .806-1.41 3.697 3.697 0 0 1 1.317-.932c.523-.225 1.126-.338 1.807-.338.646 0 1.214.104 1.7.313a4.15 4.15 0 0 1 1.313.894l-.549.76z" fill="#098CCC" mask="url(#f)"/><path d="M112.137 10.086c-.608 0-1.083.172-1.427.515-.343.344-.562.83-.658 1.46h3.917c0-.27-.037-.524-.11-.763a1.77 1.77 0 0 0-.338-.63 1.597 1.597 0 0 0-.574-.426 1.957 1.957 0 0 0-.81-.156m-.042-1.494c.545 0 1.048.088 1.506.262.459.174.854.43 1.186.764.332.335.591.746.777 1.232.186.487.278 1.043.278 1.667 0 .158-.007.289-.02.393a.637.637 0 0 1-.077.245.308.308 0 0 1-.147.126.63.63 0 0 1-.237.038h-5.351c.062.89.3 1.542.717 1.958.417.417.968.625 1.655.625.337 0 .629-.04.873-.118.245-.079.459-.166.642-.262.183-.095.343-.183.481-.262a.81.81 0 0 1 .4-.118.448.448 0 0 1 .38.194l.608.76c-.23.27-.489.497-.776.68a4.34 4.34 0 0 1-.899.438c-.312.11-.63.188-.954.233a6.847 6.847 0 0 1-.94.067 4.63 4.63 0 0 1-1.68-.3 3.755 3.755 0 0 1-1.351-.886 4.154 4.154 0 0 1-.903-1.452c-.22-.576-.33-1.245-.33-2.004 0-.591.096-1.147.287-1.667a4.04 4.04 0 0 1 .823-1.36c.358-.385.794-.69 1.309-.915.515-.225 1.095-.338 1.743-.338m7.335 7.496c.213 0 .41-.02.59-.059.18-.038.35-.096.511-.174a2.72 2.72 0 0 0 .464-.287c.15-.113.3-.248.452-.403v-1.45c-.608 0-1.116.039-1.524.115-.408.077-.736.175-.983.294-.248.119-.423.258-.528.416a.927.927 0 0 0-.156.52c0 .368.109.631.325.79.217.158.5.238.849.238zm4.051 1.3h-.937c-.197 0-.352-.03-.464-.089-.113-.059-.197-.179-.253-.359l-.186-.616a7.4 7.4 0 0 1-.646.52c-.21.148-.429.273-.654.375a3.342 3.342 0 0 1-.717.228 4.32 4.32 0 0 1-.844.076c-.366 0-.704-.05-1.013-.148a2.184 2.184 0 0 1-.798-.445 2.018 2.018 0 0 1-.519-.737 2.622 2.622 0 0 1-.186-1.025c0-.327.086-.65.258-.97.171-.318.457-.606.857-.863.399-.257.93-.47 1.595-.64.664-.169 1.488-.254 2.473-.254v-.51c0-.584-.123-1.016-.367-1.297-.245-.28-.6-.421-1.068-.421-.338 0-.62.04-.844.118a3.29 3.29 0 0 0-.587.266c-.166.098-.32.187-.46.266a.933.933 0 0 1-.464.118.603.603 0 0 1-.363-.11.863.863 0 0 1-.245-.27l-.38-.667c.997-.911 2.198-1.367 3.604-1.367.507 0 .959.083 1.355.249a2.9 2.9 0 0 1 1.01.692c.275.296.484.649.628 1.06.144.41.215.86.215 1.35v5.47zm1.207 0v-8.66h1.275c.27 0 .447.126.532.379l.143.684a4.8 4.8 0 0 1 .553-.49c.194-.146.4-.273.616-.38.217-.106.449-.188.697-.244.247-.057.517-.085.81-.085.473 0 .892.08 1.257.24.366.161.672.386.916.676.245.29.43.636.557 1.038.127.403.19.846.19 1.33v5.512h-2.085v-5.512c0-.53-.122-.939-.367-1.228-.245-.29-.612-.435-1.101-.435-.36 0-.698.081-1.013.245a3.642 3.642 0 0 0-.895.667v6.263h-2.085z" fill="#098CCC" mask="url(#f)"/></g></svg>