<svg width="120" height="28" viewBox="0 0 120 28" xmlns="http://www.w3.org/2000/svg" xmlns:xlink="http://www.w3.org/1999/xlink"><title>logo - docker</title><defs><path id="a" d="M0 .04h119.117V28H0V.04z"/><path id="c" d="M0 .04h119.117V28H0V.04z"/></defs><g fill="none" fill-rule="evenodd"><mask id="b" fill="#fff"><use xlink:href="#a"/></mask><path d="M28.713 8.87h4.452v4.512h2.251c1.04 0 2.108-.183 3.093-.515a7.953 7.953 0 0 0 1.504-.673c-.629-.813-.95-1.84-1.044-2.853-.128-1.378.151-3.171 1.092-4.25l.468-.536.557.445c1.405 1.119 2.585 2.681 2.793 4.463 1.69-.493 3.675-.376 5.166.476l.61.35-.321.623c-1.26 2.439-3.895 3.195-6.47 3.06C39.008 23.493 30.618 28 20.443 28c-5.256 0-10.079-1.949-12.824-6.573l-.045-.076-.4-.807c-.928-2.036-1.237-4.266-1.028-6.494l.063-.668h3.807V8.87h4.451V4.455h8.903V.04h5.342v8.83z" fill="#394D54" mask="url(#b)"/><path d="M43.136 10.54c.299-2.302-1.437-4.109-2.514-4.967-1.241 1.423-1.434 5.15.512 6.72-1.086.957-3.374 1.825-5.718 1.825H6.886c-.228 2.426.202 4.66 1.183 6.573l.324.589c.206.346.43.68.673 1 1.173.075 2.254.1 3.243.08 1.945-.043 3.531-.27 4.734-.684a.343.343 0 0 1 .436.21.339.339 0 0 1-.211.432c-.16.055-.327.106-.5.156-.946.268-1.962.448-3.272.528.078.001-.08.012-.08.012-.045.003-.101.009-.146.011-.516.03-1.072.035-1.641.035-.622 0-1.235-.012-1.92-.046l-.018.011c2.378 2.65 6.094 4.239 10.754 4.239 9.86 0 18.223-4.335 21.927-14.067 2.627.268 5.153-.396 6.302-2.62-1.83-1.047-4.183-.713-5.538-.038" fill="#00AADA"/><path d="M43.136 10.54c.299-2.302-1.437-4.109-2.514-4.967-1.241 1.423-1.434 5.15.512 6.72-1.086.957-3.374 1.825-5.718 1.825H8.576c-.117 3.715 1.273 6.536 3.733 8.242 1.945-.043 3.531-.27 4.734-.684a.343.343 0 0 1 .436.21.339.339 0 0 1-.211.432c-.16.055-.327.106-.5.156-.946.268-2.049.471-3.359.551l-.031-.03c3.355 1.707 8.22 1.7 13.8-.424 6.255-2.383 12.075-6.924 16.136-12.117-.06.029-.12.056-.178.085" fill="#24B8EC"/><path d="M6.94 17.066c.177 1.3.56 2.517 1.129 3.625l.324.588c.206.347.43.68.673 1.002 1.173.074 2.254.1 3.244.079 1.944-.043 3.53-.27 4.733-.684a.343.343 0 0 1 .436.21.339.339 0 0 1-.211.432c-.16.055-.327.106-.5.156-.947.268-2.043.46-3.353.54-.045.003-.123.003-.169.005-.515.03-1.066.047-1.634.047-.622 0-1.259-.012-1.944-.047 2.378 2.65 6.117 4.245 10.777 4.245 8.441 0 15.785-3.178 20.048-10.198H6.94z" fill="#008BB8"/><path d="M8.832 17.066c.505 2.282 1.718 4.073 3.478 5.294 1.944-.043 3.53-.27 4.733-.684a.343.343 0 0 1 .436.21.339.339 0 0 1-.211.432c-.16.055-.327.106-.5.156-.947.268-2.066.46-3.376.54 3.355 1.707 8.207 1.682 13.786-.443 3.374-1.286 6.622-3.2 9.536-5.505H8.832z" fill="#039BC6"/><mask id="d" fill="#fff"><use xlink:href="#c"/></mask><path d="M10.758 9.605h3.858v3.826h-3.858V9.605zm.322.319h.304v3.189h-.304v-3.19zm.572 0h.317v3.189h-.317v-3.19zm.585 0h.316v3.189h-.316v-3.19zm.584 0h.317v3.189h-.317v-3.19zm.585 0h.316v3.189h-.316v-3.19zm.584 0h.305v3.189h-.305v-3.19zm1.22-4.734h3.858v3.827H15.21V5.19zm.321.319h.305v3.189h-.305V5.509zm.573 0h.317v3.189h-.317V5.509zm.584 0h.317v3.189h-.317V5.509zm.585 0h.316v3.189h-.316V5.509zm.585 0h.316v3.189h-.316V5.509zm.584 0h.305v3.189h-.305V5.509z" fill="#00ACD3" mask="url(#d)"/><path d="M15.21 9.605h3.858v3.826H15.21V9.605zm.321.319h.305v3.189h-.305v-3.19zm.573 0h.317v3.189h-.317v-3.19zm.584 0h.317v3.189h-.317v-3.19zm.585 0h.316v3.189h-.316v-3.19zm.585 0h.316v3.189h-.316v-3.19zm.584 0h.305v3.189h-.305v-3.19z" fill="#1FC2EF" mask="url(#d)"/><path d="M19.662 9.605h3.858v3.826h-3.858V9.605zm.32.319h.305v3.189h-.304v-3.19zm.573 0h.317v3.189h-.317v-3.19zm.586 0h.316v3.189h-.316v-3.19zm.584 0h.317v3.189h-.317v-3.19zm.584 0h.317v3.189h-.317v-3.19zm.585 0h.304v3.189h-.304v-3.19z" fill="#00ACD3" mask="url(#d)"/><path d="M19.662 5.19h3.858v3.827h-3.858V5.19zm.32.319h.305v3.189h-.304V5.509zm.573 0h.317v3.189h-.317V5.509zm.586 0h.316v3.189h-.316V5.509zm.584 0h.317v3.189h-.317V5.509zm.584 0h.317v3.189h-.317V5.509zm.585 0h.304v3.189h-.304V5.509zm1.219 4.096h3.859v3.826h-3.859V9.605zm.322.319h.304v3.189h-.304v-3.19zm.572 0h.317v3.189h-.317v-3.19zm.585 0h.317v3.189h-.317v-3.19zm.585 0h.316v3.189h-.316v-3.19zm.584 0h.317v3.189h-.317v-3.19zm.585 0h.305v3.189h-.305v-3.19z" fill="#1FC2EF" mask="url(#d)"/><path d="M24.113 5.19h3.859v3.827h-3.859V5.19zm.322.319h.304v3.189h-.304V5.509zm.572 0h.317v3.189h-.317V5.509zm.585 0h.317v3.189h-.317V5.509zm.585 0h.316v3.189h-.316V5.509zm.584 0h.317v3.189h-.317V5.509zm.585 0h.305v3.189h-.305V5.509z" fill="#00ACD3" mask="url(#d)"/><path d="M24.113.775h3.859v3.827h-3.859V.775zm.322.319h.304v3.189h-.304v-3.19zm.572 0h.317v3.189h-.317v-3.19zm.585 0h.317v3.189h-.317v-3.19zm.585 0h.316v3.189h-.316v-3.19zm.584 0h.317v3.189h-.317v-3.19zm.585 0h.305v3.189h-.305v-3.19z" fill="#1FC2EF" mask="url(#d)"/><path d="M28.565 9.605h3.858v3.826h-3.858V9.605zm.322.319h.304v3.189h-.304v-3.19zm.572 0h.316v3.189h-.316v-3.19zm.584 0h.317v3.189h-.317v-3.19zm.585 0h.316v3.189h-.316v-3.19zm.585 0h.316v3.189h-.316v-3.19zm.584 0h.305v3.189h-.305v-3.19z" fill="#00ACD3" mask="url(#d)"/><path d="M18.827 19.635a1.06 1.06 0 0 1 1.065 1.055 1.06 1.06 0 0 1-1.065 1.056 1.06 1.06 0 0 1-1.064-1.056 1.06 1.06 0 0 1 1.064-1.055" fill="#D4EDF1" mask="url(#d)"/><path d="M18.827 19.934a.77.77 0 0 1 .275.051.309.309 0 0 0 .156.576.31.31 0 0 0 .273-.16.76.76 0 0 1-.704 1.046.76.76 0 0 1-.763-.757.76.76 0 0 1 .763-.756M0 17.447h49.514c-1.079-.271-3.412-.637-3.027-2.039-1.96 2.25-6.688 1.579-7.881.47-1.328 1.91-9.064 1.184-9.603-.305-1.665 1.939-6.827 1.939-8.493 0-.54 1.49-8.274 2.216-9.602.305-1.194 1.109-5.921 1.78-7.881-.47.384 1.402-1.949 1.768-3.027 2.04" fill="#394D54" mask="url(#d)"/><path d="M21.656 27.241c-2.636-1.24-4.083-2.926-4.888-4.767-.979.277-2.156.454-3.523.53-.516.03-1.057.043-1.626.043-.656 0-1.347-.02-2.072-.057 2.418 2.396 5.391 4.24 10.898 4.274.406 0 .81-.008 1.211-.023" fill="#BFDBE0" mask="url(#d)"/><path d="M17.747 24.172a9.133 9.133 0 0 1-.978-1.698c-.98.277-2.157.454-3.524.53.939.506 2.283.974 4.502 1.168" fill="#D4EDF1" mask="url(#d)"/><path d="M61.628 12.382V8.084c0-.564.355-1.019.945-1.019h.163c.59 0 .944.455.944 1.02v9.047c0 2.206-1.1 3.962-3.014 5.08a5.708 5.708 0 0 1-2.9.784h-.407c-2.225 0-3.993-1.09-5.122-2.989a5.56 5.56 0 0 1-.79-2.875v-.404c0-2.206 1.099-3.96 3.013-5.081a5.678 5.678 0 0 1 2.9-.785h.406c1.506 0 2.784.58 3.862 1.52zm-8.13 4.548c0 1.594.78 2.792 2.188 3.557a3.824 3.824 0 0 0 1.837.474c1.577 0 2.747-.738 3.554-2.064.375-.616.55-1.291.55-2.008 0-1.382-.66-2.46-1.782-3.26a3.844 3.844 0 0 0-2.282-.73c-1.72 0-2.957.861-3.7 2.392a3.71 3.71 0 0 0-.365 1.64zM70.8 10.862h.285c2.378 0 4.186 1.144 5.332 3.203.458.823.703 1.722.703 2.663v.404c0 2.206-1.096 3.965-3.014 5.08a5.718 5.718 0 0 1-2.9.784H70.8c-2.225 0-3.993-1.09-5.122-2.989a5.565 5.565 0 0 1-.791-2.875v-.404c0-2.206 1.104-3.955 3.012-5.08a5.655 5.655 0 0 1 2.901-.786zm-3.861 6.068c0 1.547.766 2.685 2.084 3.485a3.82 3.82 0 0 0 2.023.546c1.54 0 2.68-.775 3.473-2.065a3.76 3.76 0 0 0 .549-2.007c0-1.44-.698-2.537-1.893-3.334a3.838 3.838 0 0 0-2.171-.656c-1.72 0-2.957.861-3.7 2.392a3.695 3.695 0 0 0-.365 1.64zm18.713-3.868c-.31-.144-.89-.192-1.224-.204-1.715-.065-2.956.893-3.684 2.393a3.7 3.7 0 0 0-.365 1.638c0 1.743.922 2.964 2.492 3.708.573.27 1.313.323 1.939.323.551 0 1.33-.335 1.819-.565l.084-.04h.38l.041.008c.468.097.82.39.82.888v.202c0 1.238-2.284 1.523-3.155 1.582-3.075.212-5.375-1.463-6.252-4.371a5.225 5.225 0 0 1-.22-1.534v-.403c0-2.207 1.103-3.955 3.012-5.08a5.655 5.655 0 0 1 2.9-.785h.408c1.093 0 2.101.308 3.004.92l.075.051.046.076c.098.161.182.347.182.537v.202c0 .52-.392.798-.866.889l-.038.006h-.122c-.306 0-1.002-.313-1.276-.441zm6.657 1.378c.797-.792 1.598-1.582 2.407-2.36.225-.217 1.078-1.137 1.414-1.137h.368l.042.009c.468.096.82.39.82.889v.202c0 .34-.403.736-.625.969-.471.495-.968.974-1.45 1.46l-2.48 2.496a620.893 620.893 0 0 1 3.194 3.193c.292.295.585.592.874.891.101.106.253.24.338.386a.834.834 0 0 1 .148.461v.21l-.012.048c-.115.465-.413.84-.932.84h-.163c-.34 0-.723-.382-.955-.6-.48-.447-.942-.919-1.413-1.376l-1.575-1.534v2.452c0 .563-.356 1.017-.945 1.017H91.2c-.59 0-.945-.454-.945-1.017V8.124c0-.565.356-1.017.945-1.017h.162c.589 0 .945.452.945 1.017v6.316zm25.579-3.497h.203c.616 0 1.027.412 1.027 1.019 0 .843-.812 1.058-1.515 1.058-.922 0-1.801.553-2.437 1.173-.793.776-1.14 1.767-1.14 2.858v4.927c0 .565-.355 1.018-.944 1.018h-.162c-.59 0-.946-.453-.946-1.018v-5.21c0-2 .982-3.633 2.62-4.78a5.676 5.676 0 0 1 3.294-1.045zM103.3 20.708c.747.258 1.598.222 2.365.09.391-.166 1.394-.6 1.762-.536l.059.01.052.025c.225.109.44.262.555.489.27.532.14 1.067-.388 1.37l-.175.1c-1.947 1.115-4.018.96-5.958-.08-.928-.498-1.638-1.236-2.161-2.137l-.123-.21c-1.25-2.146-1.08-4.404.329-6.445.486-.705 1.122-1.25 1.865-1.677l.282-.16c1.833-1.05 3.798-.979 5.681-.058 1.012.496 1.832 1.235 2.397 2.205l.102.175c.41.706-.121 1.32-.67 1.741-.638.487-1.28 1.074-1.892 1.596-1.361 1.166-2.72 2.335-4.082 3.502zm-1.762-1.228c1.523-1.295 3.046-2.591 4.565-3.892.519-.443 1.088-.904 1.604-1.371-.414-.516-1.104-.889-1.69-1.11-1.184-.447-2.351-.297-3.437.324-1.42.813-2.027 2.11-1.974 3.722.022.635.194 1.247.534 1.787.12.19.253.37.398.54z" fill="#394D54" mask="url(#d)"/></g></svg>