<svg width="116" height="42" xmlns="http://www.w3.org/2000/svg" xmlns:xlink="http://www.w3.org/1999/xlink"><defs><path id="a" d="M0 .072h115.037V42H0"/></defs><g fill="none" fill-rule="evenodd"><path d="M77.147 22.285c0 .297-.24.536-.537.536h-7.232a.536.536 0 1 1 0-1.073h7.232c.297 0 .537.24.537.537m-1.428 2.991a.531.531 0 1 1-1.063.002.531.531 0 0 1 1.063-.002" fill="#000"/><path d="M70.226 21.747a.532.532 0 0 1-.525-.614h-.797v1.007h1.328v-.394h-.006m-.532 1.575c0-.294.238-.532.532-.532h.006v-.374h-1.328v1.008h.8a.53.53 0 0 1-.01-.102m6.146-2.326a.532.532 0 0 1-.484.751l-.04-.002v.534h1.19v-1.283h-.666z" fill="#000"/><path d="M72.772 17.927a4.367 4.367 0 1 0 2.806 7.714l-.766-.754a3.299 3.299 0 1 1 1.258-2.592v.029h1.07v-.03a4.368 4.368 0 0 0-4.368-4.367m14.392 4.358c0 .297-.24.536-.537.536h-7.232a.535.535 0 1 1 0-1.073h7.232c.297 0 .537.24.537.537m-1.428 2.991a.531.531 0 1 1-1.063.002.531.531 0 0 1 1.063-.002" fill="#000"/><path d="M80.243 21.747a.532.532 0 0 1-.525-.614h-.797v1.007h1.328v-.394h-.006m-.532 1.575c0-.294.238-.532.532-.532h.006v-.374h-1.328v1.008h.8a.53.53 0 0 1-.01-.102m6.146-2.326a.53.53 0 0 1-.484.752c-.014 0-.027-.002-.04-.003v.534h1.191v-1.283h-.667z" fill="#000"/><path d="M82.789 17.927a4.368 4.368 0 1 0 2.807 7.714l-.767-.754a3.298 3.298 0 1 1 1.259-2.592v.029h1.068l.001-.03a4.368 4.368 0 0 0-4.368-4.367m-18.047 1.008l.005.013a2.225 2.225 0 0 0-1.815 2.308v4.857a.55.55 0 0 1-1.099 0v-5.15a3.299 3.299 0 0 1 2.921-3.044.525.525 0 0 1-.012 1.016m3.1.587a.532.532 0 1 1-1.064 0 .532.532 0 0 1 1.064 0" fill="#000"/><path d="M66.98 19.97c.198-.315.435-.602.705-.856a3.299 3.299 0 0 0-5.864 1.864h1.076a2.226 2.226 0 0 1 4.083-1.009m35.325 6.651c1.596-.184 3.082-1.726 2.822-3.37-.109-.695-.564-1.411-1.318-1.91-.59-.39-3.47-1.752-3.974-2.102-.31-.237-.918-.887-.963-1.306-.121-1.13.495-1.612 1.12-1.901.257-.121.59-.166.727-.181 1.165-.137 1.543.075 2.61.58.11.053.218.055.336.036.358-.056.606-.213.55-.571-.043-.266-.19-.388-.468-.525-.743-.368-2.137-.809-3.311-.624l-.058.01-.003-.016c-1.628.27-2.919 1.744-2.662 3.378.139.878.814 1.614 1.505 2.064.462.388 2.135 1.06 3.789 1.977.587.326.823.647.91 1.374.089.756-.786 1.613-1.47 1.873-1.063.313-2.313-.13-3.145-.57-.249-.162-.363-.248-.592-.212a.656.656 0 0 0-.138 1.26c1.48.652 2.479.879 3.733.735M56.66 17.56l.015.007a2.323 2.323 0 0 1 2.408-1.895h2.328a.574.574 0 0 0 0-1.147h-2.633a3.443 3.443 0 0 0-3.178 3.05.547.547 0 0 0 1.06-.014m-.691 3.179c0 .312.252.564.564.564h3.584a.564.564 0 0 0 0-1.127h-3.584a.564.564 0 0 0-.564.563" fill="#000"/><path d="M58.153 15.092c0 .306.28.555.626.555h.494c.346 0 .627-.25.627-.555 0-.308-.281-.556-.627-.556h-.494c-.346 0-.626.248-.626.556m-1.979 1.434c.316 0 .573.187.573.416v9.234c0 .23-.257.416-.573.416-.317 0-.574-.186-.574-.416v-8.693c0-.23.257-.957.574-.957" fill="#000"/><path d="M56.814 22.125a.82.82 0 0 1 .82-.82h.27v-.825H55.91v1.808h.903v-.163z" fill="#000"/><path d="M56.814 19.352a.82.82 0 0 0 .82.82h.27v.825H55.91v-1.808h.903v.163zm-.098-1.528a2.279 2.279 0 0 1 2.03-2.163v-1.12a3.395 3.395 0 0 0-3.146 3.283h1.116zm32.376 8.295c0-.3.274-.543.611-.543h4.957c.337 0 .611.244.611.543 0 .298-.274.541-.61.541h-4.958c-.337 0-.61-.243-.61-.541" fill="#000"/><path d="M89.55 26.628c-.298 0-.54-.273-.54-.61v-8.23c0-.338.242-.612.54-.612.3 0 .543.274.543.611v8.231c0 .337-.243.61-.542.61m4.825-6.863v1.06a2.374 2.374 0 0 1 0 4.748v1.122a3.465 3.465 0 0 0 0-6.93" fill="#000"/><path d="M89.294 20.26a.55.55 0 0 0 .55.548h4.458a.55.55 0 0 0 0-1.098h-4.458a.55.55 0 0 0-.55.55m2.377-5.183c0 .299.152.542.34.542h1.368c.187 0 .34-.243.34-.542 0-.299-.153-.542-.34-.542h-1.368c-.188 0-.34.243-.34.542" fill="#000"/><path d="M90.118 21.469a.799.799 0 0 1 .8-.8h.263v-.804h-1.944v1.763h.88v-.16z" fill="#000"/><path d="M90.118 18.952a.799.799 0 0 0 .8.8h.263v.804h-1.944v-1.763h.88v.159zm3.139-4.419v1.03a2.107 2.107 0 0 1 0 4.215v1.031a3.139 3.139 0 0 0 0-6.276" fill="#000"/><path d="M93.101 14.595v1.01c1.16.005 2.1.928 2.1 2.066s-.94 2.06-2.1 2.065v1.01c1.73-.003 3.13-1.379 3.13-3.075 0-1.697-1.4-3.072-3.13-3.076m-3.02 3.147a2.222 2.222 0 0 1 1.98-2.11v-1.091a3.31 3.31 0 0 0-3.068 3.201h1.088zm16.239 8.28c0-.277.188-.501.419-.501h3.395c.23 0 .418.224.418.5 0 .278-1.125.502-1.356.502h-2.457c-.231 0-.418-.224-.418-.501" fill="#000"/><path d="M107.295 24.74a.797.797 0 0 0 .799.8h.263v.804h-1.943v-1.763h.88v.16z" fill="#000"/><mask id="b" fill="#fff"><use xlink:href="#a"/></mask><path d="M109.32 14.786a1.044 1.044 0 0 0-.123-.01h-1.087v.006h-.027c-.982 0-1.788.75-1.877 1.71v9.42c0 .338.243.611.542.611.3 0 .542-.273.542-.61v-9.36a.794.794 0 0 1 .626-.774h1.8c2.452.308 4.35 2.374 4.35 4.876 0 2.67-2.159 4.84-4.847 4.914v.958c3.226-.073 5.819-2.674 5.819-5.872 0-3.164-2.539-5.744-5.718-5.869" fill="#000" mask="url(#b)"/><path d="M.58.7c-2.528 2.527 3.965 13.118 5.082 14.234 1.117 1.118 4.072-.025 6.598-2.552 2.528-2.528 3.672-5.483 2.554-6.6C13.697 4.666 3.107-1.827.579.7" fill="#000"/><path d="M1.195 1.014c-2.302 2.19 3.893 12.441 4.947 13.55 1.055 1.108 3.775.233 6.078-1.957 2.302-2.19 3.314-4.863 2.26-5.971-1.055-1.11-10.983-7.81-13.285-5.622" fill="#FFF"/><path d="M1.05.661C-1.196 2.8 5.319 13.297 6.409 14.443c1.09 1.146 3.796.343 6.043-1.792 2.247-2.138 3.184-4.8 2.094-5.946C13.455 5.558 3.297-1.475 1.051.66" fill="#000"/><path d="M1.347.839C-.59 2.885 6.191 12.448 7.284 13.483c1.092 1.033 3.548.213 5.483-1.832 1.938-2.047 2.622-4.543 1.53-5.577C13.204 5.039 3.282-1.206 1.346.839" fill="#FFF"/><path d="M42.218 21.398C42.218 32.776 32.994 42 21.617 42c-11.38 0-20.603-9.224-20.603-20.602S10.238.796 21.617.796c11.377 0 20.6 9.224 20.6 20.602" fill="#000"/><path d="M41.693 21.398c0 11.088-8.989 20.077-20.077 20.077-11.088 0-20.077-8.99-20.077-20.077C1.54 10.31 10.528 1.32 21.616 1.32c11.088 0 20.077 8.989 20.077 20.077" fill="#FFF"/><path d="M40.643 20.61c0 10.944-8.87 19.816-19.814 19.816S1.014 31.554 1.014 20.61C1.014 9.667 9.885.796 20.83.796c10.943 0 19.814 8.871 19.814 19.815" fill="#000"/><path d="M37.888 18.97c0 9.82-7.961 17.78-17.78 17.78-9.82 0-17.781-7.96-17.781-17.78s7.96-17.78 17.78-17.78 17.78 7.96 17.78 17.78" fill="#FFF"/><path d="M42.253.64c2.516 2.516-4.074 13.183-5.202 14.313-1.128 1.128-4.083.004-6.598-2.512-2.516-2.516-3.64-5.47-2.512-6.599C29.069 4.714 39.737-1.875 42.253.641" fill="#000"/><path d="M41.595 1.43c2.298 2.299-3.938 12.261-4.997 13.32-1.06 1.06-3.782.054-6.08-2.244s-3.303-5.02-2.243-6.08c1.06-1.058 11.02-7.294 13.32-4.996" fill="#FFF"/><path d="M41.512.923c2.207 2.207-4.323 12.317-5.41 13.405-1.09 1.088-3.76.18-5.969-2.028-2.208-2.207-3.115-4.879-2.028-5.967 1.089-1.089 11.198-7.618 13.407-5.41" fill="#000"/><path d="M41.618.693c2.026 2.17-5.089 12.098-6.234 13.167-1.146 1.067-3.716.174-5.74-1.996-2.025-2.171-2.739-4.797-1.593-5.865C29.196 4.93 39.593-1.478 41.618.693" fill="#FFF"/><path d="M37.011 14.469c-1.063 1.063-3.848.002-6.219-2.368-2.37-2.37-3.43-5.155-2.367-6.219.233-.232.899-.713 1.82-1.297-1.365-.546-2.512-.578-3.128.037-1.255 1.256.18 4.726 3.206 7.752 3.025 3.026 6.496 4.46 7.752 3.205.566-.566.583-1.585.155-2.809-.547.858-.996 1.475-1.219 1.699" fill="#000"/></g></svg>