<svg width="191" height="24" xmlns="http://www.w3.org/2000/svg" xmlns:xlink="http://www.w3.org/1999/xlink"><defs><path id="a" d="M0 .016h190.246V24H0"/><path id="c" d="M0 .016h190.246V24H0V.016z"/></defs><g fill="none" fill-rule="evenodd"><path d="M8.608 20.176l-4.757-8.24 4.757-8.24h9.515l4.757 8.24-4.757 8.24H8.608z" fill="#CECDCB"/><path d="M9.416 19.14l-4.23-7.232-2.319-3.964c-.169-.293-.239-.693-.212-1.077l-2.436 4.22c-.292.505-.292 1.331 0 1.836L6.08 23.076c.291.505 1.007.918 1.59.918h6.976c.28-.165.523-.389.665-.635l2.388-4.22H9.416z" fill="#F4B419"/><path d="M90.203 11.687c.296-.122.32-.144.21-.457-.626-1.788-2.983-2.753-4.991-1.916-1.584.661-2.73 2.336-2.73 4.209 0 2.523 1.82 4.767 4.295 4.767 1.135 0 1.941-.157 2.66-.612.153-.143 1.02-.837 1.03-.986 0-.034-.123.074-.311.178-.56.294-1.398.407-2.055.419-1.33.024-2.393-.882-3.086-1.958a5.094 5.094 0 0 1-.805-2.334c-.11-1.307.209-2.81 1.685-3.18.982-.245 1.912.306 2.274 1.251.164.43.065.653-.332.816l-3.551 1.484 1.21.077c1.442-.599 3.056-1.16 4.497-1.758M79.272 4.41h2.65c-.368.239-.492.338-.65.589-.114.18-.144.521-.164.829-.155 3.54-.06 7.106-.083 10.646.015.964.394.85 1.649.814-.19.16-.496.477-.734.614-1.132 0-2.212-.025-3.344-.025.426-.44.645-.724.616-1.825.022-3.699-.124-7.249.101-10.811-.53.015-1.012.008-1.544.023.502-.259.976-.623 1.503-.854" fill="#7F8081"/><mask id="b" fill="#fff"><use xlink:href="#a"/></mask><path d="M75.432 12.658c.202 1.225-.11 2.387-1.217 2.693-1.133.314-2.387-.568-2.79-2.147-.443-1.732.014-2.832 1.083-3.164 1.264-.393 2.616.748 2.924 2.618m2.853-3.366l-1.133.734h-1.29c.544.381.962.93 1.192 1.54.245.652.28 1.373.03 2.037-.235.626-.71 1.166-1.41 1.576-.399.233-.6.528-.621.811-.065.827.945 1.428 1.529 1.866 1.278.956 1.777 2.526.931 4.043-.808 1.448-2.732 2.094-4.776 2.101-2.538-.011-4.14-1.174-4.224-2.758-.109-2.046 1.99-3.02 3.888-3.242a7.544 7.544 0 0 1 1.452-.02c-.672-.442-.923-1.343-.58-1.944.09-.157.032-.103-.137-.077-1.551.234-3.15-.779-3.524-2.31a3.441 3.441 0 0 1 .225-2.223c.642-1.38 2.07-2.147 3.656-2.147 1.649 0 3.176.001 4.792.013m-3.805 9.215c.19.14.39.276.594.405 1.114.706 1.468 1.567 1.378 2.363-.11.96-1.03 1.716-2.606 1.812-1.683.102-3.949-.564-3.53-2.778.224-1.18 1.789-1.788 3.083-1.831.358-.012.723.017 1.081.03" fill="#7F8081" mask="url(#b)"/><path d="M66.742 13.732c.175 1.736-.408 3.348-1.966 3.709-1.594.369-3.284-.954-3.706-3.2-.463-2.465.303-4.088 1.807-4.487 1.783-.473 3.6 1.327 3.865 3.978m-2.874-4.695c3.041 0 4.628 2.022 4.77 4.391.141 2.36-1.805 4.472-4.187 4.725-2.864.304-5.365-1.67-5.365-4.547 0-2.517 2.148-4.57 4.782-4.57m-7.518 4.696c.176 1.736-.414 3.348-1.99 3.709-1.612.369-3.322-.954-3.75-3.2-.468-2.465.307-4.088 1.83-4.487 1.802-.473 3.64 1.327 3.91 3.978m-2.91-4.695c3.079 0 4.684 2.022 4.828 4.391.143 2.36-1.826 4.472-4.237 4.725-2.897.304-5.428-1.67-5.428-4.547 0-2.517 2.173-4.57 4.838-4.57M45.793 7.77l1.383-1.41c-2.349-1.944-6.377-2.2-9.046-.85-2.321 1.174-4.01 3.505-4.092 6.109-.086 2.74 1.506 4.908 3.122 5.998 2.668 1.798 7.293 1.398 10.08-.009l-.001-.26v-2.873l.649-.759h-4.06l-1.502.847 2.919-.088v2.532c0 .359.005.417-.587.608-.833.218-1.774.262-2.633.19-2.915-.243-5.137-2.547-5.664-5.42-.499-2.726.786-5.305 2.96-6.369 1.062-.519 2.335-.763 3.715-.321.866.277 1.652.776 2.337 1.463l-.478.868.898-.256zm55.422.53c-1.317 0-2.354.422-3.11 1.265-.757.842-1.135 1.996-1.135 3.461 0 1.498.357 2.662 1.07 3.49.714.828 1.733 1.242 3.06 1.242.88 0 1.69-.112 2.427-.337v.646c-.694.244-1.56.367-2.6.367-1.474 0-2.635-.477-3.483-1.43-.847-.952-1.27-2.283-1.27-3.992 0-1.068.201-2.009.606-2.823a4.39 4.39 0 0 1 1.745-1.885c.759-.442 1.641-.664 2.646-.664 1.025 0 1.942.192 2.75.575l-.294.66a5.33 5.33 0 0 0-2.412-.574" fill="#7F8081"/><mask id="d" fill="#fff"><use xlink:href="#c"/></mask><path d="M106.273 18.29h-.71V7.116h.71V18.29zm2.867-3.914c0 1.072.235 1.91.707 2.51.471.6 1.138.901 2 .901.861 0 1.528-.3 2-.901.47-.6.707-1.438.707-2.51 0-1.077-.238-1.913-.715-2.506-.476-.594-1.145-.89-2.007-.89-.862 0-1.526.295-1.993.886-.466.592-.7 1.428-.7 2.51m6.162 0c0 1.274-.31 2.268-.927 2.984-.617.716-1.47 1.074-2.556 1.074-.685 0-1.288-.166-1.81-.496-.522-.33-.922-.805-1.199-1.422-.278-.618-.417-1.33-.417-2.14 0-1.273.309-2.266.927-2.976.617-.711 1.465-1.067 2.542-1.067 1.072 0 1.914.36 2.524 1.08.61.721.916 1.709.916 2.963m2.526-3.892v5.055c0 .785.165 1.356.495 1.713.33.357.843.535 1.537.535.929 0 1.613-.234 2.05-.704.439-.469.658-1.233.658-2.29v-4.31h.703v7.807h-.603l-.129-1.077h-.043c-.508.814-1.41 1.22-2.707 1.22-1.777 0-2.665-.95-2.665-2.85v-5.1h.704zm10.663.496c-.853 0-1.493.299-1.921.897-.429.599-.643 1.467-.643 2.607 0 2.212.86 3.318 2.578 3.318.88 0 1.527-.257 1.939-.769.412-.512.618-1.357.618-2.535v-.122c0-1.207-.203-2.074-.607-2.603-.405-.53-1.06-.794-1.964-.794m0-.646c.565 0 1.053.103 1.465.309.411.206.78.557 1.106 1.055h.042a37.382 37.382 0 0 1-.042-1.773V7.116h.703V18.29h-.466l-.18-1.192h-.057c-.594.89-1.446 1.336-2.557 1.336-1.077 0-1.9-.336-2.47-1.006-.57-.67-.855-1.647-.855-2.93 0-1.35.283-2.382.848-3.095.564-.713 1.385-1.07 2.463-1.07m10.038 2.987h1.444c1.182 0 2.037-.195 2.563-.585.527-.39.79-1.023.79-1.9 0-.808-.249-1.408-.747-1.798-.498-.39-1.268-.585-2.312-.585h-1.738v4.869zm5.587-2.513c0 1.015-.345 1.793-1.034 2.334-.69.54-1.666.811-2.93.811h-1.623v4.338h-.732V7.79h2.57c2.5 0 3.749 1.005 3.749 3.016zm2.435 7.483h-.71V7.116h.71V18.29zm4.23-.503c.832 0 1.49-.238 1.97-.715.482-.476.722-1.137.722-1.985v-.768l-1.364.057c-1.097.053-1.878.224-2.345.514-.467.29-.7.74-.7 1.353 0 .488.15.868.449 1.138.299.271.721.406 1.267.406zm2.872.503l-.18-1.235h-.057c-.393.502-.796.858-1.21 1.066-.415.208-.904.313-1.469.313-.766 0-1.362-.197-1.788-.59-.426-.392-.64-.935-.64-1.63 0-.76.318-1.352.952-1.774.635-.42 1.553-.643 2.754-.667l1.487-.043v-.517c0-.743-.15-1.302-.452-1.68-.302-.379-.788-.568-1.458-.568-.723 0-1.473.201-2.248.603l-.266-.618c.857-.402 1.705-.603 2.542-.603.858 0 1.498.223 1.921.668.424.445.636 1.14.636 2.083v5.192h-.524zm5.112-.488c.45 0 .843-.039 1.179-.116v.575a3.768 3.768 0 0 1-1.193.173c-.689 0-1.198-.185-1.526-.554-.328-.368-.492-.948-.492-1.738v-5.04h-1.156v-.417l1.156-.323.36-1.767h.366v1.889h2.29v.618h-2.29v4.94c0 .599.105 1.041.316 1.329.21.287.54.43.99.43m5.767-6.699h-1.838v7.188h-.711v-7.188h-1.45v-.417l1.45-.266v-.603c0-.957.176-1.66.528-2.108.352-.447.927-.67 1.727-.67.43 0 .862.063 1.292.192l-.165.618a3.811 3.811 0 0 0-1.142-.179c-.555 0-.949.164-1.181.492-.232.328-.348.86-.348 1.598v.725h1.838v.618zm1.508 3.274c0 1.072.236 1.91.707 2.51.472.6 1.138.901 2 .901.862 0 1.528-.3 2-.901.472-.6.708-1.438.708-2.51 0-1.077-.239-1.913-.715-2.506-.477-.594-1.145-.89-2.007-.89-.862 0-1.526.295-1.993.886-.467.592-.7 1.428-.7 2.51m6.161 0c0 1.274-.309 2.268-.926 2.984-.617.716-1.47 1.074-2.557 1.074-.684 0-1.288-.166-1.81-.496-.521-.33-.92-.805-1.198-1.422-.278-.618-.417-1.33-.417-2.14 0-1.273.309-2.266.926-2.976.618-.711 1.465-1.067 2.542-1.067 1.073 0 1.914.36 2.525 1.08.61.721.915 1.709.915 2.963m5.235-4.043c.331 0 .685.034 1.063.1l-.136.683a4.164 4.164 0 0 0-1.012-.122c-.666 0-1.212.282-1.638.847-.426.565-.64 1.278-.64 2.14v4.309h-.71v-7.806h.603l.072 1.407h.05c.32-.574.663-.978 1.027-1.21.364-.232.804-.348 1.321-.348m12.107 7.957v-5.12c0-.762-.148-1.317-.445-1.666-.297-.35-.752-.525-1.364-.525-.8 0-1.391.22-1.774.66-.383.441-.574 1.133-.574 2.076v4.575h-.726v-5.336c0-1.316-.603-1.975-1.81-1.975-.818 0-1.414.239-1.788.715-.373.476-.56 1.238-.56 2.287v4.309h-.71v-7.806h.588l.15 1.07h.044a2.24 2.24 0 0 1 .92-.901c.397-.214.835-.32 1.313-.32 1.23 0 2.02.462 2.37 1.386h.03a2.652 2.652 0 0 1 1.022-1.027c.429-.24.916-.359 1.462-.359.852 0 1.491.227 1.917.682.426.455.64 1.178.64 2.169v5.106h-.705z" fill="#7F8081" mask="url(#d)"/><path d="M26.846 11.087L20.984.934l2.382 4.125 3.48 6.028z" fill="#DD452E" mask="url(#d)"/><path d="M26.846 11.087l-3.48-6.028c-.3-.185-.647-.302-.957-.302h-4.718l4.08 7.19L17.7 19.14l-2.388 4.22c-.142.245-.385.47-.665.634h4.747c.583 0 1.299-.413 1.59-.918l2.332-4.038 3.53-6.115c.292-.505.292-1.33 0-1.836" fill="#DD452E" mask="url(#d)"/><path d="M20.984.934c-.291-.505-1.007-.918-1.59-.918H7.671c-.583 0-1.299.413-1.59.918L2.654 6.868c-.027.383.043.783.212 1.076l2.32 3.964 4.139-7.15h13.083c.31 0 .656.116.957.301L20.984.934z" fill="#507CBE" mask="url(#d)"/><path d="M5.186 11.908l4.23 7.232H17.7l4.07-7.192-4.079-7.19H9.326l-4.14 7.15z" fill="#CECDCB" mask="url(#d)"/><path d="M2.804 6.608l-.15.26c-.027.383.043.783.212 1.076l2.32 3.964 1.233-2.13-3.615-3.17z" fill="#4E70A8" mask="url(#d)"/><path d="M23.523 5.33l-.156-.271c-.3-.185-.647-.302-.957-.302h-4.718l1.228 2.165 4.603-1.593z" fill="#C3422E" mask="url(#d)"/><path d="M14.25 23.994h.406c.28-.165.523-.389.665-.635l2.388-4.22h-2.543l-.915 4.855z" fill="#D19D2A" mask="url(#d)"/><path d="M13.525 15.698a3.712 3.712 0 0 1-3.709-3.708 3.712 3.712 0 0 1 3.709-3.709 3.712 3.712 0 0 1 3.708 3.709 3.712 3.712 0 0 1-3.708 3.708" fill="#FEFEFE" mask="url(#d)"/><path d="M13.525 8.228a3.765 3.765 0 0 0-3.762 3.761 3.765 3.765 0 0 0 3.762 3.762 3.765 3.765 0 0 0 3.76-3.762 3.765 3.765 0 0 0-3.76-3.76m0 .105a3.655 3.655 0 1 1 0 7.31 3.655 3.655 0 0 1 0-7.31" fill="#CAC8C6" mask="url(#d)"/><path d="M7.973 3.064a.716.716 0 1 1 .002-1.432.716.716 0 0 1-.002 1.432" fill="#FEFEFE" mask="url(#d)"/><path d="M7.973 1.58a.77.77 0 1 0 .002 1.539.77.77 0 0 0-.002-1.539m0 .106a.662.662 0 1 1 0 1.325.662.662 0 0 1 0-1.325" fill="#4472B8" mask="url(#d)"/><path d="M19.696 2.349a.662.662 0 1 1-1.325 0 .662.662 0 0 1 1.325 0" fill="#FEFEFE" mask="url(#d)"/><path d="M19.696 2.349a.662.662 0 1 1-1.325 0 .662.662 0 0 1 1.325 0h0z" stroke="#4472B8" mask="url(#d)"/><path d="M7.973 22.24a.716.716 0 1 1 .002-1.432.716.716 0 0 1-.002 1.433" fill="#FEFEFE" mask="url(#d)"/><path d="M7.973 20.757a.77.77 0 1 0 .002 1.538.77.77 0 0 0-.002-1.538m0 .106a.662.662 0 1 1 0 1.325.662.662 0 0 1 0-1.325" fill="#F2B01B" mask="url(#d)"/><path d="M19.034 22.24a.716.716 0 1 1 .001-1.432.716.716 0 0 1-.001 1.433" fill="#FEFEFE" mask="url(#d)"/><path d="M19.034 20.757a.77.77 0 1 0 .001 1.538.77.77 0 0 0-.001-1.538m0 .106a.662.662 0 1 1 0 1.325.662.662 0 0 1 0-1.325" fill="#DD472E" mask="url(#d)"/><path d="M24.602 12.705a.716.716 0 1 1 .001-1.433.716.716 0 0 1-.001 1.433" fill="#FEFEFE" mask="url(#d)"/><path d="M24.602 11.221a.77.77 0 1 0 .001 1.539.77.77 0 0 0-.001-1.539m0 .106a.662.662 0 1 1 0 1.325.662.662 0 0 1 0-1.325" fill="#DD472E" mask="url(#d)"/><path d="M2.395 12.705a.716.716 0 1 1 .002-1.432.716.716 0 0 1-.002 1.432" fill="#FEFEFE" mask="url(#d)"/><path d="M2.395 11.221a.77.77 0 1 0 .002 1.539.77.77 0 0 0-.002-1.539m0 .106a.662.662 0 1 1 0 1.325.662.662 0 0 1 0-1.325" fill="#F2B01B" mask="url(#d)"/></g></svg>