<svg width="150" height="32" xmlns="http://www.w3.org/2000/svg"><g fill="none" fill-rule="evenodd"><path d="M47.1 16.866c.29-.317.587-.647.891-.99.317-.344.621-.681.912-1.011.29-.344.561-.668.812-.971.264-.304.489-.568.674-.793h3.508c-.7.806-1.388 1.579-2.061 2.318a57.127 57.127 0 01-2.18 2.26c.396.356.806.786 1.228 1.288.423.488.833.997 1.229 1.525a22.678 22.678 0 011.922 3.032h-3.388c-.212-.343-.456-.72-.734-1.13a18.966 18.966 0 00-.852-1.248 14.396 14.396 0 00-.97-1.208 7.556 7.556 0 00-.992-.971v4.557h-2.952V8.622l2.952-.475v8.72zm17.207 6.302c-.502.145-1.15.277-1.942.396-.792.132-1.625.198-2.497.198-.885 0-1.625-.119-2.219-.356-.581-.238-1.044-.569-1.387-.991a3.994 3.994 0 01-.733-1.546 8.26 8.26 0 01-.218-1.962v-5.806h2.952v5.45c0 .95.126 1.638.377 2.06.25.423.72.635 1.407.635.211 0 .436-.007.674-.02.237-.027.449-.053.634-.08v-8.045h2.952v10.067zm12.482-4.855c0 .832-.126 1.585-.377 2.259a4.66 4.66 0 01-1.05 1.724 4.766 4.766 0 01-1.704 1.11c-.674.25-1.44.376-2.3.376-.356 0-.732-.02-1.129-.06a16.938 16.938 0 01-1.149-.118c-.37-.053-.727-.113-1.07-.179a14.844 14.844 0 01-.912-.237V8.622l2.953-.475v5.192a5.293 5.293 0 012.18-.456c.74 0 1.394.132 1.962.396a3.75 3.75 0 011.426 1.09c.384.476.674 1.05.872 1.724.199.66.298 1.4.298 2.22zm-3.012-.08c0-1.902-.7-2.853-2.101-2.853-.304 0-.608.04-.912.119-.29.079-.528.178-.713.297v5.37c.145.027.33.053.555.08.224.013.469.02.733.02.806 0 1.414-.278 1.823-.833.41-.555.614-1.288.615-2.2zm4.785.159c0-.925.14-1.73.417-2.418.29-.7.667-1.281 1.13-1.744a4.68 4.68 0 011.585-1.05 5.072 5.072 0 011.862-.357c1.48 0 2.65.456 3.508 1.368.858.898 1.288 2.226 1.288 3.983 0 .172-.007.363-.02.575-.013.198-.026.376-.04.535h-6.698c.066.607.35 1.09.853 1.446.502.357 1.175.535 2.02.535.542 0 1.07-.046 1.586-.138.529-.106.958-.232 1.288-.377l.397 2.398c-.159.08-.37.158-.635.238a6.986 6.986 0 01-.891.198c-.317.066-.66.119-1.03.158-.37.04-.74.06-1.11.06-.938 0-1.758-.139-2.458-.416-.687-.278-1.261-.654-1.724-1.13a4.796 4.796 0 01-1.01-1.724 6.985 6.985 0 01-.318-2.14zm6.936-1.13a2.769 2.769 0 00-.138-.733 1.635 1.635 0 00-.337-.634 1.661 1.661 0 00-.575-.456c-.225-.119-.509-.178-.852-.178a1.9 1.9 0 00-.852.178 1.655 1.655 0 00-.595.436 2.12 2.12 0 00-.376.654c-.08.238-.139.482-.179.733h3.904zm11.414-1.545a15.643 15.643 0 00-.931-.198 5.293 5.293 0 00-1.15-.12c-.184 0-.409.02-.673.06-.251.027-.443.06-.575.1v7.965H90.63v-9.868c.529-.185 1.15-.357 1.863-.515a10.522 10.522 0 012.418-.258c.158 0 .35.013.574.04.225.013.45.04.674.079.225.026.45.066.674.119.225.04.416.092.575.158l-.496 2.438zm2.079-2.26c.502-.145 1.149-.277 1.942-.396a15.18 15.18 0 012.496-.198c.886 0 1.619.119 2.2.357.595.224 1.064.548 1.407.97.344.424.588.926.733 1.507a7.98 7.98 0 01.218 1.942v5.885h-2.952v-5.528c0-.952-.126-1.625-.377-2.022-.251-.396-.72-.594-1.407-.594a6.12 6.12 0 00-.674.04 7.183 7.183 0 00-.634.059v8.045h-2.952V13.458zm11.193 4.935c0-.925.138-1.73.416-2.418.29-.7.667-1.281 1.13-1.744a4.68 4.68 0 011.585-1.05 5.072 5.072 0 011.863-.357c1.48 0 2.648.456 3.507 1.368.859.898 1.288 2.226 1.288 3.983 0 .172-.006.363-.02.575-.013.198-.026.376-.04.535h-6.697c.066.607.35 1.09.852 1.446.502.357 1.176.535 2.021.535.542 0 1.07-.046 1.585-.138.529-.106.958-.232 1.288-.377l.397 2.398a4.1 4.1 0 01-.634.238 7.043 7.043 0 01-.892.198c-.317.066-.66.119-1.03.158-.37.04-.74.06-1.11.06-.938 0-1.757-.139-2.457-.416-.687-.278-1.262-.654-1.725-1.13a4.796 4.796 0 01-1.01-1.724 6.985 6.985 0 01-.317-2.14zm6.936-1.13a2.77 2.77 0 00-.14-.733 1.635 1.635 0 00-.336-.634 1.661 1.661 0 00-.575-.456c-.224-.119-.508-.178-.852-.178a1.9 1.9 0 00-.852.178 1.656 1.656 0 00-.594.436 2.12 2.12 0 00-.377.654c-.08.238-.139.482-.178.733h3.904zm5.033-6.757l2.952-.476v3.072h3.547v2.457h-3.547v3.666c0 .621.106 1.117.317 1.486.225.37.668.555 1.328.555.317 0 .64-.026.971-.079.344-.066.654-.152.931-.258l.417 2.3c-.357.144-.753.27-1.19.376-.435.105-.97.158-1.605.158-.805 0-1.473-.105-2.001-.317-.528-.224-.951-.528-1.268-.911a3.573 3.573 0 01-.674-1.427 8.812 8.812 0 01-.178-1.843v-8.759zm8.002 7.887c0-.925.139-1.73.416-2.418.29-.7.667-1.281 1.13-1.744a4.68 4.68 0 011.585-1.05 5.072 5.072 0 011.863-.357c1.48 0 2.649.456 3.507 1.368.86.898 1.288 2.226 1.288 3.983 0 .172-.006.363-.02.575-.013.198-.026.376-.039.535h-6.698c.066.607.35 1.09.852 1.446.502.357 1.176.535 2.021.535.542 0 1.07-.046 1.586-.138.528-.106.958-.232 1.288-.377l.396 2.398c-.158.08-.37.158-.634.238a6.965 6.965 0 01-.892.198c-.317.066-.66.119-1.03.158-.37.04-.74.06-1.11.06-.938 0-1.757-.139-2.457-.416-.687-.278-1.262-.654-1.724-1.13a4.796 4.796 0 01-1.01-1.724 6.985 6.985 0 01-.318-2.14zm6.936-1.13a2.769 2.769 0 00-.139-.733 1.635 1.635 0 00-.337-.634 1.661 1.661 0 00-.574-.456c-.225-.119-.509-.178-.853-.178a1.9 1.9 0 00-.852.178 1.656 1.656 0 00-.594.436 2.12 2.12 0 00-.377.654 4.637 4.637 0 00-.178.733h3.904zm8.124 4.142c.542 0 .925-.053 1.15-.158.224-.106.337-.311.337-.615 0-.238-.146-.442-.436-.614-.291-.185-.734-.39-1.328-.614-.462-.172-.885-.35-1.268-.535a3.903 3.903 0 01-.952-.654 2.791 2.791 0 01-.614-.932c-.145-.356-.218-.786-.218-1.288 0-.977.363-1.75 1.09-2.318.727-.568 1.724-.853 2.992-.853.634 0 1.242.06 1.823.179.582.106 1.044.224 1.388.357l-.516 2.298c-.343-.119-.72-.224-1.13-.317a5.953 5.953 0 00-1.347-.139c-.924 0-1.387.258-1.387.773 0 .12.02.225.06.317.04.093.119.185.237.278.12.08.278.172.476.277.211.093.476.198.793.317.647.238 1.182.476 1.605.714.423.224.753.475.99.753.252.264.423.561.516.891.106.33.158.714.158 1.15 0 1.03-.39 1.81-1.169 2.338-.766.529-1.856.793-3.27.793-.924 0-1.697-.08-2.318-.238-.608-.158-1.03-.29-1.268-.396l.495-2.398c.502.198 1.017.357 1.546.476.528.105 1.05.158 1.565.158z" fill="#333"/><path d="M16.28.05a2.186 2.186 0 00-.834.21L4.081 5.695A2.16 2.16 0 002.905 7.16L.101 19.367a2.144 2.144 0 00.419 1.826l7.866 9.789a2.18 2.18 0 001.7.811l12.615-.002a2.18 2.18 0 001.7-.81l7.863-9.791a2.145 2.145 0 00.42-1.826L29.876 7.156A2.16 2.16 0 0028.7 5.692L17.333.26a2.187 2.187 0 00-1.054-.21z" fill="#326CE5"/><path d="M16.392 4.204c-.376 0-.68.339-.68.756v.02c0 .056-.002.125 0 .174.008.24.06.425.093.647.057.475.105.87.075 1.235a.744.744 0 01-.22.352l-.017.288c-.408.034-.82.096-1.23.19a8.749 8.749 0 00-4.444 2.541 11.404 11.404 0 01-.246-.175c-.122.017-.244.054-.404-.039-.305-.205-.582-.488-.917-.829-.154-.163-.265-.318-.448-.476-.042-.035-.105-.084-.151-.12a.809.809 0 00-.474-.18.655.655 0 00-.542.24c-.235.295-.16.744.167 1.004l.01.008c.045.036.1.083.141.113.194.143.37.217.564.33.407.252.744.46 1.012.712.104.111.122.308.136.393l.218.194a8.816 8.816 0 00-1.388 6.142l-.285.083c-.075.097-.18.25-.292.296-.35.11-.744.15-1.22.2-.223.019-.415.008-.652.053-.052.01-.125.029-.182.042l-.006.001-.01.003c-.4.097-.658.466-.575.83.083.363.474.584.878.497l.01-.001.013-.005c.056-.012.127-.026.176-.039.232-.062.401-.154.61-.234.45-.162.823-.297 1.186-.35.152-.011.312.094.391.139l.297-.051a8.859 8.859 0 003.923 4.902l-.124.297c.045.115.094.271.06.385-.131.343-.357.705-.615 1.108-.125.186-.252.33-.365.544-.027.05-.06.13-.087.183-.175.375-.046.806.29.968.337.162.757-.01.938-.384l.002-.002v-.001c.026-.054.062-.124.084-.174.097-.22.129-.41.196-.624.18-.452.28-.927.527-1.223.068-.08.178-.112.293-.143l.154-.279a8.783 8.783 0 006.278.016l.145.262c.117.038.244.057.348.21.185.318.312.693.466 1.146.068.213.102.403.198.624.022.05.059.121.084.174.182.377.602.55.94.386.337-.162.465-.593.29-.967-.026-.054-.062-.133-.089-.184-.112-.213-.24-.356-.364-.542-.258-.404-.472-.739-.604-1.081-.055-.177.01-.287.053-.402-.026-.03-.081-.196-.114-.275a8.859 8.859 0 003.922-4.937c.088.014.241.04.29.05.103-.067.197-.155.382-.14.363.052.736.187 1.186.349.209.08.377.173.61.235.05.014.12.026.176.038l.013.005.01.001c.404.087.795-.134.878-.497.083-.364-.174-.733-.575-.83-.059-.013-.141-.035-.198-.046-.237-.045-.43-.034-.653-.053-.475-.05-.87-.09-1.22-.2-.142-.056-.243-.226-.293-.296l-.275-.08a8.8 8.8 0 00-.142-3.178 8.817 8.817 0 00-1.275-2.95l.242-.216c.01-.122.001-.25.127-.385.268-.252.605-.46 1.012-.712.193-.113.372-.187.566-.33.043-.032.103-.084.15-.12.326-.261.4-.71.166-1.004-.234-.294-.688-.322-1.014-.062-.047.037-.11.085-.151.121-.183.157-.296.313-.45.476-.335.34-.612.625-.917.83-.132.077-.325.05-.412.046l-.26.184a8.912 8.912 0 00-5.646-2.73 16.62 16.62 0 01-.016-.304c-.089-.085-.196-.157-.223-.34-.03-.367.02-.76.077-1.236.032-.222.084-.406.093-.647.002-.055 0-.134-.001-.194 0-.417-.305-.756-.68-.756h0zm-.852 5.28l-.202 3.572-.015.007a.6.6 0 01-.952.46l-.006.003-2.926-2.076a7.006 7.006 0 014.101-1.965h0zm1.705 0a7.064 7.064 0 014.076 1.968l-2.907 2.062-.01-.004a.6.6 0 01-.954-.458l-.003-.002-.202-3.565zm-6.867 3.3l2.672 2.392-.003.014a.6.6 0 01-.235 1.032l-.003.011-3.425.99a7.017 7.017 0 01.994-4.439h0zm12.008.002a7.144 7.144 0 011.025 4.425l-3.442-.992-.003-.015a.6.6 0 01-.235-1.031l-.002-.007 2.657-2.38h0zm-6.542 2.574h1.094l.68.851-.244 1.062-.982.473-.986-.474-.244-1.062.682-.85zm3.509 2.913a.596.596 0 01.138.01l.006-.007 3.542.6a7.02 7.02 0 01-2.836 3.565l-1.375-3.324.004-.006a.601.601 0 01.52-.838h0zm-5.95.014a.6.6 0 01.542.837l.01.013-1.36 3.29a7.049 7.049 0 01-2.827-3.54l3.512-.597.006.008a.52.52 0 01.117-.01h0zm2.967 1.442a.596.596 0 01.55.316h.012l1.732 3.13a7.17 7.17 0 01-.692.194c-1.324.3-2.644.21-3.84-.198l1.728-3.125h.003a.6.6 0 01.507-.317h0z" stroke="#FFF" stroke-width=".25" fill="#FFF"/></g></svg>