<svg xmlns="http://www.w3.org/2000/svg" preserveAspectRatio="xMidYMid" width="82" height="30" viewBox="0 0 82 30"><defs><style>.cls-3{fill:#000}.cls-4{fill:#6f7173}</style></defs><g id="logo-osxsvg"><path d="M81.872 24.672h-2.424l-2.064-3.576c-.84-1.369-1.368-2.256-1.872-3.193h-.048c-.457.937-.912 1.8-1.752 3.217l-1.944 3.552h-2.401l4.945-8.185-4.753-7.993h2.425l2.136 3.793c.6 1.056 1.056 1.872 1.488 2.736h.072c.456-.96.864-1.704 1.464-2.736l2.208-3.793h2.4l-4.92 7.873 5.04 8.305zm-19.224-4.416c0 2.496-1.848 4.656-5.664 4.656-1.56 0-3.265-.456-4.129-1.032l.528-1.752a7.406 7.406 0 0 0 3.745 1.056c2.136 0 3.384-1.128 3.384-2.76 0-1.513-.864-2.377-3.048-3.217-2.641-.936-4.272-2.304-4.272-4.584 0-2.52 2.088-4.392 5.232-4.392 1.656 0 2.856.383 3.576.792l-.576 1.704a6.442 6.442 0 0 0-3.072-.768c-2.208 0-3.048 1.32-3.048 2.424 0 1.512.984 2.256 3.216 3.12 2.736 1.056 4.128 2.376 4.128 4.753zm-19.2 4.68c-4.273 0-7.273-3.312-7.273-8.209 0-5.136 3.193-8.496 7.513-8.496 4.417 0 7.273 3.384 7.273 8.184 0 5.569-3.385 8.521-7.513 8.521zm.144-15.001c-3.456 0-5.184 3.192-5.184 6.744 0 3.457 1.871 6.553 5.16 6.553 3.312 0 5.184-3.049 5.184-6.721 0-3.216-1.68-6.576-5.16-6.576z" id="path-1" class="cls-3" fill-rule="evenodd"/><path d="M25.999 22.009c-.71 1.561-1.051 2.258-1.966 3.637-1.276 1.927-3.076 4.325-5.306 4.346-1.981.019-2.49-1.278-5.179-1.263-2.69.014-3.251 1.286-5.233 1.268-2.229-.021-3.936-2.187-5.212-4.113-3.571-5.386-3.945-11.707-1.742-15.067 1.565-2.388 4.033-3.786 6.355-3.786 2.364 0 3.849 1.284 5.804 1.284 1.895 0 3.05-1.286 5.783-1.286 2.065 0 4.253 1.114 5.813 3.041-5.11 2.775-4.279 10.006.883 11.939zM12.564 7.223c-.322-1.744.507-3.538 1.513-4.748C15.184 1.142 17.081.119 18.703.008c.274 1.823-.481 3.606-1.473 4.869-1.063 1.353-2.895 2.401-4.666 2.346z" id="path-2" class="cls-4" fill-rule="evenodd"/></g></svg>