<svg width="98" height="22" viewBox="0 0 98 22" xmlns="http://www.w3.org/2000/svg"><title>logo - ubuntu</title><g fill="none" fill-rule="evenodd"><path d="M91.609.117a5.832 5.832 0 1 1 0 11.664 5.832 5.832 0 0 1 0-11.664" fill="#DD4813"/><path d="M92.974 3.465a.7.7 0 1 0 .7-1.213.7.7 0 0 0-.7 1.213m-1.434 4.53c-.308 0-.6-.068-.862-.19l-.486.872a3.04 3.04 0 0 0 2.162.205.984.984 0 0 1 1.319-.762 3.04 3.04 0 0 0 .904-1.975l-.998-.014a2.046 2.046 0 0 1-2.04 1.864m0-4.093c1.07 0 1.948.82 2.04 1.866l.998-.016a3.036 3.036 0 0 0-.904-1.974.982.982 0 0 1-1.32-.763 3.027 3.027 0 0 0-2.162.205l.487.872a2.04 2.04 0 0 1 .862-.19m-2.046 2.047c0-.693.343-1.305.87-1.675l-.512-.858a3.05 3.05 0 0 0-1.26 1.77.98.98 0 0 1 .363.763.98.98 0 0 1-.363.763 3.05 3.05 0 0 0 1.26 1.769l.511-.858a2.04 2.04 0 0 1-.87-1.674m3.481 2.485a.7.7 0 1 0 .7 1.21.7.7 0 0 0-.7-1.21m-5.003-3.186a.7.7 0 1 0 0 1.4.7.7 0 0 0 0-1.4" fill="#FFF"/><path d="M11.664 21.25c-.593.15-1.375.306-2.347.473-.972.166-2.097.25-3.374.25-1.11 0-2.046-.163-2.805-.486-.76-.324-1.37-.782-1.833-1.375-.463-.592-.796-1.291-1-2.097C.102 17.211 0 16.317 0 15.335V7.228h2.583v7.553c0 1.76.277 3.018.833 3.777.555.76 1.49 1.139 2.805 1.139a17.862 17.862 0 0 0 1.694-.099c.259-.027.495-.054.708-.082a2.03 2.03 0 0 0 .459-.098V7.227h2.582v14.024zm6.303-1.833c.26.075.625.145 1.097.208.472.066 1.06.098 1.763.098 1.389 0 2.5-.459 3.332-1.375.834-.916 1.25-2.217 1.25-3.9a9.37 9.37 0 0 0-.222-2.085c-.148-.647-.389-1.208-.722-1.679a3.489 3.489 0 0 0-1.291-1.11c-.528-.27-1.162-.404-1.902-.404-.705 0-1.352.121-1.944.361-.594.241-1.047.491-1.361.75v9.136zm0-11.552c.314-.203.792-.416 1.43-.638.638-.222 1.375-.333 2.208-.333 1.036 0 1.958.185 2.763.555.805.37 1.486.888 2.041 1.555.555.666.976 1.463 1.264 2.388.286.926.43 1.944.43 3.055 0 1.166-.172 2.217-.513 3.152-.344.935-.83 1.726-1.458 2.374a6.421 6.421 0 0 1-2.278 1.5c-.888.351-1.888.527-2.999.527-1.204 0-2.268-.084-3.193-.25a25.204 25.204 0 0 1-2.277-.5V.563l2.582-.445v7.747zM42.515 21.25c-.593.15-1.375.306-2.347.473-.972.166-2.097.25-3.374.25-1.11 0-2.045-.163-2.804-.486-.76-.324-1.37-.782-1.833-1.375-.463-.592-.796-1.291-1-2.097-.204-.804-.305-1.698-.305-2.68V7.228h2.582v7.553c0 1.76.278 3.018.833 3.777.556.76 1.49 1.139 2.805 1.139a17.978 17.978 0 0 0 1.694-.099c.26-.027.495-.054.709-.082a2.02 2.02 0 0 0 .457-.098V7.227h2.583v14.024zm3.72-13.606a32.65 32.65 0 0 1 2.36-.473c.981-.166 2.11-.25 3.388-.25 1.148 0 2.102.163 2.86.486.76.325 1.366.778 1.82 1.361.452.583.772 1.282.957 2.097.185.815.278 1.713.278 2.694v8.108h-2.582v-7.553c0-.889-.06-1.647-.18-2.277-.122-.63-.32-1.14-.598-1.527a2.36 2.36 0 0 0-1.11-.848c-.463-.176-1.038-.264-1.722-.264-.279 0-.565.01-.86.028-.297.019-.58.041-.848.07-.27.027-.509.06-.722.096-.213.038-.366.065-.458.083v12.191h-2.583V7.644zm17.633-.417h5.47v2.166h-5.47v6.665c0 .721.055 1.32.167 1.791.111.472.278.843.5 1.11.222.269.499.458.833.57.333.11.721.167 1.166.167.795 0 1.425-.089 1.888-.265.462-.176.778-.3.945-.375l.554 2.111c-.259.13-.717.297-1.374.5-.657.203-1.402.305-2.235.305-.982 0-1.792-.124-2.43-.374-.639-.25-1.152-.625-1.541-1.125s-.662-1.115-.819-1.847c-.158-.73-.237-1.578-.237-2.54V3.2l2.583-.445v4.471zM83.39 21.25c-.594.15-1.375.306-2.347.473-.972.166-2.097.25-3.373.25-1.111 0-2.046-.163-2.806-.486-.76-.324-1.37-.782-1.832-1.375-.463-.592-.796-1.291-1-2.097-.204-.804-.306-1.698-.306-2.68V7.228h2.583v7.553c0 1.76.278 3.018.834 3.777.555.76 1.49 1.139 2.804 1.139.278 0 .564-.01.861-.029a26.878 26.878 0 0 0 1.541-.152c.212-.028.366-.06.459-.098V7.227h2.582v14.024z" fill="#000"/></g></svg>