<svg width="120" height="39" xmlns="http://www.w3.org/2000/svg"><g fill="none" fill-rule="evenodd"><path d="M110.096 26.296h5.62v-8.642h-5.62v8.642zm5.588-12.037H120v16.05c0 2.654-.28 3.117-.994 3.827-.558.586-1.459.864-3.011.864h-6.303l-1.956-2.16v-.896h7.948v-2.19h-5.433c-1.645 0-2.484-.31-3.167-.989-.9-.925-1.273-2.932-1.273-6.728s.435-5.895 1.366-6.852c.715-.679 1.584-.957 3.136-.957l3.23.031 2.141 1.945v-1.945zM64.767 10h5.092l-7.327 9.26 7.637 10.462h-5.402l-5.806-8.21h-1.366v8.21H53V10h4.595v7.654h1.366L64.767 10zm33.531 9.136v-1.42H93.02V29.66h-4.285v-15.4h4.285v1.944l2.142-1.945h1.242c.186-.03.404-.03.621-.03h1.863c1.304 0 2.142.277 2.732.864.652.617.9 1.42.9 3.703V29.66h-4.284V19.321c.062-.062.062-.123.062-.185zm-22.571 7.13h5.62v-8.643h-5.62v8.642zm.186 3.394c-1.552 0-2.39-.246-3.043-.956-.993-1.019-1.397-2.408-1.397-6.76 0-4.382.404-5.74 1.397-6.79.652-.679 1.49-.926 3.043-.926h5.216c1.552 0 2.39.247 3.042.926.994 1.05 1.398 2.408 1.398 6.79 0 4.383-.404 5.741-1.398 6.76-.683.71-1.49.956-3.042.956h-5.216z" fill="#043558"/><path fill="#169FCC" d="M14 33.369L15.06 32h7.85L27 37.227 26.273 39H16.152l.242-1.773z"/><path fill="#14B59A" d="M16.4 15.547L20.19 9h4.416L44.4 31.992 42.865 39h-8.487l.532-1.967z"/><path fill="#1BC263" d="M21 7.756L22.815 4.4 28.258 0l9.328 7.313-1.21 1.234L38 10.795v2.406L33.352 17l-7.8-9.244z"/><path fill="#16BDCC" d="M6.585 22.378h2.466L15.48 17 24 26.9l-2.403 3.606h-7.865l-5.43 6.905L7.053 39H0v-8.464z"/></g></svg>