<svg width="96" height="32" viewBox="0 0 96 32" xmlns="http://www.w3.org/2000/svg"><title>Kogo 4.5x</title><g fill="#FFF" fill-rule="evenodd"><path d="M11.52 26.15l-.864 1.09 1.95 3.035-.203 1.405h8.27l.571-1.405-3.323-4.125zm4.522-18.471l-2.99 5.217 14.59 17.207-.417 1.577h6.692l1.213-5.597-15.614-18.41z"/><path d="M22.241.323l-4.214 3.432-1.42 2.612h3.527l6.058 7.182 3.602-2.947V8.73l-1.252-1.75.924-.958zM7.167 18.295H5.196L0 24.871v6.809h5.574l.983-1.277 4.302-5.55h6.218l1.915-2.921-6.744-7.977zm53.389 5.365c-1.252 0-1.9-.2-2.436-.756-.805-.803-1.118-1.916-1.118-5.37 0-3.475.313-4.566 1.118-5.39.514-.535 1.184-.736 2.436-.736h4.18c1.252 0 1.9.2 2.436.735.805.825 1.118 1.916 1.118 5.391 0 3.476-.313 4.567-1.118 5.37-.536.556-1.184.757-2.436.757h-4.18zm-.156-2.697h4.493v-6.861H60.4v6.861zm18.053-5.677l.002.132v8.243h3.42v-8.644c0-1.804-.202-2.45-.715-2.94-.47-.468-1.14-.691-2.191-.691H77.47c-.184 0-.35.006-.508.022h-1l-1.723 1.55v-1.55h-3.407v12.253h3.42v-8.375h-.001v-1.137h4.201v1.137zM51.657 8.02h4.07l-5.846 7.373 6.093 8.314h-4.317l-4.635-6.532-1.099-.005v6.537h-3.665V8.02h3.665v6.081h1.098zM87.89 20.967h4.494v-6.866H87.89v6.866zm4.472-9.56v1.55l-1.723-1.55-2.569-.021c-1.23 0-1.945.223-2.504.757-.737.758-1.095 2.412-1.095 5.441 0 3.007.29 4.617 1.006 5.352.559.534 1.224.78 2.543.78l4.336.002.006 1.748h-6.357l.005.722 1.554 1.717 5.043.01c1.252 0 1.968-.222 2.414-.69.56-.58.783-.938.783-3.054V11.408h-3.442z"/></g></svg>