<svg height="64" preserveAspectRatio="xMidYMid" width="64" xmlns="http://www.w3.org/2000/svg"><path d="M0 0h64v64H0z" fill="none"/><path d="M63.778 33c-.15.418-.395.79-.805.9C56.086 35.776 48.71 36.417 41 37v-2c7.364-.57 14.408-1.28 21-2.958V15a2 2 0 00-2-2H4a2 2 0 00-2 2v17.307c6.603 1.6 13.646 2.186 21 2.693v2c-7.717-.52-15.11-1.02-22.02-2.833-1.307-.343-.98-.02-.98-1.01V15c0-2.21 1.79-4 4-4h56c2.21 0 4 1.79 4 4v18zM23 9V5l1-1h16l1 1v4h-2V6H25v3zm20-5a2 2 0 00-2-2H23a2 2 0 00-2 2v5h-2V4c0-2.21 1.79-4 4-4h18c2.21 0 4 1.79 4 4v5h-2zM28 43a3 3 0 01-3-3v-8a3 3 0 013-3h8a3 3 0 013 3v8a3 3 0 01-3 3zm9-4v-6a2 2 0 00-2-2h-6a2 2 0 00-2 2v6a2 2 0 002 2h6a2 2 0 002-2zm-7 0l-1-1v-4l1-1h4l1 1v4l-1 1zm3-4h-2v2h2zM3 56a2 2 0 002 2h54a2 2 0 002-2V37h2v19c0 2.21-1.79 4-4 4H5c-2.21 0-4-1.79-4-4V37h2z" fill="#0070bf" fill-rule="evenodd"/></svg>