<svg width="64" height="64" viewBox="0 0 64 64" xmlns="http://www.w3.org/2000/svg"><title>icn--CE</title><g fill="none" fill-rule="evenodd"><path d="M8 2h48v60H8V2zm50 2h4v56h-4V4zM6 4v56H2V4h4z" fill="#E6EFF5"/><path d="M6 2a2 2 0 0 1 2-2h48a2 2 0 0 1 2 2h4a2 2 0 0 1 2 2v56a2 2 0 0 1-2 2h-4a2 2 0 0 1-2 2H8a2 2 0 0 1-2-2H2a2 2 0 0 1-2-2V4a2 2 0 0 1 2-2h4zm0 2H2v56h4V4zm2-2v60h48V2H8zm50 2v56h4V4h-4z" fill="#07C"/><path d="M4 2h2v60H4V2zm54 0h2v60h-2V2z" fill-opacity=".1" fill="#000"/><path d="M13 5h6a1 1 0 0 1 0 2h-6a1 1 0 0 1 0-2zm32 0h6a1 1 0 0 1 0 2h-6a1 1 0 0 1 0-2zM29 5h6a1 1 0 0 1 0 2h-6a1 1 0 0 1 0-2zm-6 0h2a1 1 0 0 1 0 2h-2a1 1 0 0 1 0-2zm16 0h2a1 1 0 0 1 0 2h-2a1 1 0 0 1 0-2zM13 15h6a1 1 0 0 1 0 2h-6a1 1 0 0 1 0-2zm32 0h6a1 1 0 0 1 0 2h-6a1 1 0 0 1 0-2zm-16 0h6a1 1 0 0 1 0 2h-6a1 1 0 0 1 0-2zm-6 0h2a1 1 0 0 1 0 2h-2a1 1 0 0 1 0-2zm16 0h2a1 1 0 0 1 0 2h-2a1 1 0 0 1 0-2zM13 52h6a1 1 0 0 1 0 2h-6a1 1 0 0 1 0-2zm32 0h6a1 1 0 0 1 0 2h-6a1 1 0 0 1 0-2zm-16 0h6a1 1 0 0 1 0 2h-6a1 1 0 0 1 0-2zm-6 0h2a1 1 0 0 1 0 2h-2a1 1 0 0 1 0-2zm16 0h2a1 1 0 0 1 0 2h-2a1 1 0 0 1 0-2zm-1-42h6a1 1 0 0 1 0 2h-6a1 1 0 0 1 0-2zm-18 0h6a1 1 0 0 1 0 2h-6a1 1 0 0 1 0-2zm-7 0h2a1 1 0 0 1 0 2h-2a1 1 0 0 1 0-2zm18 0h2a1 1 0 0 1 0 2h-2a1 1 0 0 1 0-2zm18 0h2a1 1 0 0 1 0 2h-2a1 1 0 0 1 0-2zM38 47h6a1 1 0 0 1 0 2h-6a1 1 0 0 1 0-2zm-18 0h6a1 1 0 0 1 0 2h-6a1 1 0 0 1 0-2zm-7 0h2a1 1 0 0 1 0 2h-2a1 1 0 0 1 0-2zm18 0h2a1 1 0 0 1 0 2h-2a1 1 0 0 1 0-2zm18 0h2a1 1 0 0 1 0 2h-2a1 1 0 0 1 0-2zM38 57h6a1 1 0 0 1 0 2h-6a1 1 0 0 1 0-2zm-18 0h6a1 1 0 0 1 0 2h-6a1 1 0 0 1 0-2zm-7 0h2a1 1 0 0 1 0 2h-2a1 1 0 0 1 0-2zm18 0h2a1 1 0 0 1 0 2h-2a1 1 0 0 1 0-2zm18 0h2a1 1 0 0 1 0 2h-2a1 1 0 0 1 0-2z" fill="#3986BD" opacity=".65"/><path fill="#07C" d="M6 20h52v24H6z"/><path d="M30.56 37.08V39H21V25h9.56v1.92h-7.32v3.86h6.06v1.92h-6.06v4.38h7.32zm13.291 0V39h-9.56V25h9.56v1.92h-7.32v3.86h6.06v1.92h-6.06v4.38h7.32z" fill="#FFF"/></g></svg>