<svg height="64" preserveAspectRatio="xMidYMid" width="64" xmlns="http://www.w3.org/2000/svg"><path d="M0 0h64v64H0z" fill="#fff"/><path d="M56 53H40.71c1.147 1.696 3.29 5 3.29 5v1l-1 1H21l-1-1v-1l3.333-5H8a3 3 0 01-3-3V13a3 3 0 013-3h48a3 3 0 013 3v37a3 3 0 01-3 3zm-34 5h20l-4-5H26zm35-45a1 1 0 00-1-1H8a1 1 0 00-1 1v37a1 1 0 001 1h48a1 1 0 001-1zM10 49l-1-1V15l1-1h44l1 1v33l-1 1zm43-33H11v31h42zM40.038 30.52c1.283.64.962 1.423.962 1.423v1.03s.307.895-.92 1.422L27 40h-2V24h2zM27 38l12-5v-1l-12-6z" fill="#23ab5f" fill-rule="evenodd"/></svg>