<svg width="64" height="64" xmlns="http://www.w3.org/2000/svg"><g fill="none" fill-rule="evenodd"><path d="M8 2h48v60H8V2zm50 2h4v56h-4V4zM6 4v56H2V4h4z" fill="#E8F6EA"/><path d="M6 2a2 2 0 012-2h48a2 2 0 012 2h4a2 2 0 012 2v56a2 2 0 01-2 2h-4a2 2 0 01-2 2H8a2 2 0 01-2-2H2a2 2 0 01-2-2V4a2 2 0 012-2h4zm0 2H2v56h4V4zm2-2v60h48V2H8zm50 2v56h4V4h-4z" fill="#39BD4E"/><path d="M4 2h2v60H4V2zm54 0h2v60h-2V2z" fill-opacity=".1" fill="#000"/><path d="M13 5h6a1 1 0 010 2h-6a1 1 0 010-2zm32 0h6a1 1 0 010 2h-6a1 1 0 010-2zM29 5h6a1 1 0 010 2h-6a1 1 0 010-2zm-6 0h2a1 1 0 010 2h-2a1 1 0 010-2zm16 0h2a1 1 0 010 2h-2a1 1 0 010-2zM13 15h6a1 1 0 010 2h-6a1 1 0 010-2zm32 0h6a1 1 0 010 2h-6a1 1 0 010-2zm-16 0h6a1 1 0 010 2h-6a1 1 0 010-2zm-6 0h2a1 1 0 010 2h-2a1 1 0 010-2zm16 0h2a1 1 0 010 2h-2a1 1 0 010-2zM13 52h6a1 1 0 010 2h-6a1 1 0 010-2zm32 0h6a1 1 0 010 2h-6a1 1 0 010-2zm-16 0h6a1 1 0 010 2h-6a1 1 0 010-2zm-6 0h2a1 1 0 010 2h-2a1 1 0 010-2zm16 0h2a1 1 0 010 2h-2a1 1 0 010-2zm-1-42h6a1 1 0 010 2h-6a1 1 0 010-2zm-18 0h6a1 1 0 010 2h-6a1 1 0 010-2zm-7 0h2a1 1 0 010 2h-2a1 1 0 010-2zm18 0h2a1 1 0 010 2h-2a1 1 0 010-2zm18 0h2a1 1 0 010 2h-2a1 1 0 010-2zM38 47h6a1 1 0 010 2h-6a1 1 0 010-2zm-18 0h6a1 1 0 010 2h-6a1 1 0 010-2zm-7 0h2a1 1 0 010 2h-2a1 1 0 010-2zm18 0h2a1 1 0 010 2h-2a1 1 0 010-2zm18 0h2a1 1 0 010 2h-2a1 1 0 010-2zM38 57h6a1 1 0 010 2h-6a1 1 0 010-2zm-18 0h6a1 1 0 010 2h-6a1 1 0 010-2zm-7 0h2a1 1 0 010 2h-2a1 1 0 010-2zm18 0h2a1 1 0 010 2h-2a1 1 0 010-2zm18 0h2a1 1 0 010 2h-2a1 1 0 010-2z" fill="#39BD4E" opacity=".65"/><path fill="#39BD4E" d="M6 20h52v24H6z"/><path d="M31.012 34.18c-.101 2.78-.424 3.56-1.212 4.26-.465.42-.97.56-2.304.56h-3.92c-1.333 0-1.838-.14-2.303-.56C20.485 37.74 20 36.72 20 32c0-4.72.485-5.74 1.273-6.44.465-.42.97-.56 2.303-.56h3.92c1.334 0 1.839.14 2.304.56.788.7 1.151 1.62 1.192 4.04h-2.263c-.06-1.76-.243-2.26-.465-2.46-.162-.14-.323-.22-1.01-.22h-3.435c-.687 0-.849.08-1.01.22-.223.2-.506.82-.506 4.86s.283 4.66.506 4.86c.161.14.323.22 1.01.22h3.435c.687.02.848-.08 1.01-.22.222-.2.404-.6.465-2.68h2.283zm13.488 2.9V39h-9.658V25H44.5v1.92h-7.395v3.86h6.122v1.92h-6.122v4.38H44.5z" fill="#FFF"/></g></svg>