<svg xmlns="http://www.w3.org/2000/svg" preserveAspectRatio="xMidYMid" width="64" height="64"><g fill-rule="evenodd"><path d="M7 6V2h6v4h7V2h6v4h12V2h6v4h7V2h6v4h5v56H2V6h5z" fill="#e8f6ea"/><path d="M33 62v-2h29v2H33zm0-30h29v2H33v-2zM2 60h29v2H2v-2zm0-28h29v2H2v-2z" fill="#bde7c4"/><path d="M64 38v22c0 2.21-1.79 4-4 4H35a3.969 3.969 0 01-3-1.38A3.969 3.969 0 0129 64H4c-2.21 0-4-1.79-4-4V38c0-1.202.54-2.267 1.38-3A3.969 3.969 0 010 32V8c0-2.21 1.79-4 4-4h1V1l1-1h8l1 1v3h3V1l1-1h8l1 1v3h1c1.202 0 2.267.54 3 1.38A3.969 3.969 0 0135 4h1V1l1-1h8l1 1v3h3V1l1-1h8l1 1v3h1c2.21 0 4 1.79 4 4v24c0 1.202-.54 2.267-1.38 3A3.969 3.969 0 0164 38zm-32-2.62c.118-.136.26-.25.394-.368a3.89 3.89 0 01-.406-.406c-.123.14-.24.284-.382.406.135.12.276.232.394.368zM2 60a2 2 0 002 2h25a2 2 0 002-2V38a2 2 0 00-2-2H4a2 2 0 00-2 2v22zM29 6h-3V2h-6v4h-7V2H7v4H4a2 2 0 00-2 2v24a2 2 0 002 2h25a2 2 0 002-2V8a2 2 0 00-2-2zm33 26V8a2 2 0 00-2-2h-3V2h-6v4h-7V2h-6v4h-3a2 2 0 00-2 2v24a2 2 0 002 2h25a2 2 0 002-2zm-5 4H35a2 2 0 00-2 2v22a2 2 0 002 2h25a2 2 0 002-2V38a2 2 0 00-2-2h-3z" fill="#39bd4e"/></g></svg>