<svg width="41" height="51" xmlns="http://www.w3.org/2000/svg"><g fill="none" fill-rule="evenodd"><path stroke="#17A956" d="M19 40.394l-6.718-.142L1 28.655l.14-16.259L12.621 1l16.097.142L40 12.739l-.14 16.259L19 51z"/><path stroke="#1192FF" d="M3.104 23.214l1.834.121 6.92 6.494V32.6l3.208 3.011h1.48v-5.315l1.727-1.328v-4.126l-1.889-1.847h-3.073l-1.909-1.82H7.455v-1.38l.869-.828h1.77L14.402 14l4.433-5V6h-8.199"/><path stroke="#0070CE" d="M29 6l-3.27 3.29h-1.34v1.275h-1.664v2.087l.914.721h.786l2.106-1.661h1.754l2.313 1.661v1.785h-6.476L21 18.394v2.48l1.894 1.962 1.04 1.078h3.934v7.302l1.265 1.31h3.104v-2.384l2.01-2.119v-3.74l2.53-2.529"/></g></svg>