<svg height="64" preserveAspectRatio="xMidYMid" width="64" xmlns="http://www.w3.org/2000/svg"><g fill-rule="evenodd"><path d="M18 62V2h44v60zM2 2h14v60H2z" fill="#e8f6ea"/><path d="M18 62v-2h44v2zM2 62v-2h12V2h2v60z" fill="#bee6c5"/><g fill="#39bd4e"><path d="M62 64H2a2 2 0 01-2-2V2a2 2 0 012-2h60a2 2 0 012 2v60a2 2 0 01-2 2zM2 2v60h14V2zm60 0H18v60h44z"/><path d="M50 54v-2h4v2zm0-14h4v2h-4zm0-12h4v2h-4zm0-12h4v2h-4zm-4-6h6v2h-6zm-8 0h4v2h-4zm8 8H34v-2h12zm-20-8h8v2h-8zM10 52h4v2h-4zm0-6h4v2h-4zm0-6h4v2h-4zm0-6h4v2h-4zm0-6h4v2h-4zm0-6h4v2h-4zm0-6h4v2h-4zm0-6h4v2h-4zm20 8h-4v-2h4zm4 6h-8v-2h8zm-4 6h-4v-2h4zm4 6h-8v-2h8zm-4 6h-4v-2h4zm4 6h-8v-2h8zm-4 6h-4v-2h4zm16-8h6v2h-6zm6-10h-6v-2h6zm0-12h-6v-2h6zM42 34v2h-4v-2zm-4 14v-2h4v2zm-4-8h12v2H34zm8-18v2h-4v-2zm4 8H34v-2h12zm0 24H34v-2h12z"/></g></g></svg>