<svg height="64" preserveAspectRatio="xMidYMid" width="64" xmlns="http://www.w3.org/2000/svg"><path d="M2 2h60v8H2z" fill="#fff"/><path d="M2 10h60v52H2z" fill="#e8f6ea"/><g fill-rule="evenodd"><path d="M2 60h60a2 2 0 01-2 2H4a2 2 0 01-2-2z" fill="#bfe5c6"/><path d="M60 64H4a4 4 0 01-4-4V4a4 4 0 014-4h56a4 4 0 014 4v56a4 4 0 01-4 4zm2-60a2 2 0 00-2-2H4a2 2 0 00-2 2v6h60zm0 8H2v48a2 2 0 002 2h56a2 2 0 002-2zM45 50h-8a1 1 0 010-2h8a1 1 0 010 2zm-8-8h2a1 1 0 010 2h-2a1 1 0 010-2zm8-10h-8a1 1 0 010-2h8a1 1 0 010 2zM35 20H23a1 1 0 010-2h12a1 1 0 010 2zm-9 5a1 1 0 01-1 1h-6a1 1 0 010-2h6a1 1 0 011 1zm-9-5H9a1 1 0 010-2h8a1 1 0 010 2zm-8 4h4a1 1 0 010 2H9a1 1 0 010-2zm0 6h12a1 1 0 010 2H9a1 1 0 010-2zm0 6h6a1 1 0 010 2H9a1 1 0 010-2zm0 6h10a1 1 0 010 2H9a1 1 0 010-2zm0 6h12a1 1 0 010 2H9a1 1 0 010-2zm16-10h-4a1 1 0 010-2h4a1 1 0 010 2zm2-8h4a1 1 0 010 2h-4a1 1 0 010-2zm-2 12h6a1 1 0 010 2h-6a1 1 0 010-2zm2 6h4a1 1 0 010 2h-4a1 1 0 010-2zM50 5a1 1 0 110 2 1 1 0 010-2zm4 0a1 1 0 110 2 1 1 0 010-2zm4 0a1 1 0 110 2 1 1 0 010-2z" fill="#40bb53"/></g></svg>