<svg xmlns="http://www.w3.org/2000/svg" preserveAspectRatio="xMidYMid" width="16" height="13" viewBox="0 0 16 13"><defs><style>.cls-2{fill:#006ec2}</style></defs><path d="M16 9a4 4 0 0 1-4 4H4v-.05c-2.247-.252-4-2.136-4-4.45 0-2.017 1.335-3.703 3.163-4.275C3.741 1.805 5.903 0 8.5 0A5.5 5.5 0 0 1 14 5.5c0 .018-.005.034-.005.052C15.188 6.244 16 7.521 16 9zm-4-2c-.127 0-.25.015-.37.037A3.47 3.47 0 0 0 12 5.5a3.5 3.5 0 1 0-7 0c0 .194.027.382.057.567A2.497 2.497 0 0 0 4.5 6a2.5 2.5 0 0 0-.5 4.95V11h8a2 2 0 1 0 0-4z" id="path-1" class="cls-2" fill-rule="evenodd"/></svg>