<svg height="64" width="64" xmlns="http://www.w3.org/2000/svg"><g fill="none" fill-rule="evenodd"><path d="M8 2h48v60H8zm50 2h4v56h-4zM6 4v56H2V4z" fill="#e6eff5"/><path d="M6 2a2 2 0 012-2h48a2 2 0 012 2h4a2 2 0 012 2v56a2 2 0 01-2 2h-4a2 2 0 01-2 2H8a2 2 0 01-2-2H2a2 2 0 01-2-2V4a2 2 0 012-2zm0 2H2v56h4zm2-2v60h48V2zm50 2v56h4V4z" fill="#07c"/><path d="M4 2h2v60H4zm54 0h2v60h-2z" fill="#000" fill-opacity=".1"/><path d="M13 5h6a1 1 0 010 2h-6a1 1 0 010-2zm32 0h6a1 1 0 010 2h-6a1 1 0 010-2zM29 5h6a1 1 0 010 2h-6a1 1 0 010-2zm-6 0h2a1 1 0 010 2h-2a1 1 0 010-2zm16 0h2a1 1 0 010 2h-2a1 1 0 010-2zM13 15h6a1 1 0 010 2h-6a1 1 0 010-2zm32 0h6a1 1 0 010 2h-6a1 1 0 010-2zm-16 0h6a1 1 0 010 2h-6a1 1 0 010-2zm-6 0h2a1 1 0 010 2h-2a1 1 0 010-2zm16 0h2a1 1 0 010 2h-2a1 1 0 010-2zM13 52h6a1 1 0 010 2h-6a1 1 0 010-2zm32 0h6a1 1 0 010 2h-6a1 1 0 010-2zm-16 0h6a1 1 0 010 2h-6a1 1 0 010-2zm-6 0h2a1 1 0 010 2h-2a1 1 0 010-2zm16 0h2a1 1 0 010 2h-2a1 1 0 010-2zm-1-42h6a1 1 0 010 2h-6a1 1 0 010-2zm-18 0h6a1 1 0 010 2h-6a1 1 0 010-2zm-7 0h2a1 1 0 010 2h-2a1 1 0 010-2zm18 0h2a1 1 0 010 2h-2a1 1 0 010-2zm18 0h2a1 1 0 010 2h-2a1 1 0 010-2zM38 47h6a1 1 0 010 2h-6a1 1 0 010-2zm-18 0h6a1 1 0 010 2h-6a1 1 0 010-2zm-7 0h2a1 1 0 010 2h-2a1 1 0 010-2zm18 0h2a1 1 0 010 2h-2a1 1 0 010-2zm18 0h2a1 1 0 010 2h-2a1 1 0 010-2zM38 57h6a1 1 0 010 2h-6a1 1 0 010-2zm-18 0h6a1 1 0 010 2h-6a1 1 0 010-2zm-7 0h2a1 1 0 010 2h-2a1 1 0 010-2zm18 0h2a1 1 0 010 2h-2a1 1 0 010-2zm18 0h2a1 1 0 010 2h-2a1 1 0 010-2z" fill="#3986bd" opacity=".65"/><path d="M6 20h52v24H6z" fill="#07c"/><path d="M30.56 37.08V39H21V25h9.56v1.92h-7.32v3.86h6.06v1.92h-6.06v4.38zm13.291 0V39h-9.56V25h9.56v1.92h-7.32v3.86h6.06v1.92h-6.06v4.38z" fill="#fff"/></g></svg>