<svg height="32" width="32" xmlns="http://www.w3.org/2000/svg"><g fill="none" fill-rule="evenodd"><path d="M15.615 23.848l-3.961-.082L5 17.04l.083-9.43L11.854 1l9.492.082L28 7.809l-.083 9.43L15.615 30z" stroke="#17a956"/><path d="M6 13.883l1.049.069 3.959 3.728v1.591L12.843 21h.847v-3.052l.988-.762v-2.369l-1.08-1.06h-1.759l-1.092-1.045H8.489v-.792l.497-.476h1.013l2.465-2.851L15 5.722V4h-4.691" stroke="#1192ff"/><path d="M21.564 4l-1.866 1.86h-.763v.721h-.95v1.181l.522.407h.448l1.201-.939h1.001l1.319.939v1.01h-3.694L17 11.008v1.403l1.08 1.11.594.609h2.244v4.129l.722.741h1.77v-1.348l1.147-1.198v-2.115L26 12.909" stroke="#0070ce"/></g></svg>