<svg height="64" preserveAspectRatio="xMidYMid" width="64" xmlns="http://www.w3.org/2000/svg"><g fill-rule="evenodd"><path d="M49 29c-7.732 0-14-6.268-14-14S41.268 1 49 1s14 6.268 14 14-6.268 14-14 14zM30 47h4v4h-4zm0-34h4v4h-4zM15 63C7.268 63 1 56.732 1 49s6.268-14 14-14 14 6.268 14 14-6.268 14-14 14zm2-29h-4v-4h4zm-2-5C7.268 29 1 22.732 1 15S7.268 1 15 1s14 6.268 14 14-6.268 14-14 14zm32 1h4v4h-4zm2 5c7.732 0 14 6.268 14 14s-6.268 14-14 14-14-6.268-14-14 6.268-14 14-14z" fill="#e8f6ea"/><path d="M53 29.444v5.112C59.34 36.31 64 42.103 64 49c0 8.284-6.716 15-15 15-6.897 0-12.692-4.66-14.444-11h-5.112C27.692 59.34 21.897 64 15 64 6.716 64 0 57.284 0 49c0-6.897 4.66-12.69 11-14.444v-5.112C4.66 27.69 0 21.897 0 15 0 6.716 6.716 0 15 0c6.897 0 12.692 4.66 14.444 11h5.112C36.308 4.66 42.103 0 49 0c8.284 0 15 6.716 15 15 0 6.897-4.66 12.69-11 14.444zM49 62c7.18 0 13-5.82 13-13s-5.82-13-13-13-13 5.82-13 13 5.82 13 13 13zm2-27.85v-4.3c-.656.09-1.32.15-2 .15s-1.344-.06-2-.15v4.3c.656-.09 1.32-.15 2-.15s1.344.06 2 .15zM34.15 51c-.09-.656-.15-1.32-.15-2s.058-1.345.145-2h-4.29c.087.655.145 1.32.145 2s-.06 1.344-.15 2zm-4.7-6h5.1A15.02 15.02 0 0145 34.556v-5.112A15.019 15.019 0 0134.55 19h-5.1A15.02 15.02 0 0119 29.444v5.112A15.019 15.019 0 0129.45 45zM2 49c0 7.18 5.82 13 13 13s13-5.82 13-13-5.82-13-13-13S2 41.82 2 49zm15-14.85v-4.3c-.656.09-1.32.15-2 .15s-1.344-.06-2-.15v4.3c.656-.09 1.32-.15 2-.15s1.344.06 2 .15zM15 2C7.82 2 2 7.82 2 15s5.82 13 13 13 13-5.82 13-13S22.18 2 15 2zm14.85 11c.09.656.15 1.32.15 2s-.058 1.345-.145 2h4.29c-.087-.655-.145-1.32-.145-2s.06-1.344.15-2zM49 2c-7.18 0-13 5.82-13 13s5.82 13 13 13 13-5.82 13-13S56.18 2 49 2z" fill="#39bd4e"/><path d="M49 28c-6.144 0-11.27-4.27-12.625-10h2.047c1.305 4.616 5.544 8 10.578 8s9.273-3.384 10.578-8h2.047C60.27 23.73 55.145 28 49 28zM30 49h4v2h-4zm0-34h4v2h-4zM15 62C8.856 62 3.73 57.73 2.375 52h2.047C5.727 56.616 9.966 60 15 60s9.273-3.384 10.578-8h2.047C26.27 57.73 21.145 62 15 62zm2-28h-4v-2h4zm-2-6C8.856 28 3.73 23.73 2.375 18h2.047C5.727 22.616 9.966 26 15 26s9.273-3.384 10.578-8h2.047C26.27 23.73 21.145 28 15 28zm32 4h4v2h-4zm2 28c5.034 0 9.273-3.384 10.578-8h2.047C60.27 57.73 55.145 62 49 62c-6.144 0-11.27-4.27-12.625-10h2.047c1.305 4.616 5.544 8 10.578 8z" fill="#bee6c5"/><path d="M49.5 4c-4.984 0-9.18 3.384-10.474 8H37c1.34-5.73 6.417-10 12.5-10S60.66 6.27 62 12h-2.026C58.68 7.384 54.484 4 49.5 4zm-35 34c-4.984 0-9.18 3.384-10.474 8H2c1.34-5.73 6.417-10 12.5-10S25.66 40.27 27 46h-2.026c-1.293-4.616-5.49-8-10.474-8zm0-34C9.516 4 5.32 7.384 4.026 12H2C3.34 6.27 8.417 2 14.5 2S25.66 6.27 27 12h-2.026C23.68 7.384 19.484 4 14.5 4zm35 32c6.083 0 11.16 4.27 12.5 10h-2.026c-1.293-4.616-5.49-8-10.474-8s-9.18 3.384-10.474 8H37c1.34-5.73 6.417-10 12.5-10z" fill="#fff"/></g></svg>