<svg width="32" height="32" xmlns="http://www.w3.org/2000/svg"><path d="M22 12v20h-2v-2h-8v2h-2V5a1 1 0 0 1 1-1h4V1a1 1 0 0 1 2 0v3h4a1 1 0 0 1 1 1v7zm2 0h7a1 1 0 0 1 1 1v19h-2V14h-6v-2zM8 16v2H2v14H0V17a1 1 0 0 1 1-1h7zm12 12v-2h-8v2h8zm0-4v-2h-8v2h8zm0-4v-2h-8v2h8zm0-4v-2h-8v2h8zm0-4v-2h-8v2h8zm0-4V6h-8v2h8zM4 20h4v2H4v-2zm0 4h4v2H4v-2zm0 4h4v2H4v-2zm22-8a2 2 0 1 1 0-4 2 2 0 0 1 0 4zm0 10a2 2 0 1 1 0-4 2 2 0 0 1 0 4zm-1-8h2a1 1 0 0 1 0 2h-2a1 1 0 0 1 0-2z" fill="#7CC9FF" fill-rule="evenodd"/></svg>