<svg xmlns="http://www.w3.org/2000/svg" preserveAspectRatio="xMidYMid" width="36" height="36" viewBox="0 0 36 36"><defs><style>.cls-3{fill:#e9eaeb}.cls-4{fill:#d3d6d7}</style></defs><g id="icn-lifesaversvg"><path d="M23.243 8.515l4.242-5.071 6.071 6.071-6.071 3.242-4.242-4.242zM2.444 26.485l7.071-4.242 4.242 4.242-4.242 7.071-7.071-7.071zm0-16.97l7.071-7.071 4.242 7.071-4.242 4.242-7.071-4.242zm31.112 16.97l-7.071 7.071-3.242-6.071 4.242-4.242 6.071 3.242z" id="path-1" class="cls-3" fill-rule="evenodd"/><path d="M18 36C8.059 36 0 27.941 0 18S8.059 0 18 0s18 8.059 18 18-8.059 18-18 18zm0-34C9.163 2 2 9.164 2 18s7.163 16 16 16 16-7.164 16-16S26.837 2 18 2zm0 27c-6.075 0-11-4.925-11-11S11.925 7 18 7s11 4.925 11 11-4.925 11-11 11zm0-20a9 9 0 1 0 0 18 9 9 0 0 0 0-18z" id="path-2" class="cls-4" fill-rule="evenodd"/></g></svg>