<svg xmlns="http://www.w3.org/2000/svg" width="24" height="20"><path fill="#0070bf" fill-rule="evenodd" d="M17 0a3 3 0 012.93 2.355L23 12l.06.08A5 5 0 1114 15v-3l-.005-.15A2.001 2.001 0 0010 12v3a5 5 0 11-9.06-2.92L1 12l3.07-9.645a3 3 0 015.925.469L10 3v2.535A3.98 3.98 0 0112 5c.729 0 1.412.195 2 .535V3l.005-.176A3 3 0 0117 0zM5 12a3 3 0 100 6 3 3 0 000-6zm14 0a3 3 0 100 6 3 3 0 000-6zM6.85 2c-.635 0-1.15.448-1.15 1h-.024l-2.08 7 .005-.003-.065.22A5.083 5.083 0 015 10c1.126 0 2.165.372 3.001 1V9H8l.001-.03V5.829L8 3c0-.552-.515-1-1.15-1zm10.3 0C16.515 2 16 2.448 16 3l-.001 6v2c.836-.628 1.875-1 3.001-1 .51 0 1.001.076 1.464.218l-.065-.221.006.003-2.081-7H18.3c0-.552-.515-1-1.15-1zM12 7c-.932 0-1.715.637-1.936 1.5.573-.32 1.234-.5 1.936-.5s1.363.181 1.937.5A2 2 0 0012 7z"/></svg>