<svg xmlns="http://www.w3.org/2000/svg" width="50" height="42"><g fill="none" fill-rule="evenodd" stroke-width="2"><path stroke="#004B80" d="M9.792 18v8.968c0 .212.09.412.246.543 4.17 3.54 9.41 5.489 14.754 5.489 3.603 0 7.16-.888 10.373-2.55l1.314-.736a23.413 23.413 0 003.066-2.203.709.709 0 00.247-.543V18"/><path stroke="#C2D6FF" d="M1.792 11l23.149 9 23.851-9"/><path stroke="#004B80" d="M1.792 10.516L24.941 2l23.851 8.516v4.258L24.941 24 1.792 14.774z"/><path stroke="#3A8FE6" d="M26.792 10l10 4.911V36"/><path fill="#FFF" fill-rule="nonzero" stroke="#3A8FE6" d="M37.292 41a2.5 2.5 0 10-.002-5.002A2.5 2.5 0 0037.292 41z"/></g></svg>