<svg xmlns="http://www.w3.org/2000/svg" width="26" height="32"><path fill="#0070bf" fill-rule="evenodd" d="M16 0a2 2 0 012 2v2a2 2 0 01-2 2v.348C21.735 7.703 26 12.853 26 19c0 7.18-5.82 13-13 13S0 26.18 0 19C0 12.853 4.267 7.702 10 6.348V6a2 2 0 01-2-2V2a2 2 0 012-2h6zm-3 8C6.925 8 2 12.925 2 19s4.925 11 11 11 11-4.925 11-11S19.075 8 13 8zm6.536 4.464c.39.391.39 1.024 0 1.415l-5.657 5.657c-.39.39-1.024.39-1.415 0a1.002 1.002 0 010-1.415l5.657-5.657c.39-.39 1.024-.39 1.415 0zM13 6c.337 0 .67.013 1 .038V4h1a1 1 0 000-2h-4a1 1 0 00-.117 1.993L11 4h1v2.038c.33-.025.664-.038 1-.038z"/></svg>