<svg xmlns="http://www.w3.org/2000/svg" width="26" height="24"><g fill="none" fill-rule="evenodd" transform="translate(1 1)"><path fill="#FFF" fill-rule="nonzero" stroke="#0070bf" stroke-width="2" d="M12 4a2 2 0 10.001-3.999A2 2 0 0012 4z"/><path fill="#0070bf" d="M11 4h2v16h-2z"/><path fill="#0070bf" d="M6 7h12v2H6zm-4 6h20v2H2zm4 6h12v2H6z"/><circle cx="1.5" cy="13.75" r="1.5" fill="#FFF" fill-rule="nonzero" stroke="#0070bf" stroke-width="2"/><circle cx="22.5" cy="13.75" r="1.5" fill="#FFF" fill-rule="nonzero" stroke="#0070bf" stroke-width="2"/><path fill="#FFF" fill-rule="nonzero" stroke="#0070bf" stroke-width="2" d="M5.25 9.25a1.5 1.5 0 10-.001-3.001A1.5 1.5 0 005.25 9.25zm13.5 0a1.5 1.5 0 10-.001-3.001 1.5 1.5 0 00.001 3.001zm-13.5 12a1.5 1.5 0 10-.001-3.001 1.5 1.5 0 00.001 3.001zm13.5 0a1.5 1.5 0 10-.001-3.001 1.5 1.5 0 00.001 3.001z"/></g></svg>