<svg xmlns="http://www.w3.org/2000/svg" width="38" height="37" viewBox="0 0 50 49"><g fill="none" fill-rule="evenodd" stroke-width="2"><path stroke="#1155CB" d="M12.897 4.5l5.777 9.149m-5.136 4.889L4 13.09m42 22.037L36.907 30.5m-5.635 5.363l4.856 8.636"/><path stroke="#004B80" d="M37.103 4.5l-5.777 9.149m5.136 4.889L46 13.09M4 35.127l9.093-4.626m5.635 5.363L13.872 44.5"/><g stroke="#3A8FE6"><path d="M49 24.44c0 12.669-10.745 22.938-24 22.938S1 37.108 1 24.44C1 11.77 11.745 1.5 25 1.5s24 10.27 24 22.94z"/><path d="M38.274 24.44c0 7.006-5.943 12.686-13.274 12.686-7.33 0-13.274-5.68-13.274-12.687 0-7.006 5.943-12.687 13.274-12.687 7.33 0 13.274 5.68 13.274 12.687z"/></g></g></svg>