<svg xmlns="http://www.w3.org/2000/svg" preserveAspectRatio="xMidYMid" width="32" height="32" viewBox="0 0 32 32"><defs><style>.cls-2{fill:#9daab3}</style></defs><path d="M30.257 23.235C31.316 24.152 32 25.49 32 27a5 5 0 0 1-5 5c-1.51 0-2.848-.684-3.765-1.743A15.91 15.91 0 0 1 16 32a15.91 15.91 0 0 1-7.235-1.743C7.848 31.316 6.51 32 5 32a5 5 0 0 1-5-5c0-1.51.684-2.848 1.743-3.765A15.91 15.91 0 0 1 0 16c0-2.607.637-5.06 1.743-7.235C.684 7.848 0 6.51 0 5a5 5 0 0 1 5-5c1.51 0 2.848.684 3.765 1.743A15.91 15.91 0 0 1 16 0c2.605 0 5.04.663 7.212 1.77C24.129.696 25.477 0 27 0a5 5 0 0 1 5 5c0 1.523-.696 2.871-1.77 3.788C31.337 10.96 32 13.395 32 16c0 2.607-.637 5.06-1.743 7.235zM5 30a3 3 0 1 0 0-6 3 3 0 0 0 0 6zM5 2a3 3 0 1 0 0 6 3 3 0 0 0 0-6zm22 0a3 3 0 1 0 0 6 3 3 0 0 0 0-6zm1.482 7.751A4.945 4.945 0 0 1 27 10a5 5 0 0 1-5-5c0-.52.102-1.011.249-1.482C20.364 2.568 18.255 2 16 2a13.92 13.92 0 0 0-6.258 1.49c.153.479.258.98.258 1.51a5 5 0 0 1-5 5c-.53 0-1.031-.105-1.51-.258A13.92 13.92 0 0 0 2 16c0 2.252.545 4.373 1.49 6.258C3.969 22.105 4.47 22 5 22a5 5 0 0 1 5 5c0 .53-.105 1.031-.258 1.51A13.92 13.92 0 0 0 16 30a13.92 13.92 0 0 0 6.258-1.49A4.936 4.936 0 0 1 22 27a5 5 0 0 1 5-5c.53 0 1.031.105 1.51.258A13.92 13.92 0 0 0 30 16c0-2.255-.568-4.364-1.518-6.249zM27 24a3 3 0 1 0 0 6 3 3 0 0 0 0-6z" id="path-1" class="cls-2" fill-rule="evenodd"/></svg>