<svg width="16" height="16" xmlns="http://www.w3.org/2000/svg"><path d="M16 2c0-1-1-2-2-2H2S0 0 0 2v12c0 .435 0 2 2 2h12c1 0 2-1 2-2V2zM2 3h12v10H2V3zm6.496 1.706c-.53.558-.945 2.656-1.068 3.582-.198-.189-.425-.652-.548-.907-.151-.293-.312-.624-.473-.917-.132-.255-.311-.623-.434-.68-.227-.095-1.106-.038-1.37.208-.105 1.058-.17 4.234.292 4.857.473.114 1.087-.066 1.314-.198.028-.473-.047-.973-.095-1.436.34.604.936 1.388 1.144 1.625.217.028 1.418-.019 1.521-.151.17-.737.086-2.051.208-3.327.199.274.86 3.232 1.295 3.97.312-.066 1.002-.199 1.2-.256-.132-.406-1.285-5.623-1.672-6.275a3.275 3.275 0 00-1.314-.095z" fill-rule="evenodd"/></svg>