<svg xmlns="http://www.w3.org/2000/svg" preserveAspectRatio="xMidYMid" width="440" height="81" viewBox="0 0 440 81"><defs><style>.cls-2{opacity:.2}.cls-3{fill:#6f8493}.cls-4{fill:#345469;opacity:.5}</style></defs><g id="enterprise-footersvg" class="cls-2" fill-rule="evenodd"><path d="M438 81V46h-74v35h-2V46a2 2 0 0 1 2-2h74a2 2 0 0 1 2 2v35h-2zM340 2H234v79h-2V2a2 2 0 0 1 2-2h106a2 2 0 0 1 2 2v79h-2V2zM196 57h-64v24h-2V57a2 2 0 0 1 2-2h8V37a2 2 0 0 1 2-2h22V10a1 1 0 0 1 2 0v25h20a2 2 0 0 1 2 2v18h8a2 2 0 0 1 2 2v24h-2V57zm-10-20h-44v18h44V37zM70 57H2v24H0V47a2 2 0 0 1 2-2h68a2 2 0 0 1 2 2v34h-2V57zm0-10H2v8h68v-8z" id="path-1" class="cls-3"/><path d="M405 76v-2h25v2h-25zm0-12h25v2h-25v-2zm0-10h25v2h-25v-2zm-33 20h25v2h-25v-2zm0-10h25v2h-25v-2zm0-10h25v2h-25v-2zm-46 22v-6h2v4h4v2h-6zm0-14v-6h2v4h4v2h-6zm0-12v-6h2v4h4v2h-6zm0-12v-6h2v4h4v2h-6zm0-14V10h2v12h4v2h-6zm-14 52v-6h2v4h4v2h-6zm0-14v-6h2v4h4v2h-6zm0-12v-6h2v4h4v2h-6zm0-12v-6h2v4h4v2h-6zm0-14V10h2v12h4v2h-6zm-14 52v-6h2v4h4v2h-6zm0-14v-6h2v4h4v2h-6zm0-12v-6h2v4h4v2h-6zm0-12v-6h2v4h4v2h-6zm0-14V10h2v12h4v2h-6zm-14 52v-6h2v4h4v2h-6zm0-14v-6h2v4h4v2h-6zm0-12v-6h2v4h4v2h-6zm0-12v-6h2v4h4v2h-6zm0-14V10h2v12h4v2h-6zm-14 52v-6h2v4h4v2h-6zm0-14v-6h2v4h4v2h-6zm0-12v-6h2v4h4v2h-6zm0-12v-6h2v4h4v2h-6zm0-14V10h2v12h4v2h-6zm-14 52v-6h2v4h4v2h-6zm0-14v-6h2v4h4v2h-6zm0-12v-6h2v4h4v2h-6zm0-12v-6h2v4h4v2h-6zm0-14V10h2v12h4v2h-6zm-14 52v-6h2v4h4v2h-6zm0-14v-6h2v4h4v2h-6zm0-12v-6h2v4h4v2h-6zm0-12v-6h2v4h4v2h-6zm0-14V10h2v12h4v2h-6zm-56 42a1 1 0 0 1 2 0v15h-2V66zm-9 0a1 1 0 0 1 2 0v15h-2V66zm-9 0a1 1 0 0 1 2 0v15h-2V66zm-9 0a1 1 0 0 1 2 0v15h-2V66zm-9 0a1 1 0 0 1 2 0v15h-2V66zm-9 0a1 1 0 0 1 2 0v15h-2V66zM61 77a1 1 0 1 1 0-2 1 1 0 0 1 0 2zm0-10H51a1 1 0 0 1 0-2h10a1 1 0 0 1 0 2zm-20 0H31a1 1 0 0 1 0-2h10a1 1 0 0 1 0 2zm-20 0H11a1 1 0 0 1 0-2h10a1 1 0 0 1 0 2zm-10 8a1 1 0 1 1 0 2 1 1 0 0 1 0-2zm10 0h10a1 1 0 0 1 0 2H21a1 1 0 0 1 0-2zm20 0h10a1 1 0 0 1 0 2H41a1 1 0 0 1 0-2z" id="path-2" class="cls-4"/></g></svg>