<svg viewBox="0 0 31 31" xmlns="http://www.w3.org/2000/svg"><g transform="translate(1)"><path d="M2.7 19.1h23.5V18H2.7z" fill="#004b80"/><ellipse cx="1.4" cy="18.5" fill="#fff" rx="1.4" ry="1.6" stroke="#1155cb"/><ellipse cx="26.6" cy="18.5" fill="#fff" rx="1.4" ry="1.6" stroke="#1155cb"/><path d="M13.5 6.3v21.3h.9V6.3z" fill="#1155cb"/><path d="M7.2 11.6h14.5v-1.1H7.2z" fill="#c8a977"/><g fill="#fff"><path d="M5.9 12.7c.7 0 1.4-.7 1.4-1.6s-.6-1.6-1.4-1.6-1.4.7-1.4 1.6.6 1.6 1.4 1.6zm16.2 0c.7 0 1.4-.7 1.4-1.6s-.6-1.6-1.4-1.6-1.4.7-1.4 1.6c.1.9.7 1.6 1.4 1.6z" stroke="#004b80"/><path d="M12.2 1.5h3.6v4.3h-3.6z" stroke="#c8a977"/></g><path d="M7.2 27.6h14.5v-1.1H7.2z" fill="#c8a977"/><path d="M5.9 28.7c.7 0 1.4-.7 1.4-1.6s-.6-1.6-1.4-1.6-1.4.7-1.4 1.6c0 .8.6 1.6 1.4 1.6zm16.2 0c.7 0 1.4-.7 1.4-1.6s-.6-1.6-1.4-1.6-1.4.7-1.4 1.6c.1.8.7 1.6 1.4 1.6z" fill="#fff" stroke="#004b80"/></g></svg>