<svg width="31" height="31" xmlns="http://www.w3.org/2000/svg"><g fill="none" fill-rule="evenodd"><path fill="#3A8FE6" d="M15 3h1v25h-1z"/><path fill="#3A8FE6" d="M28 15v1H3v-1z"/><path d="M15.5 30.5a1 1 0 100-2 1 1 0 000 2z" stroke="#1155CB"/><circle stroke="#1155CB" cx="1.5" cy="15.5" r="1"/><path stroke="#C8A977" fill="#FFF" fill-rule="nonzero" d="M13.5 13.5h4v4h-4z"/><circle stroke="#1155CB" cx="29.5" cy="15.5" r="1"/><path d="M15.5 2.5a1 1 0 100-2 1 1 0 000 2z" stroke="#1155CB"/><path d="M6 7.5a1.5 1.5 0 100-3 1.5 1.5 0 000 3zm19 0a1.5 1.5 0 100-3 1.5 1.5 0 000 3zm-19 20a1.5 1.5 0 100-3 1.5 1.5 0 000 3zm19 0a1.5 1.5 0 100-3 1.5 1.5 0 000 3z" stroke="#C8A977"/></g></svg>