<svg width="57" height="54" xmlns="http://www.w3.org/2000/svg"><g fill="none" fill-rule="evenodd"><path d="M55.866 28.311l-55.13-.038" stroke="#088BE8"/><path d="M56.945 24.933l-55.129-.038" stroke="#FC6754"/><path d="M56.945 31.69l-55.129-.038" stroke="#00BC4C"/><path d="M56.945 21.445l-55.129-.038" stroke="#0043BA"/><path d="M40.65 50.837L13.118 3.075" stroke="#088BE8"/><path d="M44.115 50.083L16.583 2.32" stroke="#FC6754"/><path d="M38.264 53.46L10.732 5.7" stroke="#00BC4C"/><path d="M47.136 48.339L19.604.577" stroke="#0043BA"/><path d="M13.534 48.922L41.131 1.198" stroke="#088BE8"/><path d="M15.92 51.546L43.517 3.822" stroke="#FC6754"/><path d="M10.068 48.168L37.666.443" stroke="#00BC4C"/><path d="M18.94 53.29L46.538 5.566" stroke="#0043BA"/><path d="M28.464 42.413l14.463-8.317V17.47L28.464 9.154 14 17.47v16.626l14.464 8.317z" stroke="#004B80" stroke-width="2" fill="#FFF"/><path d="M24.949 30.399h3.49l1.811 2.378-.311.81H25.43l.11-.81-1.062-1.75.47-.628zm2.36-10.3l1.893-.003 8.504 10.346-.66 3.146H33.4l.227-.887-7.946-9.67 1.628-2.932zm3.275-3.928l3.822 3.17-.49.534.663.974v1.042l-1.905 1.64-3.204-3.997h-1.865l.75-1.453 2.23-1.91zm-7.975 9.822l2.766-2.463 3.673 4.526-1.043 1.659h-3.386l-2.343 3.148-.535.725h-3.035v-3.864l2.829-3.73h1.074z" fill="#062F4D"/></g></svg>