<svg height="16" viewBox="0 0 16 16" width="16" xmlns="http://www.w3.org/2000/svg"><g fill="none" fill-rule="evenodd"><path d="M3 6V.99c0-.546.447-.99.999-.99H15a1 1 0 0 1 1 .99V15c0 .552-.456 1-1.002 1H4.002A1 1 0 0 1 3 15zm2 0v8h9V6zm0-4v2h9V2z" fill="#6c6c6c"/><path d="M1.003 16A1.007 1.007 0 0 1 0 14.998V5.002A.996.996 0 0 1 1.003 4H7v12zM2 14h2V6H2z" fill="#6c6c6c"/><g fill-rule="nonzero"><path d="M2 12h5v2H2z" fill="#fff"/><path d="M5 6h2v7H5z" fill="#fff"/><path d="M5 4h9v3H5z" fill="#fff"/><path d="M7 4h5v4H7zm0 5h5v1H7zm0 2h5v1H7z" fill="#6c6c6c"/></g></g></svg>