<svg width="34" height="33" xmlns="http://www.w3.org/2000/svg"><g stroke-width="2" fill="none" fill-rule="evenodd"><path d="M9.114 3l3.82 6.175m-3.396 3.3L3.232 8.798M31 23.673l-6.012-3.123m-3.725 3.62l3.21 5.83m5.845-21.145l-5.89 3.06m-3.79-3.187l4.35-5.043M9.208 29.34l3.509-5.672m-3.885-3.75L3 23.318" stroke="#C2D6FF"/><path d="M33 16.459c0 8.538-7.163 15.459-16 15.459S1 24.998 1 16.459C1 7.921 8.163 1 17 1s16 6.92 16 15.46z" stroke="#0573E3"/><path d="M25.85 16.459c0 4.722-3.963 8.55-8.85 8.55s-8.849-3.828-8.849-8.55c0-4.722 3.962-8.55 8.85-8.55 4.886 0 8.848 3.828 8.848 8.55z" stroke="#004B80"/></g></svg>