<svg id="Layer_1" xmlns="http://www.w3.org/2000/svg" viewBox="0 0 16 16"><style>.st0{fill:#6c6c6c;stroke:#6c6c6c;stroke-width:.75}</style><path class="st0" d="M2.7 4.4c-.1 0-.1 0 0 0L0 7.9c0 .1 0 .2.1.3l2.6 2.2c-.6.1-1 .8-.8 1.4.1.6.8 1 1.4.8.1 0 .2-.1.3-.1.1.4.4.8.9.8h.2c0 .5.4.9.9.9.2 0 .3 0 .5-.1 0 .5.5.9 1 .8.2 0 .4-.1.6-.2.2.2.5.2.8.2s.6-.1.8-.4c.2-.2.3-.4.4-.7-.2.2 0 .2.1.2.5 0 .9-.3 1-.8.1.1.3.1.4.1.5 0 .9-.4 1-.9h.1c.2.1.4.2.6.2.3 0 .6-.1.8-.3s.3-.5.3-.8c0-.4-.2-.7-.5-.9L9.1 7.2c-.1-.1-.2-.1-.3 0 0 0-.3.3-.7.5-.3.2-.5.3-.6.4-.2.1-.3.1-.4.2-.2 0-.3 0-.5-.1s-.3-.2-.4-.4l1.9-2.1c.4-.3.8-.4 1.2-.4 1.5 0 2.4 0 3.8-.4L15.5 8 14 9.2c-.1.1-.2.2-.1.3.1.1.2.2.3.1h.1L16 8.2v-.3l-2.5-3.4c-.1-.1-.1-.1-.2-.1-1.5.5-2.3.4-3.9.4-.5 0-1 .2-1.4.4-.4-.2-.9-.4-1.4-.4-1.6 0-2.4 0-3.9-.4.1 0 0 0 0 0zm.1.5c1.4.4 2.3.4 3.8.4.4 0 .7.1 1 .3L5.8 7.7c-.1.1-.1.2 0 .2.1.3.3.6.7.8.2.1.5.1.7.1s.4-.1.6-.2c.2-.1.4-.3.6-.4.3-.2.5-.4.6-.5l4.2 3.3c.2.1.3.3.4.6 0 .2-.1.4-.2.5-.1.1-.3.2-.4.2-.1 0-.2 0-.3-.1l-.3-.2-.4-.3-1-.8-1.5-1.2c-.1-.1-.2-.1-.3 0-.1.1-.1.3 0 .4l1.5 1.2 1 .8.1.1-.1.1c0 .3-.2.6-.6.6-.1 0-.2 0-.3-.1l-.1-.1-.2-.2c-.2-.2-.5-.4-.7-.6l-1-.8s-.1-.1-.2-.1-.2.1-.2.2 0 .1.1.2l1 .8c.3.2.5.4.7.6.1.1.1.1.2.1 0 .3-.2.6-.6.6-.1 0-.2 0-.3-.1 0 0-1-.7-1.6-1.2 0 0-.1-.1-.2-.1s-.2.1-.2.3c0 .1 0 .1.1.2.4.4 1 .7 1.3 1v.2c0 .2-.1.3-.2.5-.1.1-.3.2-.5.2s-.4 0-.5-.2c0-.1.1-.2.1-.3 0-.5-.4-.9-.9-.9-.2 0-.3 0-.5.1 0-.5-.4-.8-.9-.8h-.2c0-.5-.4-.9-.9-.9h-.2c0-.5-.3-.9-.7-1.1L.5 8l2.3-3.1zm.2 5.9c.4 0 .7.3.7.7s-.3.7-.7.7-.7-.3-.7-.7.3-.7.7-.7zm1.3 1.1c.3 0 .5.2.5.5s-.2.5-.5.5-.5-.2-.5-.5c.1-.3.3-.5.5-.5zm1.2.9c.3 0 .5.2.5.5s-.2.5-.5.5-.5-.2-.5-.5.2-.5.5-.5zm1.4.7c.3 0 .5.2.5.5s-.2.5-.5.5-.5-.3-.5-.5c0-.3.2-.5.5-.5z"/></svg>