<svg height="33" viewBox="0 0 34 33" width="34" xmlns="http://www.w3.org/2000/svg"><g fill="none" fill-rule="evenodd"><path d="M33 16.459c0 8.538-7.163 15.459-16 15.459S1 24.998 1 16.459C1 7.921 8.163 1 17 1s16 6.92 16 15.46z" stroke="#0573e3" stroke-width="2"/><path d="M16.428 19.271c0-.75.09-1.347.273-1.792.182-.445.516-.883 1-1.314.486-.432.808-.783.97-1.053.16-.271.24-.556.24-.857 0-.905-.418-1.358-1.254-1.358-.396 0-.714.122-.952.366-.239.244-.363.58-.374 1.009H14c.01-1.024.342-1.825.993-2.404.65-.579 1.539-.868 2.664-.868 1.136 0 2.018.275 2.645.824.627.55.94 1.325.94 2.327 0 .455-.101.886-.305 1.29-.204.405-.56.853-1.07 1.346l-.65.62c-.407.39-.64.849-.7 1.374l-.032.49zm-.234 2.468c0-.359.122-.655.366-.888.244-.233.556-.35.937-.35.38 0 .692.117.936.35.244.233.366.529.366.888 0 .354-.12.646-.358.876-.238.23-.553.346-.944.346s-.706-.115-.945-.346a1.166 1.166 0 0 1-.358-.876z" fill="#004b80"/></g></svg>