<svg width="30" height="29" xmlns="http://www.w3.org/2000/svg"><g stroke-width="2" fill="none" fill-rule="evenodd"><path stroke="#004B80" d="M1.759 19.06h4.304l4.429 3.792h2.089v-7.264H9.348l-1.243-.804h-.853v-.976l4.008-2.717V4.169H6.063m18.377.206l-5.384 4.476v2.49l1.163.463h4.221-4.429l-2.136 2.08v1.595l2.007 1.955h2.69L24.44 23"/><path d="M28.27 14.13c0 7.252-6.104 13.13-13.635 13.13C7.105 27.26 1 21.382 1 14.13 1 6.878 7.104 1 14.635 1c7.53 0 13.635 5.878 13.635 13.13z" stroke="#0573E3"/></g></svg>