<svg height="29" viewBox="0 0 34 29" width="34" xmlns="http://www.w3.org/2000/svg"><g fill="none" stroke-width="2" transform="translate(1 1)"><path d="M4 17h26" stroke="#3a8fe6"/><circle cx="2" cy="17" fill="#fff" r="2" stroke="#004b80"/><circle cx="30" cy="17" fill="#fff" r="2" stroke="#004b80"/><path d="M9 9h16m-9-5v20" stroke="#3a8fe6"/><path d="M7 11a2 2 0 1 0 0-4 2 2 0 0 0 0 4zm18 0a2 2 0 1 0 0-4 2 2 0 0 0 0 4zm-9-7a2 2 0 1 0 0-4 2 2 0 0 0 0 4z" fill="#fff" stroke="#004b80"/><path d="M9 25h16" stroke="#3a8fe6"/><path d="M7 27a2 2 0 1 0 0-4 2 2 0 0 0 0 4zm18 0a2 2 0 1 0 0-4 2 2 0 0 0 0 4z" fill="#fff" stroke="#004b80"/></g></svg>