<svg width="54" height="62" xmlns="http://www.w3.org/2000/svg"><g fill="none" fill-rule="evenodd"><path d="M27.074 61.298l26.292-15.18V15.76L27.074.58.782 15.76v30.36l26.292 15.179z" stroke="#C2D6FF"/><path d="M27.074 55.216l21.024-12.139V18.8L27.074 6.662 6.05 18.8v24.277l21.024 12.139z" stroke="#C2D6FF"/><path d="M27.227 47.504l14.464-8.317V22.561l-14.464-8.317-14.463 8.317v16.626l14.463 8.317z" stroke="#004B80" stroke-width="2" fill="#FFF"/><path d="M23.922 34.982h3.49l1.81 2.379-.31.81h-4.509l.11-.81-1.062-1.75.47-.63zm2.36-10.3l1.892-.003 8.505 10.346-.661 3.146h-3.645l.227-.886-7.947-9.67 1.629-2.933zm3.275-3.928l3.822 3.171-.49.533.663.974v1.042l-1.905 1.64-3.204-3.997h-1.866l.751-1.453 2.23-1.91zm-7.976 9.822l2.767-2.463 3.672 4.527-1.042 1.658h-3.386l-2.343 3.149-.535.724h-3.035v-3.864l2.829-3.73h1.073z" fill="#062F4D"/></g></svg>