<svg width="53" height="60" xmlns="http://www.w3.org/2000/svg"><g fill="none" fill-rule="evenodd"><path d="M27.255 45.92l14.463-8.316V20.978L27.255 12.66 12.79 20.978v16.626l14.464 8.317z" stroke="#004B80" stroke-width="2" fill="#FFF"/><path d="M23.973 33.788h3.49l1.812 2.379-.312.81h-4.508l.11-.81-1.062-1.75.47-.629zm2.36-10.3l1.893-.003 8.504 10.347-.66 3.145h-3.645l.227-.886-7.947-9.67 1.629-2.933zm3.276-3.927l3.821 3.17-.489.534.663.973v1.042l-1.905 1.64-3.204-3.997h-1.866l.751-1.453 2.229-1.91zm-7.976 9.822L24.4 26.92l3.672 4.526-1.042 1.658h-3.387l-2.342 3.149-.535.724H17.73v-3.863l2.83-3.731h1.073z" fill="#062F4D"/><g stroke-linecap="round"><path stroke="#00BC4C" d="M51.708 31.195V18.156l-10.038-5.98V8.038L28.894.678"/><path d="M51.252 14.017l-6.388-4.14" stroke="#088BE8"/><path stroke="#0043BA" d="M38.932 10.337l-11.864-6.9-11.863 6.9"/><path d="M24.787 8.497l-9.213 5.6M1.516 27.596v-13.12l7.388-4.679" stroke="#00BC4C"/><path d="M45.32 34.875V20.916" stroke="#0043BA"/><path stroke="#088BE8" d="M48.514 33.035V20.456L29.35 8.957m-5.02-7.819l-12.775 7.36v7.374L8.36 18.156v5.817"/><path stroke="#0043BA" d="M4.71 26.216v-9.44l4.65-3.3"/></g><g stroke-linecap="round"><path stroke="#00BC4C" d="M1.383 30.805v11.039l10.038 5.98v4.139l12.776 7.359"/><path d="M1.84 45.983l6.387 4.14" stroke="#088BE8"/><path stroke="#0043BA" d="M14.16 49.663l11.862 6.9 11.864-6.9"/><path d="M28.304 51.503l8.213-4.6m15.057-11.959v10.58l-6.388 3.679" stroke="#00BC4C"/><path d="M8.684 27.125v11.959" stroke="#0043BA"/><path stroke="#088BE8" d="M5.033 28.965v11.039l18.708 11.039m5.019 7.819l13.232-7.82v-7.374l3.65-2.744v-3.277"/><path stroke="#0043BA" d="M48.837 35.864v6.9l-4.107 2.76"/></g></g></svg>