<svg height="34" width="34" xmlns="http://www.w3.org/2000/svg"><g fill="none" stroke-width="2"><path d="M5 17h12V5m12 12H17v12" stroke="#3a8fe6"/><g fill="#fff" transform="translate(1 1)"><path d="M16 32a2 2 0 100-4 2 2 0 000 4z" stroke="#004b80"/><circle cx="2" cy="16" r="2" stroke="#004b80"/><circle cx="16" cy="16" r="2" stroke="#004b80"/><circle cx="30" cy="16" r="2" stroke="#004b80"/><path d="M16 4a2 2 0 100-4 2 2 0 000 4z" stroke="#004b80"/><path d="M6 8a2 2 0 100-4 2 2 0 000 4zm20 0a2 2 0 100-4 2 2 0 000 4zM6 28a2 2 0 100-4 2 2 0 000 4zm20 0a2 2 0 100-4 2 2 0 000 4z" stroke="#c2d6ff"/></g></g></svg>