<svg width="35" height="40" xmlns="http://www.w3.org/2000/svg" xmlns:xlink="http://www.w3.org/1999/xlink"><defs><path id="a" d="M0 .132h34.979V39.58H0z"/></defs><g fill="none" fill-rule="evenodd"><g transform="translate(0 .045)"><mask id="b" fill="#fff"><use xlink:href="#a"/></mask><path d="M32.092 10.437a.303.303 0 01.05-.288c1.203-1.52 2.296-3.27 2.296-4.612 0-2.985-1.701-5.405-5.405-5.405-1.835 0-3.177.595-4.066 1.558a.308.308 0 01-.322.087A24.286 24.286 0 0020.498.84a.302.302 0 00-.331.378c.304 1.146 2.29 8.342 3.827 13.903.925 3.35-1.601 6.657-5.076 6.645l-2.047-.006c-3.397-.011-5.889-3.198-5.08-6.497 1.365-5.576 3.164-12.912 3.476-14.118a.302.302 0 00-.328-.377c-.887.104-2.944.405-5.012 1.148a.307.307 0 01-.339-.093C8.703.783 7.323.133 5.405.133 1.702.132 0 2.551 0 5.536c0 1.566 1.487 3.686 2.901 5.348a.3.3 0 01.056.294L.555 18.182a.217.217 0 00-.006.022c-.063.245-.996 4.367 6.074 10.946 2.117 1.97 9.485 9.07 10.808 10.345a.3.3 0 00.413.003c1.361-1.264 9.004-8.36 11.127-10.34 7.637-7.122 5.818-10.968 5.818-10.968l-2.697-7.753z" fill="#290B53" mask="url(#b)"/></g><path d="M19.329 17.212H16.45a.864.864 0 01-.864-.863l-.354-3.586c0-.477.387-.864.864-.864h3.586c.477 0 .863.387.863.864l-.353 3.586a.864.864 0 01-.864.863" fill="#290B53"/></g></svg>