<svg height="64" width="64" xmlns="http://www.w3.org/2000/svg"><g fill="none" fill-rule="evenodd" transform="translate(0 -2)"><path d="M.5 2.5h63v63H.5z" stroke="#fff" stroke-opacity=".1"/><path d="M2.5 4.5h28v28h-28z" stroke="#1155cb"/><path d="M5.5 8.5h9v8h-9z" stroke="#3a8fe6"/><path d="M18.5 8.5h9v20h-9z" stroke="#c8a977"/><circle cx="10" cy="24" r="4.5" stroke="#1155cb"/><g transform="rotate(-90 49 12)"><path d="M.5.5h9v8h-9z" stroke="#3a8fe6"/><path d="M13.5.5h9v8h-9z" stroke="#c8a977"/><circle cx="5" cy="16" r="4.5" stroke="#1155cb"/></g><path d="M33.5 4.5h28v28h-28z" stroke="#3a8fe6"/><path d="M2.5 35.5h59v28h-59zm35-6.803l7.377-8.197H37.5z" stroke="#c8a977"/><path d="M18.5 58.697l7.377-8.197H18.5zm38.5-11.5L49.623 39H57z" stroke="#3a8fe6"/><path d="M23 39.618l-4.167 3.028 1.591 4.9h5.152l1.591-4.9z" stroke="#c8a977"/><path d="M37.5 16.5v-9h20v9zM6.143 39.565h9v20h-9z" stroke="#1155cb"/></g></svg>